<?xml version="1.0" encoding="UTF-8" standalone="no"?>
<!-- Created with Inkscape (http://www.inkscape.org/) -->

<svg
   width="210mm"
   height="148mm"
   viewBox="0 0 209.99999 148.00001"
   version="1.1"
   id="svg5"
   sodipodi:docname="02Seitenwand.svg"
   inkscape:version="1.4.2 (f4327f4, 2025-05-13)"
   inkscape:export-filename="C:\Users\lange\Desktop\STEAM Azerbaijan work\Curriculum Grade 8\Walking Robot\SVG\side test.png"
   inkscape:export-xdpi="96"
   inkscape:export-ydpi="96"
   xmlns:inkscape="http://www.inkscape.org/namespaces/inkscape"
   xmlns:sodipodi="http://sodipodi.sourceforge.net/DTD/sodipodi-0.dtd"
   xmlns="http://www.w3.org/2000/svg"
   xmlns:svg="http://www.w3.org/2000/svg">
  <sodipodi:namedview
     id="namedview7"
     pagecolor="#ffffff"
     bordercolor="#666666"
     borderopacity="1.0"
     inkscape:pageshadow="2"
     inkscape:pageopacity="0.0"
     inkscape:pagecheckerboard="0"
     inkscape:document-units="mm"
     showgrid="false"
     inkscape:zoom="0.72337262"
     inkscape:cx="392.34596"
     inkscape:cy="216.31596"
     inkscape:window-width="1920"
     inkscape:window-height="1009"
     inkscape:window-x="-8"
     inkscape:window-y="-8"
     inkscape:window-maximized="1"
     inkscape:current-layer="layer1"
     inkscape:rotation="-1"
     inkscape:showpageshadow="2"
     inkscape:deskcolor="#d1d1d1" />
  <defs
     id="defs2" />
  <g
     inkscape:label="Layer 1"
     inkscape:groupmode="layer"
     id="layer1"
     transform="translate(-0.64593596,-1.941505)">
    <path
       d="m 75.642996,36.652082 0.0449,-0.007 0.002,-3.9e-4 9e-4,-4.6e-4 0.0605,-0.0308 0.0356,-0.0127 0.178,-0.084 0.13919,-0.0832 0.14281,-0.0728 0.443,-0.443 0.026,-0.051 0.25799,-0.506 0.098,-0.618 -0.098,-0.618 -0.284,-0.558 -0.443,-0.442 -0.557,-0.284 -0.0454,-0.007 -0.0826,-0.0131 -0.0441,-0.007 -0.10089,-0.0255 -0.005,-10e-4 -0.195,-0.029 -0.0756,-0.004 -0.0388,-0.006 -0.0316,-0.005 -0.0315,0.005 -0.005,7.2e-4 -0.014,-7.2e-4 -0.196,0.01 -0.195,0.029 -0.14091,0.0356 -0.0491,0.0124 -0.185,0.066 -0.178,0.084 -0.10145,0.0606 -0.0675,0.0404 -0.157,0.117 -0.146,0.132 -0.0776,0.0858 -0.0544,0.0602 -0.10399,0.13956 -0.013,0.0174 -0.10099,0.169 -0.0536,0.11353 -0.0304,0.0645 -0.066,0.185 -0.034,0.13459 -0.014,0.0554 -0.029,0.195 -0.009,0.196 0.009,0.196 0.029,0.195 0.014,0.0554 0.034,0.13458 0.066,0.185 0.084,0.178 0.10099,0.169 0.002,0.003 0.0108,0.0144 0.104,0.13955 0.132,0.146 0.11574,0.10464 0.0303,0.0274 0.157,0.117 0.169,0.101 0.178,0.084 0.0636,0.0227 0.12141,0.0433 0.19,0.048 0.18828,0.028 0.007,10e-4 0.196,0.009 0.196,-0.009 0.007,-10e-4 0.18827,-0.028 0.005,-0.001 0.185,-0.0467 0.0407,-0.0145 m 57.878794,33.59771 H 57.521336 v -4.022 -3.155 -42.823 h 2.297 3.155 9.045 0.353 0.648 0.052 4.001 10.447 3.155 37.144004 3.155 2.548 v 42.823 3.155 4.022 m -60.168004,-21.804 0.016,0.01 0.237,0.14238 0.266,0.126 0.0755,0.027 0.20146,0.072 0.286,0.072 0.292,0.043 0.294,0.015 0.294,-0.015 0.292,-0.043 0.286,-0.072 0.20146,-0.072 0.0755,-0.027 0.266,-0.126 0.1421,-0.0854 0.1109,-0.0666 0.237,-0.175 0.12881,-0.117 0.0892,-0.081 0.14127,-0.15554 0.0567,-0.0625 0.12301,-0.16657 0.052,-0.0704 0.152,-0.253 0.103,-0.21744 0.023,-0.0486 0.099,-0.277 0.072,-0.286 0.043,-0.292 0.014,-0.294 -0.014,-0.294 -0.043,-0.292 -0.072,-0.286 -0.099,-0.277 -0.023,-0.0486 -0.103,-0.21745 -0.152,-0.253 -0.0318,-0.0431 -0.0202,-0.0274 -0.1134,-0.15358 -0.01,-0.013 -0.198,-0.218 -0.218,-0.198 -0.237,-0.175 -0.17144,-0.103 -0.0816,-0.049 -0.26601,-0.126 -0.27699,-0.099 -0.28601,-0.072 -0.18999,-0.028 -0.10201,-0.015 -0.29399,-0.014 -0.294,0.014 -0.292,0.043 -0.28601,0.072 -0.27699,0.099 -0.26601,0.126 -0.0816,0.049 -0.15544,0.0934 -0.016,0.01 -0.237,0.175 -0.045,0.0409 -0.173,0.15712 -0.19799,0.218 -0.01,0.013 -0.1654,0.224 -0.152,0.253 -0.002,0.004 -0.124,0.26178 -0.099,0.277 -0.072,0.286 -0.043,0.292 -0.015,0.294 0.008,0.156 0.007,0.138 0.043,0.292 0.072,0.286 0.099,0.277 0.124,0.26178 0.002,0.004 0.152,0.253 0.11924,0.16149 0.0558,0.0755 0.198,0.218 0.0892,0.081 0.0838,0.0761 0.045,0.0409 0.15127,0.1117 0.0857,0.0633 m 49.171004,14.62701 h -20.005 v 3.155 h 20.005 v -3.155 m -37.001004,0 h -20.005 v 3.155 h 20.005 v -3.155 m 45.450004,-38.826 h -3.155 v 10.005 h 3.155 v -10.005 m 0,16.801 h -3.155 v 10.005 h 3.155 v -10.005 m -40.299004,-10.8 h -3.155 v 6.494 12.009 0.202 1.3 h 3.155 v -20.005 m -27.701,0 h -3.155 v 20.005 h 3.155 z"
       fill="none"
       stroke="#ff0000"
       stroke-width="0.001mm"
       id="path2114"
       style="stroke-width:0.2;stroke-miterlimit:4;stroke-dasharray:none;stroke:#000000;stroke-opacity:1" />
  </g>
</svg>
