<?xml version="1.0" encoding="UTF-8" standalone="no"?>
<svg
   width="210mm"
   height="148mm"
   viewBox="77.025002 -16.35 210 148"
   version="1.1"
   id="svg8"
   sodipodi:docname="05Scheibe20.svg"
   inkscape:version="1.4.2 (f4327f4, 2025-05-13)"
   xmlns:inkscape="http://www.inkscape.org/namespaces/inkscape"
   xmlns:sodipodi="http://sodipodi.sourceforge.net/DTD/sodipodi-0.dtd"
   xmlns="http://www.w3.org/2000/svg"
   xmlns:svg="http://www.w3.org/2000/svg"
   xmlns:rdf="http://www.w3.org/1999/02/22-rdf-syntax-ns#"
   xmlns:cc="http://creativecommons.org/ns#"
   xmlns:dc="http://purl.org/dc/elements/1.1/">
  <defs
     id="defs12" />
  <sodipodi:namedview
     id="namedview10"
     pagecolor="#ffffff"
     bordercolor="#666666"
     borderopacity="1.0"
     inkscape:pageshadow="2"
     inkscape:pageopacity="0.0"
     inkscape:pagecheckerboard="0"
     inkscape:document-units="mm"
     showgrid="false"
     inkscape:zoom="1.6412779"
     inkscape:cx="293.36897"
     inkscape:cy="410.96028"
     inkscape:window-width="1920"
     inkscape:window-height="1009"
     inkscape:window-x="-8"
     inkscape:window-y="-8"
     inkscape:window-maximized="1"
     inkscape:current-layer="svg8"
     inkscape:showpageshadow="2"
     inkscape:deskcolor="#d1d1d1" />
  <title
     id="title2">svgOutput</title>
  <desc
     id="desc4">made with tinkercad</desc>
  <path
     d="m 120.44207,30.765937 0.0153,0.061 0.22369,0.891 0.14399,0.971 0.048,0.98 -0.048,0.98 -0.14399,0.971 -0.239,0.952 -0.33,0.924 -0.42,0.887 -0.3807,0.636 -0.1233,0.206 -0.585,0.788 -0.659,0.727 -0.727,0.659 -0.788,0.585 -0.842,0.504 -0.887,0.42 -0.924,0.33 -0.816,0.204857 -0.136,0.03414 -0.971,0.144 -0.98,0.048 -0.98,-0.048 -0.971,-0.144 -0.952,-0.239 -0.924,-0.33 -0.887,-0.42 -0.842,-0.504 -0.549,-0.40757 -0.239,-0.17743 -0.727,-0.659 -0.659,-0.727 -0.585,-0.788 -0.12331,-0.206 -0.38069,-0.636 -0.42,-0.887 -0.33,-0.924 -0.239,-0.952 -0.144,-0.971 -0.048,-0.98 0.048,-0.98 0.144,-0.971 0.239,-0.952 0.33,-0.924 0.42,-0.887 0.504,-0.842 0.585,-0.788 0.659,-0.727 0.727,-0.659 0.239,-0.17743 0.549,-0.40757 0.842,-0.504 0.887,-0.42 0.924,-0.33 0.952,-0.239 0.373,-0.05532 0.598,-0.08868 0.98,-0.048 0.98,0.048 0.597,0.08854 0.374,0.05546 0.136,0.03414 0.816,0.204857 0.924,0.33 0.887,0.42 0.842,0.504 0.788,0.585 0.727,0.659 0.659,0.727 0.585,0.788 0.504,0.842 0.42,0.887 0.33,0.924 m -7.992,-2.099997 h -3.155 v 10.005003 h 3.155 z"
     fill="none"
     stroke="#ff0000"
     stroke-width="0.001mm"
     id="path6-1"
     style="stroke:#010000;stroke-width:0.2;stroke-miterlimit:4;stroke-dasharray:none;stroke-opacity:1" />
  <metadata
     id="metadata1">
    <rdf:RDF>
      <cc:Work
         rdf:about="">
        <dc:title>svgOutput</dc:title>
      </cc:Work>
    </rdf:RDF>
  </metadata>
</svg>
