<?xml version="1.0" encoding="UTF-8" standalone="no"?>
<!-- Created with Inkscape (http://www.inkscape.org/) -->

<svg
   width="148mm"
   height="210mm"
   viewBox="0 0 148 210"
   version="1.1"
   id="svg5"
   inkscape:version="1.4.2 (f4327f4, 2025-05-13)"
   sodipodi:docname="07Scheibe10.svg"
   xmlns:inkscape="http://www.inkscape.org/namespaces/inkscape"
   xmlns:sodipodi="http://sodipodi.sourceforge.net/DTD/sodipodi-0.dtd"
   xmlns="http://www.w3.org/2000/svg"
   xmlns:svg="http://www.w3.org/2000/svg">
  <sodipodi:namedview
     id="namedview7"
     pagecolor="#ffffff"
     bordercolor="#666666"
     borderopacity="1.0"
     inkscape:pageshadow="2"
     inkscape:pageopacity="0.0"
     inkscape:pagecheckerboard="0"
     inkscape:document-units="mm"
     showgrid="false"
     inkscape:zoom="1.0230034"
     inkscape:cx="320.13579"
     inkscape:cy="294.72043"
     inkscape:window-width="1920"
     inkscape:window-height="1009"
     inkscape:window-x="-8"
     inkscape:window-y="-8"
     inkscape:window-maximized="1"
     inkscape:current-layer="layer1"
     inkscape:showpageshadow="2"
     inkscape:deskcolor="#d1d1d1" />
  <defs
     id="defs2" />
  <g
     inkscape:label="Layer 1"
     inkscape:groupmode="layer"
     id="layer1"
     transform="translate(-1.013472,-3.085674)">
    <path
       d="m 47.966833,64.461234 0.0361,0.243 0.0359,0.242 0.024,0.49 -0.024,0.49 -0.072,0.485 -0.119,0.476 -0.166,0.462 -0.209,0.444 -0.253,0.421 -0.292,0.394 -0.17354,0.192 -0.15546,0.172 -0.364,0.329 -0.394,0.292 -0.421,0.253 -0.444,0.209 -0.462,0.166 -0.476,0.119 -0.485,0.072 -0.4,0.0196 -0.09,0.004 -0.49,-0.024 -0.485,-0.072 -0.476,-0.119 -0.462,-0.166 -0.444,-0.209 -0.421,-0.253 -0.394,-0.292 -0.364,-0.329 -0.15546,-0.172 -0.17354,-0.192 -0.292,-0.394 -0.253,-0.421 -0.209,-0.444 -0.166,-0.462 -0.119,-0.476 -0.072,-0.485 -0.024,-0.49 0.024,-0.49 0.0359,-0.242 0.0361,-0.243 0.119,-0.476 0.166,-0.462 0.209,-0.444 0.253,-0.421 0.292,-0.394 0.329,-0.364 0.364,-0.329 0.394,-0.292 0.276,-0.16587 0.145,-0.0871 0.444,-0.20899 0.462,-0.16601 0.476,-0.11899 0.485,-0.072 0.49,-0.024 0.09,0.004 0.4,0.0196 0.485,0.072 0.476,0.11899 0.462,0.16601 0.444,0.20899 0.146,0.0877 0.275,0.16527 0.394,0.292 0.364,0.329 0.329,0.36399 0.292,0.39401 0.253,0.421 0.209,0.444 0.166,0.462 0.119,0.476 m -2.401,-0.602 h -2.413 -2.592 v 0.845 2.30999 h 2.592 2.413 v -2.30997 z"
       fill="none"
       stroke="#ff0000"
       stroke-width="0.001mm"
       id="path1031"
       style="stroke-width:0.2;stroke-miterlimit:4;stroke-dasharray:none;stroke:#020000;stroke-opacity:1" />
  </g>
</svg>
