<?xml version="1.0" encoding="UTF-8" standalone="no"?>
<svg
   width="148mm"
   height="210mm"
   viewBox="-15.8 -44 148 210"
   version="1.1"
   id="svg8"
   sodipodi:docname="10Hinterbein.svg"
   inkscape:version="1.4.2 (f4327f4, 2025-05-13)"
   xmlns:inkscape="http://www.inkscape.org/namespaces/inkscape"
   xmlns:sodipodi="http://sodipodi.sourceforge.net/DTD/sodipodi-0.dtd"
   xmlns="http://www.w3.org/2000/svg"
   xmlns:svg="http://www.w3.org/2000/svg"
   xmlns:rdf="http://www.w3.org/1999/02/22-rdf-syntax-ns#"
   xmlns:cc="http://creativecommons.org/ns#"
   xmlns:dc="http://purl.org/dc/elements/1.1/">
  <defs
     id="defs12" />
  <sodipodi:namedview
     id="namedview10"
     pagecolor="#ffffff"
     bordercolor="#666666"
     borderopacity="1.0"
     inkscape:pageshadow="2"
     inkscape:pageopacity="0.0"
     inkscape:pagecheckerboard="0"
     inkscape:document-units="mm"
     showgrid="false"
     inkscape:zoom="0.4298585"
     inkscape:cx="408.27389"
     inkscape:cy="301.26193"
     inkscape:window-width="1920"
     inkscape:window-height="1009"
     inkscape:window-x="-8"
     inkscape:window-y="-8"
     inkscape:window-maximized="1"
     inkscape:current-layer="svg8"
     inkscape:snap-global="false"
     inkscape:showpageshadow="2"
     inkscape:deskcolor="#d1d1d1" />
  <title
     id="title2">svgOutput</title>
  <desc
     id="desc4">made with tinkercad</desc>
  <path
     d="m 58.810305,58.537332 0.21309,0.356 0.29091,0.486 0.420002,0.887 0.33,0.923999 0.239,0.952001 0.144,0.970999 0.048,0.98 -0.048,0.98 -0.144,0.971 -0.239,0.952 -0.33,0.924001 -0.420002,0.886999 -0.504,0.842 -0.547,0.736814 -0.038,0.05119 -0.23,0.253733 v 0.08439 0.189675 0.279569 0.348441 0.427402 0.487708 0.570158 0.647573 0.367351 l 0.005,23.789962 c 0.005,4.136393 -3.355901,7.497733 -7.502329,7.497733 -4.146428,0 -7.507771,-3.36134 -7.505441,-7.497733 l 0.0024,-23.789962 v -3.082433 -0.263755 -0.05608 l -0.23,-0.253732 -0.585001,-0.788 -0.300998,-0.502861 -0.203001,-0.339139 -0.42,-0.886999 -0.33,-0.924001 -0.239,-0.952 -0.144,-0.971 -0.048,-0.98 0.048,-0.98 0.144,-0.970999 0.239,-0.952001 0.33,-0.923999 0.42,-0.887 0.203001,-0.339139 0.08791,-0.146861 0.213092,-0.356 0.585001,-0.788001 0.23,-0.253732 v -0.0844 -0.189676 -0.279568 -0.348442 -0.427402 -0.487707 -0.570158 -0.647574 -0.367347 -1.251 l -2.5,-2.499999 -19.449,-19.449002 -0.13312,-0.133121 -0.171588,-0.171587 -0.08865,-0.08865 -0.02215,-0.02215 -0.258495,0.09251 -0.713999,0.179001 -0.728001,0.108 -0.735,0.036 -0.734999,-0.036 -0.157001,-0.02329 -0.570999,-0.08471 -0.714,-0.179003 -0.693,-0.247999 -0.665,-0.315001 -0.632,-0.378 -0.591,-0.438 -0.545,-0.495001 -0.495,-0.545 -0.438,-0.590999 -0.378,-0.632 -0.315,-0.665001 -0.04939,-0.138001 -0.198615,-0.555 -0.179,-0.713997 -0.108,-0.728 -0.03599,-0.735001 0.036,-0.735001 0.108,-0.728 0.179,-0.713997 0.09251,-0.258495 0.155494,-0.434506 0.315,-0.665001 0.378,-0.632 0.438,-0.590999 0.495,-0.545002 0.172859,-0.156998 0.372141,-0.338001 0.591,-0.438 0.632,-0.377998 0.665,-0.315003 0.693,-0.247997 0.199775,-0.05009 0.514226,-0.128914 0.570999,-0.08471 0.157,-0.02329 0.735,-0.036 0.735,0.036 0.728,0.108002 0.714,0.179001 0.693,0.247997 0.665,0.315003 0.632,0.377998 0.591,0.438 0.372141,0.338001 0.172859,0.156998 0.495,0.545002 0.438,0.590999 0.378,0.632 0.315,0.665001 0.248,0.693001 0.123,0.490623 0.056,0.223374 0.108,0.728 0.036,0.735002 -0.036,0.735001 -0.108,0.728 -0.056,0.223374 -0.07285,0.290592 0.01579,0.01579 0.05706,0.05705 0.2,0.199993 0.75322,0.753193 4.497159,4.497002 9.549621,9.549285 2.5,2.499912 4.950979,4.950805 2.868894,-0.01478 c 3.954399,-0.01478 7.161637,3.230929 7.170882,7.202562 l 0.0092,2.358406 v 0.05608 l 0.23,0.253733 0.038,0.05119 0.547,0.736814 m -41.486999,-38.017002 -0.02,0.0071 -0.257,0.09185 -0.266,0.125999 -0.253,0.152001 -0.236999,0.174999 -0.218001,0.197998 -0.198,0.218002 -0.174999,0.237 -0.152,0.252998 -0.02416,0.051 -0.101843,0.215 -0.099,0.276996 -0.072,0.286003 -0.043,0.292 -0.014,0.293999 0.014,0.293999 0.043,0.292 0.02467,0.098 0.04733,0.188004 0.099,0.276996 0.126,0.266003 0.01874,0.0312 0.133257,0.221801 0.174999,0.237 0.198,0.218002 0.218001,0.197998 0.236999,0.176003 0.253,0.150997 0.177334,0.084 0.08867,0.042 0.277001,0.099 0.285999,0.072 0.292001,0.043 0.293999,0.015 0.294001,-0.015 0.291999,-0.043 0.286001,-0.072 0.277,-0.099 0.08867,-0.042 0.177332,-0.084 0.253001,-0.150997 0.237,-0.176003 0.218,-0.197998 0.198,-0.218002 0.176,-0.237 0.151,-0.252998 0.126,-0.266003 0.099,-0.276996 0.04733,-0.188004 0.02467,-0.098 0.043,-0.292 0.015,-0.293999 -0.015,-0.293999 -0.043,-0.292 -0.072,-0.286003 -0.099,-0.276996 -0.101842,-0.215 -0.02416,-0.051 -0.151,-0.252998 -0.176,-0.237 -0.198,-0.218002 -0.218,-0.197998 -0.237,-0.174999 -0.222316,-0.133568 -0.03068,-0.01843 -0.259,-0.122684 -0.007,-0.0033 -0.277,-0.099 -0.286,-0.072 -0.292,-0.043 -0.294,-0.014 -0.294,0.014 -0.292,0.043 -0.286,0.072 m 32.747999,49.054578 0.424,0.02045 0.539,-0.026 0.534,-0.079 0.524,-0.131 0.509001,-0.182 0.487999,-0.231 0.462999,-0.278 0.434,-0.322 0.400002,-0.362 0.361999,-0.4 0.322001,-0.434 0.03903,-0.065 0.238972,-0.398 0.230996,-0.488 0.182,-0.509 0.131,-0.524 0.079,-0.534 0.026,-0.539 -0.026,-0.539 -0.079,-0.534 -0.008,-0.031 -0.1233,-0.493 -0.182,-0.508999 -0.230998,-0.488001 -0.278,-0.463 -0.322001,-0.434 -0.361999,-0.4 -0.400002,-0.363 -0.434,-0.321 -0.462999,-0.278 -0.487999,-0.231 -0.324419,-0.116 -0.184582,-0.066 -0.524,-0.131 -0.534,-0.079 -0.539,-0.027 -0.539,0.027 -0.534,0.079 -0.524,0.131 -0.184582,0.066 -0.324419,0.116 -0.487999,0.231 -0.462999,0.278 -0.434,0.321 -0.400002,0.363 -0.361999,0.4 -0.322001,0.434 -0.278,0.463 -0.230999,0.488001 -0.182001,0.508999 -0.123249,0.493001 -0.0077,0.031 -0.079,0.534 -0.027,0.539 0.027,0.539 0.079,0.533999 0.130998,0.524001 0.182001,0.509 0.230999,0.488 0.238972,0.398 0.03903,0.065 0.322001,0.434 0.361999,0.4 0.400002,0.362 0.434,0.322 0.462948,0.277999 0.487999,0.231 0.509001,0.182 0.524,0.131 0.534,0.079 z"
     fill="none"
     stroke="#ff0000"
     stroke-width="0.001mm"
     id="path6-6"
     style="fill:none;fill-opacity:1;stroke:#010000;stroke-width:0.2;stroke-miterlimit:4;stroke-dasharray:none;stroke-opacity:1"
     sodipodi:nodetypes="cccccccccccccccccccccccccccscccccccccccccccccccccccccccccccccccccccccccccccccccccccccccccccccccccccccccccccccccccccccccccccccccccccccccccccccccccccccccccccccccccccccccccccccccccccccccccccccccccccccccccccccccccccccccccccccccccccccccccccccccccccccccccccccccccccccccccccccccccccccccccccccccccccccc" />
  <metadata
     id="metadata1925">
    <rdf:RDF>
      <cc:Work
         rdf:about="">
        <dc:title>svgOutput</dc:title>
      </cc:Work>
    </rdf:RDF>
  </metadata>
</svg>
