<?xml version="1.0" encoding="UTF-8" standalone="no"?>
<svg
   width="51.80000019073486mm"
   height="84mm"
   viewBox="-15.800000190734863 -44 51.80000019073486 84"
   version="1.1"
   id="svg8"
   sodipodi:docname="back+leg.svg"
   inkscape:version="1.1 (c68e22c387, 2021-05-23)"
   xmlns:inkscape="http://www.inkscape.org/namespaces/inkscape"
   xmlns:sodipodi="http://sodipodi.sourceforge.net/DTD/sodipodi-0.dtd"
   xmlns="http://www.w3.org/2000/svg"
   xmlns:svg="http://www.w3.org/2000/svg">
  <defs
     id="defs12" />
  <sodipodi:namedview
     id="namedview10"
     pagecolor="#ffffff"
     bordercolor="#666666"
     borderopacity="1.0"
     inkscape:pageshadow="2"
     inkscape:pageopacity="0.0"
     inkscape:pagecheckerboard="0"
     inkscape:document-units="mm"
     showgrid="false"
     inkscape:zoom="1.2158234"
     inkscape:cx="69.08898"
     inkscape:cy="108.97964"
     inkscape:window-width="1920"
     inkscape:window-height="1017"
     inkscape:window-x="-8"
     inkscape:window-y="-8"
     inkscape:window-maximized="1"
     inkscape:current-layer="svg8" />
  <title
     id="title2">svgOutput</title>
  <desc
     id="desc4">made with tinkercad</desc>
  <path
     d="M 33.314998626708984 -0.35600000619888295 L 33.52809143066406 1.1102230246251565e-16 L 33.819000244140625 0.4860000014305116 L 34.23899841308594 1.3730000257492065 L 34.569000244140625 2.296999931335449 L 34.80799865722656 3.249000072479248 L 34.95199966430664 4.21999979019165 L 35 5.199999809265137 L 34.95199966430664 6.179999828338623 L 34.80799865722656 7.151000022888184 L 34.569000244140625 8.102999687194824 L 34.23899841308594 9.027000427246094 L 33.819000244140625 9.913999557495117 L 33.314998626708984 10.755999565124512 L 32.768001556396484 11.492814064025879 L 32.72999954223633 11.543999671936035 L 32.5 11.797733306884766 L 32.5 11.882126808166504 L 32.5 12.071802139282227 L 32.5 12.351370811462402 L 32.5 12.699811935424805 L 32.5 13.127214431762695 L 32.5 13.614921569824219 L 32.5 14.185079574584961 L 32.5 14.832653045654297 L 32.5 15.199999809265137 L 32.5 39 L 19.496999740600586 39 L 17.5 39 L 17.5 15.199999809265137 L 17.5 12.11756706237793 L 17.5 11.853812217712402 L 17.5 11.797733306884766 L 17.270000457763672 11.543999671936035 L 16.684999465942383 10.755999565124512 L 16.384000778198242 10.253138542175293 L 16.180999755859375 9.913999557495117 L 15.76099967956543 9.027000427246094 L 15.430999755859375 8.102999687194824 L 15.192000389099121 7.151000022888184 L 15.04800033569336 6.179999828338623 L 15 5.199999809265137 L 15.04800033569336 4.21999979019165 L 15.192000389099121 3.249000072479248 L 15.430999755859375 2.296999931335449 L 15.76099967956543 1.3730000257492065 L 16.180999755859375 0.4860000014305116 L 16.384000778198242 0.14686110615730297 L 16.471906661987305 1.1102230246251565e-16 L 16.684999465942383 -0.35600000619888295 L 17.270000457763672 -1.1440000534057617 L 17.5 -1.3977329730987549 L 17.5 -1.4821265935897827 L 17.5 -1.671802043914795 L 17.5 -1.9513705968856812 L 17.5 -2.299811840057373 L 17.5 -2.7272143363952637 L 17.5 -3.214921236038208 L 17.5 -3.78507924079895 L 17.5 -4.432652950286865 L 17.5 -4.800000190734863 L 17.5 -6.051000118255615 L 15 -8.550999641418457 L -4.448999881744385 -28 L -4.582120418548584 -28.133121490478516 L -4.753708362579346 -28.30470848083496 L -4.842357158660889 -28.393356323242188 L -4.864505767822266 -28.41550636291504 L -5.123000144958496 -28.322999954223633 L -5.836999893188477 -28.143999099731445 L -6.565000057220459 -28.035999298095703 L -7.300000190734863 -28 L -8.03499984741211 -28.035999298095703 L -8.192000389099121 -28.05929183959961 L -8.762999534606934 -28.143999099731445 L -9.47700023651123 -28.322999954223633 L -10.170000076293945 -28.570999145507812 L -10.835000038146973 -28.88599967956543 L -11.467000007629395 -29.263999938964844 L -12.057999610900879 -29.70199966430664 L -12.602999687194824 -30.19700050354004 L -13.097999572753906 -30.742000579833984 L -13.53600025177002 -31.33300018310547 L -13.913999557495117 -31.96500015258789 L -14.229000091552734 -32.630001068115234 L -14.278385162353516 -32.768001556396484 L -14.47700023651123 -33.323001861572266 L -14.656000137329102 -34.0369987487793 L -14.763999938964844 -34.76499938964844 L -14.800000190734863 -35.5 L -14.763999938964844 -36.23500061035156 L -14.656000137329102 -36.9630012512207 L -14.47700023651123 -37.676998138427734 L -14.384493827819824 -37.93549346923828 L -14.229000091552734 -38.369998931884766 L -13.913999557495117 -39.03499984741211 L -13.53600025177002 -39.66699981689453 L -13.097999572753906 -40.257999420166016 L -12.602999687194824 -40.803001403808594 L -12.43014144897461 -40.959999084472656 L -12.057999610900879 -41.29800033569336 L -11.467000007629395 -41.736000061035156 L -10.835000038146973 -42.11399841308594 L -10.170000076293945 -42.42900085449219 L -9.47700023651123 -42.676998138427734 L -9.277225494384766 -42.72708511352539 L -8.762999534606934 -42.85599899291992 L -8.192000389099121 -42.94070816040039 L -8.03499984741211 -42.9640007019043 L -7.300000190734863 -43 L -6.565000057220459 -42.9640007019043 L -5.836999893188477 -42.85599899291992 L -5.123000144958496 -42.676998138427734 L -4.429999828338623 -42.42900085449219 L -3.765000104904175 -42.11399841308594 L -3.132999897003174 -41.736000061035156 L -2.5420000553131104 -41.29800033569336 L -2.169858694076538 -40.959999084472656 L -1.996999979019165 -40.803001403808594 L -1.5019999742507935 -40.257999420166016 L -1.0640000104904175 -39.66699981689453 L -0.6859999895095825 -39.03499984741211 L -0.3709999918937683 -38.369998931884766 L -0.12300000339746475 -37.676998138427734 L 0 -37.18637466430664 L 0.0560000017285347 -36.9630012512207 L 0.164000004529953 -36.23500061035156 L 0.20000000298023224 -35.5 L 0.164000004529953 -34.76499938964844 L 0.0560000017285347 -34.0369987487793 L 1.304373352289446e-15 -33.81362533569336 L -0.07285121083259583 -33.523033142089844 L -0.05706410109996796 -33.50724792480469 L 0 -33.45018768310547 L 0.20000000298023224 -33.25019454956055 L 0.9532198905944824 -32.49700164794922 L 5.450378894805908 -28 L 15 -18.450716018676758 L 17.5 -15.950804710388184 L 22.450979232788086 -11 L 30.50200080871582 -11 L 32.5 -11 L 32.5 -4.800000190734863 L 32.5 -1.4538120031356812 L 32.5 -1.3977329730987549 L 32.72999954223633 -1.1440000534057617 L 32.768001556396484 -1.0928137302398682 L 33.314998626708984 -0.35600000619888295 M -8.17199993133545 -38.37300109863281 L -8.192000389099121 -38.36585235595703 L -8.449000358581543 -38.27399826049805 L -8.71500015258789 -38.14799880981445 L -8.968000411987305 -37.99599838256836 L -9.204999923706055 -37.82099914550781 L -9.42300033569336 -37.62300109863281 L -9.621000289916992 -37.404998779296875 L -9.795999526977539 -37.167999267578125 L -9.947999954223633 -36.915000915527344 L -9.97215747833252 -36.86399841308594 L -10.074000358581543 -36.64899826049805 L -10.17300033569336 -36.37200164794922 L -10.244999885559082 -36.08599853515625 L -10.288000106811523 -35.79399871826172 L -10.302000045776367 -35.5 L -10.288000106811523 -35.20600128173828 L -10.244999885559082 -34.91400146484375 L -10.220328330993652 -34.816001892089844 L -10.17300033569336 -34.62799835205078 L -10.074000358581543 -34.35100173950195 L -9.947999954223633 -34.084999084472656 L -9.929256439208984 -34.053802490234375 L -9.795999526977539 -33.832000732421875 L -9.621000289916992 -33.595001220703125 L -9.42300033569336 -33.37699890136719 L -9.204999923706055 -33.17900085449219 L -8.968000411987305 -33.00299835205078 L -8.71500015258789 -32.85200119018555 L -8.537666320800781 -32.768001556396484 L -8.449000358581543 -32.72600173950195 L -8.17199993133545 -32.62699890136719 L -7.886000156402588 -32.55500030517578 L -7.593999862670898 -32.512001037597656 L -7.300000190734863 -32.49700164794922 L -7.00600004196167 -32.512001037597656 L -6.714000225067139 -32.55500030517578 L -6.427999973297119 -32.62699890136719 L -6.151000022888184 -32.72600173950195 L -6.062333106994629 -32.768001556396484 L -5.885000228881836 -32.85200119018555 L -5.631999969482422 -33.00299835205078 L -5.394999980926514 -33.17900085449219 L -5.177000045776367 -33.37699890136719 L -4.979000091552734 -33.595001220703125 L -4.802999973297119 -33.832000732421875 L -4.6519999504089355 -34.084999084472656 L -4.526000022888184 -34.35100173950195 L -4.427000045776367 -34.62799835205078 L -4.379671096801758 -34.816001892089844 L -4.355000019073486 -34.91400146484375 L -4.311999797821045 -35.20600128173828 L -4.296999931335449 -35.5 L -4.311999797821045 -35.79399871826172 L -4.355000019073486 -36.08599853515625 L -4.427000045776367 -36.37200164794922 L -4.526000022888184 -36.64899826049805 L -4.627841949462891 -36.86399841308594 L -4.6519999504089355 -36.915000915527344 L -4.802999973297119 -37.167999267578125 L -4.979000091552734 -37.404998779296875 L -5.177000045776367 -37.62300109863281 L -5.394999980926514 -37.82099914550781 L -5.631999969482422 -37.99599838256836 L -5.854315757751465 -38.12956619262695 L -5.885000228881836 -38.14799880981445 L -6.144000053405762 -38.27068328857422 L -6.151000022888184 -38.27399826049805 L -6.427999973297119 -38.37300109863281 L -6.714000225067139 -38.44499969482422 L -7.00600004196167 -38.487998962402344 L -7.300000190734863 -38.50199890136719 L -7.593999862670898 -38.487998962402344 L -7.886000156402588 -38.44499969482422 L -8.17199993133545 -38.37300109863281 M 24.576000213623047 10.681547164916992 L 25 10.70199966430664 L 25.538999557495117 10.675999641418457 L 26.072999954223633 10.597000122070312 L 26.597000122070312 10.465999603271484 L 27.106000900268555 10.284000396728516 L 27.5939998626709 10.053000450134277 L 28.05699920654297 9.774999618530273 L 28.490999221801758 9.45300006866455 L 28.891000747680664 9.090999603271484 L 29.253000259399414 8.690999984741211 L 29.575000762939453 8.256999969482422 L 29.614028930664062 8.192000389099121 L 29.85300064086914 7.794000148773193 L 30.083999633789062 7.306000232696533 L 30.266000747680664 6.796999931335449 L 30.39699935913086 6.2729997634887695 L 30.47599983215332 5.738999843597412 L 30.50200080871582 5.199999809265137 L 30.47599983215332 4.660999774932861 L 30.39699935913086 4.126999855041504 L 30.389249801635742 4.0960001945495605 L 30.266000747680664 3.6029999256134033 L 30.083999633789062 3.0940001010894775 L 29.85300064086914 2.6059999465942383 L 29.575000762939453 2.1429998874664307 L 29.253000259399414 1.7089999914169312 L 28.891000747680664 1.309000015258789 L 28.490999221801758 0.9459999799728395 L 28.05699920654297 0.6250000000000001 L 27.5939998626709 0.34700000286102306 L 27.106000900268555 0.11599999666214 L 26.78158187866211 1.1102230246251565e-16 L 26.597000122070312 -0.06599999964237202 L 26.072999954223633 -0.19699999690055836 L 25.538999557495117 -0.2759999930858611 L 25 -0.3030000030994414 L 24.461000442504883 -0.2759999930858611 L 23.927000045776367 -0.19699999690055836 L 23.402999877929688 -0.06599999964237202 L 23.21841812133789 1.1102230246251565e-16 L 22.893999099731445 0.11599999666214 L 22.4060001373291 0.34700000286102306 L 21.94300079345703 0.6250000000000001 L 21.509000778198242 0.9459999799728395 L 21.108999252319336 1.309000015258789 L 20.746999740600586 1.7089999914169312 L 20.424999237060547 2.1429998874664307 L 20.14699935913086 2.6059999465942383 L 19.916000366210938 3.0940001010894775 L 19.733999252319336 3.6029999256134033 L 19.610750198364258 4.0960001945495605 L 19.60300064086914 4.126999855041504 L 19.52400016784668 4.660999774932861 L 19.496999740600586 5.199999809265137 L 19.52400016784668 5.738999843597412 L 19.60300064086914 6.2729997634887695 L 19.733999252319336 6.796999931335449 L 19.916000366210938 7.306000232696533 L 20.14699935913086 7.794000148773193 L 20.385971069335938 8.192000389099121 L 20.424999237060547 8.256999969482422 L 20.746999740600586 8.690999984741211 L 21.108999252319336 9.090999603271484 L 21.509000778198242 9.45300006866455 L 21.94300079345703 9.774999618530273 L 22.4060001373291 10.053000450134277 L 22.893999099731445 10.284000396728516 L 23.402999877929688 10.465999603271484 L 23.927000045776367 10.597000122070312 L 24.461000442504883 10.675999641418457 L 24.576000213623047 10.681547164916992 z"
     fill="none"
     stroke="rgb(255,0,0)"
     stroke-width="0.001mm"
     id="path6"
     style="fill:#000000;fill-opacity:1" />
</svg>
