<?xml version="1.0" encoding="UTF-8" standalone="no"?>
<svg
   width="22mm"
   height="22.000000476837158mm"
   viewBox="77.0250015258789 -16.350000381469727 22 22.000000476837158"
   version="1.1"
   id="svg8"
   sodipodi:docname="Back+Washer.svg"
   inkscape:version="1.1 (c68e22c387, 2021-05-23)"
   xmlns:inkscape="http://www.inkscape.org/namespaces/inkscape"
   xmlns:sodipodi="http://sodipodi.sourceforge.net/DTD/sodipodi-0.dtd"
   xmlns="http://www.w3.org/2000/svg"
   xmlns:svg="http://www.w3.org/2000/svg">
  <defs
     id="defs12" />
  <sodipodi:namedview
     id="namedview10"
     pagecolor="#ffffff"
     bordercolor="#666666"
     borderopacity="1.0"
     inkscape:pageshadow="2"
     inkscape:pageopacity="0.0"
     inkscape:pagecheckerboard="0"
     inkscape:document-units="mm"
     showgrid="false"
     inkscape:zoom="1.1605587"
     inkscape:cx="-200.76537"
     inkscape:cy="-115.0308"
     inkscape:window-width="1920"
     inkscape:window-height="1017"
     inkscape:window-x="-8"
     inkscape:window-y="-8"
     inkscape:window-maximized="1"
     inkscape:current-layer="svg8" />
  <title
     id="title2">svgOutput</title>
  <desc
     id="desc4">made with tinkercad</desc>
  <path
     d="M 97.59400177001953 -8.253000259399414 L 97.60931396484375 -8.192000389099121 L 97.83300018310547 -7.301000118255615 L 97.97699737548828 -6.329999923706055 L 98.0250015258789 -5.349999904632568 L 97.97699737548828 -4.369999885559082 L 97.83300018310547 -3.3989999294281006 L 97.59400177001953 -2.447000026702881 L 97.26399993896484 -1.5230000019073486 L 96.84400177001953 -0.6359999775886535 L 96.46330261230469 1.1102230246251565e-16 L 96.33999633789062 0.2060000002384187 L 95.75499725341797 0.994000017642975 L 95.09600067138672 1.7209999561309814 L 94.36900329589844 2.380000114440918 L 93.58100128173828 2.9649999141693115 L 92.73899841308594 3.4690001010894775 L 91.85199737548828 3.8889999389648438 L 90.9280014038086 4.218999862670898 L 90.11199951171875 4.42385721206665 L 89.97599792480469 4.458000183105469 L 89.00499725341797 4.6020002365112305 L 88.0250015258789 4.650000095367432 L 87.04499816894531 4.6020002365112305 L 86.0739974975586 4.458000183105469 L 85.12200164794922 4.218999862670898 L 84.197998046875 3.8889999389648438 L 83.31099700927734 3.4690001010894775 L 82.46900177001953 2.9649999141693115 L 81.91999816894531 2.5574302673339844 L 81.68099975585938 2.380000114440918 L 80.9540023803711 1.7209999561309814 L 80.29499816894531 0.994000017642975 L 79.70999908447266 0.2060000002384187 L 79.5866928100586 1.1102230246251565e-16 L 79.20600128173828 -0.6359999775886535 L 78.78600311279297 -1.5230000019073486 L 78.45600128173828 -2.447000026702881 L 78.21700286865234 -3.3989999294281006 L 78.072998046875 -4.369999885559082 L 78.0250015258789 -5.349999904632568 L 78.072998046875 -6.329999923706055 L 78.21700286865234 -7.301000118255615 L 78.45600128173828 -8.253000259399414 L 78.78600311279297 -9.177000045776367 L 79.20600128173828 -10.064000129699707 L 79.70999908447266 -10.906000137329102 L 80.29499816894531 -11.694000244140625 L 80.9540023803711 -12.420999526977539 L 81.68099975585938 -13.079999923706055 L 81.91999816894531 -13.257430076599121 L 82.46900177001953 -13.664999961853027 L 83.31099700927734 -14.168999671936035 L 84.197998046875 -14.58899974822998 L 85.12200164794922 -14.918999671936035 L 86.0739974975586 -15.157999992370605 L 86.4469985961914 -15.213315963745117 L 87.04499816894531 -15.302000045776367 L 88.0250015258789 -15.350000381469727 L 89.00499725341797 -15.302000045776367 L 89.60199737548828 -15.213464736938477 L 89.97599792480469 -15.157999992370605 L 90.11199951171875 -15.123857498168945 L 90.9280014038086 -14.918999671936035 L 91.85199737548828 -14.58899974822998 L 92.73899841308594 -14.168999671936035 L 93.58100128173828 -13.664999961853027 L 94.36900329589844 -13.079999923706055 L 95.09600067138672 -12.420999526977539 L 95.75499725341797 -11.694000244140625 L 96.33999633789062 -10.906000137329102 L 96.84400177001953 -10.064000129699707 L 97.26399993896484 -9.177000045776367 L 97.59400177001953 -8.253000259399414 M 89.60199737548828 -10.352999687194824 L 86.4469985961914 -10.352999687194824 L 86.4469985961914 -0.34799998998641957 L 89.60199737548828 -0.34799998998641957 L 89.60199737548828 -10.352999687194824 z"
     fill="none"
     stroke="rgb(255,0,0)"
     stroke-width="0.001mm"
     id="path6"
     style="stroke-width:0.104;stroke-miterlimit:4;stroke-dasharray:none" />
</svg>
