<?xml version="1.0" standalone="no"?>
<!DOCTYPE svg PUBLIC "-//W3C//DTD SVG 1.1//EN"
  "http://www.w3.org/Graphics/SVG/1.1/DTD/svg11.dtd">
<svg width="17mm" height="82mm" viewBox="-15 -41.79999923706055 17 82" xmlns="http://www.w3.org/2000/svg" version="1.1">
	<title>svgOutput</title>
	<desc>made with tinkercad</desc>
<path d="M -14 39.20000076293945 L -14 -40.79999923706055 L -9.503000259399414 -40.79999923706055 L -8.07800006866455 -40.79999923706055 L -4.922999858856201 -40.79999923706055 L -3.496999979019165 -40.79999923706055 L 1 -40.79999923706055 L 1 -5.297999858856201 L 1 39.20000076293945 L -4.922999858856201 39.20000076293945 L -8.07800006866455 39.20000076293945 L -9.503000259399414 39.20000076293945 L -14 39.20000076293945 M -6.794000148773193 -5.311999797821045 L -6.5 -5.297999858856201 L -6.205999851226807 -5.311999797821045 L -6.144000053405762 -5.321130275726318 L -5.914000034332275 -5.355000019073486 L -5.627999782562256 -5.427000045776367 L -5.35099983215332 -5.526000022888184 L -5.085000038146973 -5.6519999504089355 L -4.922999858856201 -5.749328136444092 L -4.831999778747559 -5.803999900817871 L -4.59499979019165 -5.979000091552734 L -4.376999855041504 -6.177000045776367 L -4.178999900817871 -6.394999980926514 L -4.0960001945495605 -6.507405757904053 L -4.004000186920166 -6.631999969482422 L -3.8519999980926514 -6.885000228881836 L -3.7260000705718994 -7.151000022888184 L -3.627000093460083 -7.427999973297119 L -3.555000066757202 -7.714000225067139 L -3.51200008392334 -8.005999565124512 L -3.5025103092193604 -8.192000389099121 L -3.496999979019165 -8.300000190734863 L -3.51200008392334 -8.593999862670898 L -3.555000066757202 -8.88599967956543 L -3.627000093460083 -9.17199993133545 L -3.7260000705718994 -9.449000358581543 L -3.8519999980926514 -9.71500015258789 L -4.004000186920166 -9.968000411987305 L -4.0960001945495605 -10.092594146728516 L -4.178999900817871 -10.204999923706055 L -4.376999855041504 -10.42300033569336 L -4.59499979019165 -10.621000289916992 L -4.831999778747559 -10.795999526977539 L -4.922999858856201 -10.850671768188477 L -5.085000038146973 -10.947999954223633 L -5.35099983215332 -11.074000358581543 L -5.627999782562256 -11.17300033569336 L -5.914000034332275 -11.244999885559082 L -6.144000053405762 -11.27886962890625 L -6.205999851226807 -11.288000106811523 L -6.5 -11.303000450134277 L -6.794000148773193 -11.288000106811523 L -7.085999965667725 -11.244999885559082 L -7.372000217437744 -11.17300033569336 L -7.64900016784668 -11.074000358581543 L -7.914999961853027 -10.947999954223633 L -8.07800006866455 -10.85007095336914 L -8.168000221252441 -10.795999526977539 L -8.192000389099121 -10.778278350830078 L -8.404999732971191 -10.621000289916992 L -8.623000144958496 -10.42300033569336 L -8.821000099182129 -10.204999923706055 L -8.996000289916992 -9.968000411987305 L -9.14799976348877 -9.71500015258789 L -9.27400016784668 -9.449000358581543 L -9.373000144958496 -9.17199993133545 L -9.444999694824219 -8.88599967956543 L -9.48799991607666 -8.593999862670898 L -9.503000259399414 -8.300000190734863 L -9.497489929199219 -8.192000389099121 L -9.48799991607666 -8.005999565124512 L -9.444999694824219 -7.714000225067139 L -9.373000144958496 -7.427999973297119 L -9.27400016784668 -7.151000022888184 L -9.14799976348877 -6.885000228881836 L -8.996000289916992 -6.631999969482422 L -8.821000099182129 -6.394999980926514 L -8.623000144958496 -6.177000045776367 L -8.404999732971191 -5.979000091552734 L -8.192000389099121 -5.82172155380249 L -8.168000221252441 -5.803999900817871 L -8.07800006866455 -5.749928951263428 L -7.914999961853027 -5.6519999504089355 L -7.64900016784668 -5.526000022888184 L -7.372000217437744 -5.427000045776367 L -7.085999965667725 -5.355000019073486 L -6.794000148773193 -5.311999797821045 M -4.922999858856201 -36.50299835205078 L -8.07800006866455 -36.50299835205078 L -8.07800006866455 -31.49799919128418 L -4.922999858856201 -31.49799919128418 L -4.922999858856201 -36.50299835205078 z" fill="none" stroke="rgb(255,0,0)" stroke-width="0.001mm" />
</svg>