<?xml version="1.0" encoding="UTF-8" standalone="no"?>
<!-- Created with Inkscape (http://www.inkscape.org/) -->

<svg
   width="71.905907mm"
   height="82.951073mm"
   viewBox="0 0 71.905906 82.951073"
   version="1.1"
   id="svg5"
   inkscape:version="1.1 (c68e22c387, 2021-05-23)"
   sodipodi:docname="Legs for laser.svg"
   xmlns:inkscape="http://www.inkscape.org/namespaces/inkscape"
   xmlns:sodipodi="http://sodipodi.sourceforge.net/DTD/sodipodi-0.dtd"
   xmlns="http://www.w3.org/2000/svg"
   xmlns:svg="http://www.w3.org/2000/svg">
  <sodipodi:namedview
     id="namedview7"
     pagecolor="#ffffff"
     bordercolor="#666666"
     borderopacity="1.0"
     inkscape:pageshadow="2"
     inkscape:pageopacity="0.0"
     inkscape:pagecheckerboard="0"
     inkscape:document-units="mm"
     showgrid="false"
     inkscape:zoom="0.72337262"
     inkscape:cx="393.29661"
     inkscape:cy="329.70559"
     inkscape:window-width="1920"
     inkscape:window-height="1001"
     inkscape:window-x="-9"
     inkscape:window-y="-9"
     inkscape:window-maximized="1"
     inkscape:current-layer="layer1" />
  <defs
     id="defs2" />
  <g
     inkscape:label="Layer 1"
     inkscape:groupmode="layer"
     id="layer1"
     transform="translate(-1.013472,-3.085674)">
    <path
       d="m 71.109235,45.854862 0.2131,0.356 0.290897,0.486 0.419997,0.887 0.33,0.924 0.238997,0.952 0.144,0.97099 0.048,0.98 -0.048,0.98 -0.144,0.97101 -0.238997,0.95199 -0.33,0.92401 -0.419997,0.88699 -0.503997,0.842 -0.546987,0.73682 -0.038,0.0512 -0.229997,0.25373 v 0.0844 0.18968 0.27957 0.34844 0.4274 0.48771 0.57016 0.64757 0.36735 23.8 H 57.291313 55.294325 v -23.80001 -3.08243 -0.26375 -0.0561 l -0.23,-0.25374 -0.584994,-0.788 -0.301,-0.50286 -0.203,-0.33914 -0.419997,-0.88699 -0.329997,-0.92401 -0.239,-0.95199 -0.143997,-0.97101 -0.048,-0.98 0.048,-0.98 0.143997,-0.97099 0.239,-0.952 0.329997,-0.924 0.419997,-0.887 0.203,-0.33914 0.0879,-0.14686 0.2131,-0.356 0.584994,-0.788 0.23,-0.25374 v -0.0844 -0.18968 -0.27957 -0.34844 -0.4274 -0.48771 -0.57015 -0.64758 -0.36735 -1.251 l -2.499985,-2.49999 -19.44891,-19.449 -0.13312,-0.13313 -0.17159,-0.17158 -0.0887,-0.0887 -0.0221,-0.0221 -0.25849,0.0925 -0.714,0.179 -0.728,0.108 -0.735,0.036 -0.735,-0.036 -0.157,-0.0233 -0.571,-0.0847 -0.714,-0.179 -0.693,-0.248 -0.665,-0.315 -0.632,-0.378 -0.591,-0.438 -0.545002,-0.49501 -0.495,-0.545 -0.438,-0.591 -0.378,-0.63199 -0.315,-0.66501 -0.04938,-0.138 -0.198616,-0.555 -0.178999,-0.71399 -0.108,-0.728 -0.036,-0.735 0.036,-0.7350097 0.108,-0.7279997 0.178999,-0.7139897 0.09251,-0.2584997 0.155494,-0.4344997 0.315,-0.6649997 0.378,-0.6319997 0.438,-0.5910007 0.495,-0.5450097 0.172854,-0.15699 0.37215,-0.3380099 0.591,-0.43799 0.632,-0.378 0.665,-0.31501 0.693,-0.24799 0.19977,-0.0501 0.51423,-0.12892 0.571,-0.0847 0.157,-0.0233 0.735,-0.036 0.735,0.036 0.728,0.10801 0.714,0.179 0.693,0.24799 0.665,0.31501 0.632,0.37799 0.591,0.438 0.37214,0.3380099 0.17286,0.15699 0.495003,0.5449997 0.437997,0.5910007 0.377997,0.6319997 0.315,0.6650097 0.247997,0.6929994 0.123,0.4906197 0.056,0.22337 0.108,0.7279997 0.036,0.7349997 -0.036,0.735 -0.108,0.72801 -0.056,0.22337 -0.0729,0.29059 0.0158,0.0158 0.0571,0.0571 0.2,0.19999 0.753214,0.7532 4.497126,4.497 9.549576,9.54928 2.499985,2.49991 4.950953,4.95081 h 8.050972 1.997991 v 6.2 3.34619 0.0561 l 0.229997,0.25373 0.038,0.0512 0.546987,0.73681 M 29.62243,7.8379135 l -0.02,0.007 -0.257,0.0918 -0.266,0.126 -0.253,0.152 -0.237,0.175 -0.218,0.1980004 -0.198,0.218 -0.175,0.2369997 -0.152,0.253 -0.0241,0.051 -0.10185,0.2149997 -0.099,0.277 -0.072,0.2859997 -0.043,0.292 -0.014,0.294 0.014,0.294 0.043,0.292 0.0247,0.098 0.0473,0.188 0.099,0.277 0.126,0.266 0.0188,0.0312 0.13325,0.2218 0.175,0.237 0.198,0.21801 0.218,0.19799 0.237,0.17601 0.253,0.15099 0.17734,0.084 0.0887,0.042 0.277,0.099 0.286,0.072 0.292,0.043 0.294,0.015 0.294,-0.015 0.292,-0.043 0.286,-0.072 0.277,-0.099 0.0887,-0.042 0.17733,-0.084 0.253,-0.15099 0.237,-0.17601 0.218,-0.19799 0.198,-0.21801 0.176,-0.237 0.151,-0.25299 0.126,-0.26601 0.099,-0.27699 0.0473,-0.18801 0.0247,-0.098 0.043,-0.292 0.015,-0.294 -0.015,-0.29399 -0.043,-0.292 -0.072,-0.2860097 -0.099,-0.27699 -0.10184,-0.2149997 -0.0242,-0.051 -0.151,-0.253 -0.176,-0.2369997 -0.198,-0.218 -0.218,-0.1980004 -0.237,-0.175 -0.22231,-0.13357 -0.0307,-0.0184 -0.259,-0.12269 -0.007,-0.003 -0.277,-0.099 -0.286,-0.072 -0.292,-0.043 -0.294,-0.014 -0.294,0.014 -0.292,0.043 -0.286,0.072 m 32.747856,49.0545485 0.423997,0.0204 0.538997,-0.026 0.533997,-0.079 0.523997,-0.131 0.508997,-0.182 0.487997,-0.231 0.462997,-0.278 0.433997,-0.322 0.399997,-0.362 0.362,-0.4 0.321997,-0.434 0.039,-0.065 0.23897,-0.398 0.230997,-0.488 0.182,-0.509 0.131,-0.524 0.079,-0.534 0.026,-0.539 -0.026,-0.539 -0.079,-0.534 -0.008,-0.031 -0.12325,-0.493 -0.182,-0.509 -0.230997,-0.488 -0.278,-0.463 -0.321997,-0.434 -0.362,-0.4 -0.399997,-0.363 -0.433997,-0.321 -0.462997,-0.278 -0.487997,-0.231 -0.32442,-0.116 -0.184577,-0.066 -0.523997,-0.131 -0.533997,-0.079 -0.538997,-0.027 -0.538997,0.027 -0.533997,0.079 -0.523997,0.131 -0.18458,0.066 -0.324417,0.116 -0.487997,0.231 -0.462997,0.278 -0.434,0.321 -0.399997,0.363 -0.361997,0.4 -0.322,0.434 -0.277997,0.463 -0.231,0.488 -0.181997,0.509 -0.12325,0.493 -0.008,0.031 -0.079,0.534 -0.027,0.539 0.027,0.539 0.079,0.534 0.131,0.524 0.181997,0.509 0.231,0.488 0.23897,0.398 0.039,0.065 0.322,0.434 0.362004,0.4 0.399997,0.362 0.43401,0.322 0.462987,0.278 0.487997,0.231 0.508997,0.182 0.523997,0.131 0.533997,0.079 z"
       fill="none"
       stroke="#ff0000"
       stroke-width="0.001mm"
       id="path840"
       style="stroke-width:0.25;stroke-miterlimit:4;stroke-dasharray:none" />
    <path
       d="m 45.409042,62.577593 0.730014,1.218 0.027,0.045 0.628997,1.331 0.495997,1.386 0.357997,1.428 0.216,1.456 0.072,1.47 -0.072,1.47 -0.216,1.456 -0.357997,1.428 -0.495997,1.386 -0.628997,1.331 -0.756994,1.263 -0.692987,0.934 -0.18401,0.248 -0.987994,1.091 -1.090994,0.988 -1.181994,0.877 -1.262991,0.757 -1.330994,0.629 -1.385991,0.496 -1.427991,0.358 -1.455992,0.216 -1.47,0.072 -1.47,-0.072 -1.456,-0.216 -0.31,-0.0777 -1.118,-0.28028 -1.386,-0.496 -1.331,-0.629 -1.263,-0.757 -1.182,-0.877 -1.091,-0.988 -0.988,-1.091 -0.18401,-0.248 -0.69299,-0.934 -0.757,-1.263 -0.629,-1.331 -0.496,-1.386 -0.358,-1.428 -0.216,-1.456 -0.072,-1.47 0.072,-1.47 0.216,-1.456 0.358,-1.428 0.496,-1.386 0.629,-1.331 0.027,-0.045 0.73003,-1.218 0.877,-1.182 0.988,-1.091 1.091,-0.988 1.182,-0.877 1.263,-0.757 1.331,-0.629 1.386,-0.496 1.118,-0.28028 0.31,-0.0777 1.456,-0.216 1.47,-0.072 1.47,0.072 1.455992,0.216 1.427991,0.358 1.385991,0.496 1.330994,0.629 1.262991,0.757 1.181994,0.877 1.090994,0.988 0.987994,1.091 0.876997,1.182 m -12.872938,7.332 0.18766,0.03 0.10634,0.017 0.266,0.135 0.21,0.211 0.136,0.265 0.046,0.295 -0.0158,0.101 -0.0302,0.193 -0.136,0.266 -0.21,0.21 -0.266,0.136 -0.294,0.046 -0.295,-0.046 -0.265,-0.136 -0.211,-0.21 -0.016,-0.0315 -0.119,-0.23447 -0.047,-0.294 0.047,-0.295 0.119,-0.2336 0.016,-0.0314 0.211,-0.211 0.265,-0.135 0.1067,-0.017 0.1883,-0.03 m -0.835,3.521 0.835,0.132 0.834,-0.132 0.753,-0.384 0.21,-0.21 v -0.849 -0.173 -2.927 l -0.21,-0.21 -0.635,-0.32382 -0.118,-0.0602 -0.834,-0.132 -0.835,0.132 -0.118,0.0603 -0.634,0.32374 -0.411,0.41032 v 2.89968 0.64869 l 0.411,0.41031 0.752,0.384 m 11.738947,-4.096 H 41.84511 38.435131 v 3.155 h 3.409979 1.594991 z"
       fill="none"
       stroke="#ff0000"
       stroke-width="0.001mm"
       id="path970"
       style="stroke-width:0.25;stroke-miterlimit:4;stroke-dasharray:none" />
    <path
       d="m 35.607548,24.123098 0.0361,0.243 0.0359,0.242 0.024,0.49 -0.024,0.49 -0.072,0.485 -0.119,0.476 -0.166,0.462 -0.209,0.444 -0.253,0.421 -0.292,0.394 -0.17354,0.192 -0.15546,0.172 -0.364,0.329 -0.394,0.292 -0.421,0.253 -0.444,0.209 -0.462,0.166 -0.476,0.119 -0.485,0.072 -0.4,0.0196 -0.09,0.004 -0.49,-0.024 -0.485,-0.072 -0.476,-0.119 -0.462,-0.166 -0.444,-0.209 -0.421,-0.253 -0.394,-0.292 -0.364,-0.329 -0.15546,-0.172 -0.17354,-0.192 -0.292,-0.394 -0.253,-0.421 -0.209,-0.444 -0.166,-0.462 -0.119,-0.476 -0.072,-0.485 -0.024,-0.49 0.024,-0.49 0.0359,-0.242 0.0361,-0.243 0.119,-0.476 0.166,-0.462 0.209,-0.444 0.253,-0.421 0.292,-0.394 0.329,-0.364 0.364,-0.329 0.394,-0.292 0.276,-0.16587 0.145,-0.0871 0.444,-0.20899 0.462,-0.16601 0.476,-0.11899 0.485,-0.072 0.49,-0.024 0.09,0.004 0.4,0.0196 0.485,0.072 0.476,0.11899 0.462,0.16601 0.444,0.20899 0.146,0.0877 0.275,0.16527 0.394,0.292 0.364,0.329 0.329,0.36399 0.292,0.39401 0.253,0.421 0.209,0.444 0.166,0.462 0.119,0.476 m -2.401,-0.602 h -2.413 -2.592 v 0.845 2.30999 h 2.592 2.413 v -2.30997 z"
       fill="none"
       stroke="#ff0000"
       stroke-width="0.001mm"
       id="path1022"
       style="stroke-width:0.25;stroke-miterlimit:4;stroke-dasharray:none" />
    <path
       d="m 35.607548,35.235605 0.0361,0.243 0.0359,0.242 0.024,0.49 -0.024,0.49 -0.072,0.485 -0.119,0.476 -0.166,0.462 -0.209,0.444 -0.253,0.421 -0.292,0.394 -0.17354,0.192 -0.15546,0.172 -0.364,0.329 -0.394,0.292 -0.421,0.253 -0.444,0.209 -0.462,0.166 -0.476,0.119 -0.485,0.072 -0.4,0.0196 -0.09,0.004 -0.49,-0.024 -0.485,-0.072 -0.476,-0.119 -0.462,-0.166 -0.444,-0.209 -0.421,-0.253 -0.394,-0.292 -0.364,-0.329 -0.15546,-0.172 -0.17354,-0.192 -0.292,-0.394 -0.253,-0.421 -0.209,-0.444 -0.166,-0.462 -0.119,-0.476 -0.072,-0.485 -0.024,-0.49 0.024,-0.49 0.0359,-0.242 0.0361,-0.243 0.119,-0.476 0.166,-0.462 0.209,-0.444 0.253,-0.421 0.292,-0.394 0.329,-0.364 0.364,-0.329 0.394,-0.292 0.276,-0.16587 0.145,-0.0871 0.444,-0.20899 0.462,-0.16601 0.476,-0.11899 0.485,-0.072 0.49,-0.024 0.09,0.004 0.4,0.0196 0.485,0.072 0.476,0.11899 0.462,0.16601 0.444,0.20899 0.146,0.0877 0.275,0.16527 0.394,0.292 0.364,0.329 0.329,0.36399 0.292,0.39401 0.253,0.421 0.209,0.444 0.166,0.462 0.119,0.476 m -2.401,-0.602 h -2.413 -2.592 v 0.845 2.30999 h 2.592 2.413 v -2.30997 z"
       fill="none"
       stroke="#ff0000"
       stroke-width="0.001mm"
       id="path1031"
       style="stroke-width:0.25;stroke-miterlimit:4;stroke-dasharray:none" />
    <path
       d="m 35.607548,46.877279 0.0361,0.243 0.0359,0.242 0.024,0.49 -0.024,0.49 -0.072,0.485 -0.119,0.476 -0.166,0.462 -0.209,0.444 -0.253,0.421 -0.292,0.394 -0.17354,0.192 -0.15546,0.172 -0.364,0.329 -0.394,0.292 -0.421,0.253 -0.444,0.209 -0.462,0.166 -0.476,0.119 -0.485,0.072 -0.4,0.0196 -0.09,0.004 -0.49,-0.024 -0.485,-0.072 -0.476,-0.119 -0.462,-0.166 -0.444,-0.209 -0.421,-0.253 -0.394,-0.292 -0.364,-0.329 -0.15546,-0.172 -0.17354,-0.192 -0.292,-0.394 -0.253,-0.421 -0.209,-0.444 -0.166,-0.462 -0.119,-0.476 -0.072,-0.485 -0.024,-0.49 0.024,-0.49 0.0359,-0.242 0.0361,-0.243 0.119,-0.476 0.166,-0.462 0.209,-0.444 0.253,-0.421 0.292,-0.394 0.329,-0.364 0.364,-0.329 0.394,-0.292 0.276,-0.16587 0.145,-0.0871 0.444,-0.20899 0.462,-0.16601 0.476,-0.11899 0.485,-0.072 0.49,-0.024 0.09,0.004 0.4,0.0196 0.485,0.072 0.476,0.11899 0.462,0.16601 0.444,0.20899 0.146,0.0877 0.275,0.16527 0.394,0.292 0.364,0.329 0.329,0.36399 0.292,0.39401 0.253,0.421 0.209,0.444 0.166,0.462 0.119,0.476 m -2.401,-0.602 h -2.413 -2.592 v 0.845 2.30999 h 2.592 2.413 v -2.30997 z"
       fill="none"
       stroke="#ff0000"
       stroke-width="0.001mm"
       id="path1033"
       style="stroke-width:0.25;stroke-miterlimit:4;stroke-dasharray:none" />
    <path
       d="m 47.24922,46.877279 0.0361,0.243 0.0359,0.242 0.024,0.49 -0.024,0.49 -0.072,0.485 -0.119,0.476 -0.165997,0.462 -0.209,0.444 -0.252997,0.421 -0.292,0.394 -0.17354,0.192 -0.155467,0.172 -0.364,0.329 -0.393997,0.292 -0.420997,0.253 -0.444007,0.209 -0.461997,0.166 -0.475997,0.119 -0.485007,0.072 -0.4,0.0196 -0.09,0.004 -0.489997,-0.024 -0.484997,-0.072 -0.475997,-0.119 -0.462004,-0.166 -0.444,-0.209 -0.421,-0.253 -0.394,-0.292 -0.364,-0.329 -0.15546,-0.172 -0.17354,-0.192 -0.292,-0.394 -0.253,-0.421 -0.209,-0.444 -0.166,-0.462 -0.119,-0.476 -0.072,-0.485 -0.024,-0.49 0.024,-0.49 0.0359,-0.242 0.0361,-0.243 0.119,-0.476 0.166,-0.462 0.209,-0.444 0.253,-0.421 0.292,-0.394 0.329,-0.364 0.364,-0.329 0.394,-0.292 0.276,-0.16587 0.145,-0.0871 0.444,-0.20899 0.462004,-0.16601 0.475997,-0.11899 0.484997,-0.072 0.489997,-0.024 0.09,0.004 0.4,0.0196 0.485007,0.072 0.475997,0.11899 0.461997,0.16601 0.444007,0.20899 0.146,0.0877 0.274997,0.16527 0.393997,0.292 0.364,0.329 0.329007,0.36399 0.292,0.39401 0.252997,0.421 0.209,0.444 0.165997,0.462 0.119,0.476 m -2.400995,-0.602 h -2.413008 -2.591995 v 0.845 2.30999 h 2.591995 2.413008 v -2.30997 z"
       fill="none"
       stroke="#ff0000"
       stroke-width="0.001mm"
       id="path1035"
       style="stroke-width:0.25;stroke-miterlimit:4;stroke-dasharray:none" />
    <path
       d="m 18.749486,40.345113 h 5 v 15.749999 h -5 z"
       fill="none"
       stroke="#ff0000"
       stroke-width="0.001mm"
       id="path1006"
       style="stroke-width:0.25;stroke-miterlimit:4;stroke-dasharray:none" />
    <path
       d="m 18.749486,22.353435 h 5 v 15.749999 h -5 z"
       fill="none"
       stroke="#ff0000"
       stroke-width="0.001mm"
       id="path1015"
       style="stroke-width:0.25;stroke-miterlimit:4;stroke-dasharray:none" />
    <path
       d="M 1.138472,84.965601 V 4.9655995 h 4.4969951 1.42501 3.1549999 1.426001 4.497 V 40.467599 84.965601 H 10.215477 7.0604771 5.6354671 1.138472 m 7.2059951,-44.512002 0.29401,0.014 0.294,-0.014 0.062,-0.0091 0.23,-0.03387 0.286,-0.072 0.277,-0.099 0.2659999,-0.125999 0.162,-0.09733 0.091,-0.05467 0.237,-0.175001 0.218,-0.198 0.198,-0.217999 0.083,-0.112406 0.092,-0.124594 0.152,-0.253001 0.126,-0.266 0.099,-0.276999 0.072,-0.286001 0.043,-0.291999 0.009,-0.186001 0.006,-0.108 -0.015,-0.293999 -0.043,-0.292 -0.072,-0.286 -0.099,-0.277001 -0.126,-0.266 -0.152,-0.253 -0.092,-0.124594 -0.083,-0.112405 -0.198,-0.218001 -0.218,-0.198 -0.237,-0.174999 -0.091,-0.05467 -0.162,-0.09733 -0.2659999,-0.126001 -0.277,-0.099 -0.286,-0.072 -0.23,-0.03387 -0.062,-0.0091 -0.29401,-0.015 -0.294,0.015 -0.29199,0.043 -0.28601,0.072 -0.277,0.099 -0.26599,0.126 -0.16301,0.09793 -0.09,0.05407 -0.024,0.01772 -0.21299,0.157278 -0.218,0.198 -0.198,0.218001 -0.175,0.236999 -0.152,0.253 -0.126,0.266 -0.099,0.277001 -0.072,0.286 -0.043,0.292 -0.015,0.293999 0.006,0.108 0.009,0.186001 0.043,0.291999 0.072,0.286001 0.099,0.276999 0.126,0.266 0.152,0.253001 0.175,0.237 0.198,0.217999 0.218,0.198 0.21299,0.157279 0.024,0.01772 0.09,0.05407 0.16301,0.09793 0.26599,0.126 0.277,0.099 0.28601,0.072 0.29199,0.043 M 10.215477,9.2626565 H 7.0604771 v 5.0049995 h 3.1549999 z"
       fill="none"
       stroke="#ff0000"
       stroke-width="0.001mm"
       id="path1139"
       style="stroke-width:0.25;stroke-miterlimit:4;stroke-dasharray:none" />
  </g>
</svg>
