<?xml version="1.0" standalone="no"?>
<!DOCTYPE svg PUBLIC "-//W3C//DTD SVG 1.1//EN"
  "http://www.w3.org/Graphics/SVG/1.1/DTD/svg11.dtd">
<svg width="12mm" height="12mm" viewBox="-47.04999923706055 27.5 12 12" xmlns="http://www.w3.org/2000/svg" version="1.1">
	<title>svgOutput</title>
	<desc>made with tinkercad</desc>
<path d="M -36.145999908447266 32.525001525878906 L -36.10992431640625 32.768001556396484 L -36.07400131225586 33.0099983215332 L -36.04999923706055 33.5 L -36.07400131225586 33.9900016784668 L -36.145999908447266 34.474998474121094 L -36.26499938964844 34.95100021362305 L -36.430999755859375 35.41299819946289 L -36.63999938964844 35.856998443603516 L -36.893001556396484 36.27799987792969 L -37.185001373291016 36.672000885009766 L -37.35853958129883 36.86399841308594 L -37.513999938964844 37.0359992980957 L -37.87799835205078 37.3650016784668 L -38.27199935913086 37.65700149536133 L -38.69300079345703 37.90999984741211 L -39.137001037597656 38.11899948120117 L -39.5989990234375 38.28499984741211 L -40.07500076293945 38.40399932861328 L -40.560001373291016 38.47600173950195 L -40.959999084472656 38.49559020996094 L -41.04999923706055 38.5 L -41.540000915527344 38.47600173950195 L -42.025001525878906 38.40399932861328 L -42.500999450683594 38.28499984741211 L -42.9630012512207 38.11899948120117 L -43.40700149536133 37.90999984741211 L -43.827999114990234 37.65700149536133 L -44.22200012207031 37.3650016784668 L -44.58599853515625 37.0359992980957 L -44.74146270751953 36.86399841308594 L -44.915000915527344 36.672000885009766 L -45.207000732421875 36.27799987792969 L -45.459999084472656 35.856998443603516 L -45.66899871826172 35.41299819946289 L -45.834999084472656 34.95100021362305 L -45.95399856567383 34.474998474121094 L -46.0260009765625 33.9900016784668 L -46.04999923706055 33.5 L -46.0260009765625 33.0099983215332 L -45.990074157714844 32.768001556396484 L -45.95399856567383 32.525001525878906 L -45.834999084472656 32.04899978637695 L -45.66899871826172 31.586999893188477 L -45.459999084472656 31.14299964904785 L -45.207000732421875 30.722000122070312 L -44.915000915527344 30.327999114990234 L -44.58599853515625 29.964000701904297 L -44.22200012207031 29.635000228881836 L -43.827999114990234 29.343000411987305 L -43.551998138427734 29.17713737487793 L -43.40700149536133 29.09000015258789 L -42.9630012512207 28.881000518798828 L -42.500999450683594 28.71500015258789 L -42.025001525878906 28.59600067138672 L -41.540000915527344 28.52400016784668 L -41.04999923706055 28.5 L -40.959999084472656 28.50440788269043 L -40.560001373291016 28.52400016784668 L -40.07500076293945 28.59600067138672 L -39.5989990234375 28.71500015258789 L -39.137001037597656 28.881000518798828 L -38.69300079345703 29.09000015258789 L -38.547000885009766 29.177738189697266 L -38.27199935913086 29.343000411987305 L -37.87799835205078 29.635000228881836 L -37.513999938964844 29.964000701904297 L -37.185001373291016 30.327999114990234 L -36.893001556396484 30.722000122070312 L -36.63999938964844 31.14299964904785 L -36.430999755859375 31.586999893188477 L -36.26499938964844 32.04899978637695 L -36.145999908447266 32.525001525878906 M -38.547000885009766 31.92300033569336 L -40.959999084472656 31.92300033569336 L -43.551998138427734 31.92300033569336 L -43.551998138427734 32.768001556396484 L -43.551998138427734 35.077999114990234 L -40.959999084472656 35.077999114990234 L -38.547000885009766 35.077999114990234 L -38.547000885009766 32.768001556396484 L -38.547000885009766 31.92300033569336 z" fill="none" stroke="rgb(255,0,0)" stroke-width="0.001mm" />
</svg>