<?xml version="1.0" encoding="UTF-8" standalone="no"?>
<!-- Created with Inkscape (http://www.inkscape.org/) -->

<svg
   width="104.07453mm"
   height="102.10838mm"
   viewBox="0 0 104.07453 102.10838"
   version="1.1"
   id="svg5"
   inkscape:version="1.1 (c68e22c387, 2021-05-23)"
   sodipodi:docname="side front panels for cutting.svg"
   xmlns:inkscape="http://www.inkscape.org/namespaces/inkscape"
   xmlns:sodipodi="http://sodipodi.sourceforge.net/DTD/sodipodi-0.dtd"
   xmlns="http://www.w3.org/2000/svg"
   xmlns:svg="http://www.w3.org/2000/svg">
  <sodipodi:namedview
     id="namedview7"
     pagecolor="#ffffff"
     bordercolor="#666666"
     borderopacity="1.0"
     inkscape:pageshadow="2"
     inkscape:pageopacity="0.0"
     inkscape:pagecheckerboard="0"
     inkscape:document-units="mm"
     showgrid="false"
     inkscape:zoom="0.72337262"
     inkscape:cx="394.67903"
     inkscape:cy="441.68108"
     inkscape:window-width="1920"
     inkscape:window-height="1001"
     inkscape:window-x="-9"
     inkscape:window-y="-9"
     inkscape:window-maximized="1"
     inkscape:current-layer="layer1" />
  <defs
     id="defs2" />
  <g
     inkscape:label="Layer 1"
     inkscape:groupmode="layer"
     id="layer1"
     transform="translate(-0.8840493,-2.6739042)">
    <path
       d="m 19.131161,19.199528 0.0449,-0.007 0.002,-3.9e-4 9e-4,-4.6e-4 0.0605,-0.0308 0.0356,-0.0127 0.178,-0.084 0.139187,-0.0832 0.14281,-0.0728 0.442997,-0.443 0.026,-0.051 0.25799,-0.506 0.098,-0.618 -0.098,-0.618 -0.284,-0.558 -0.442987,-0.442 -0.557007,-0.284 -0.0454,-0.007 -0.0826,-0.0131 -0.0441,-0.007 -0.100887,-0.0255 -0.005,-10e-4 -0.195,-0.029 -0.0756,-0.004 -0.0388,-0.006 -0.0316,-0.005 -0.0315,0.005 -0.005,7.1e-4 -0.014,-7.1e-4 -0.195997,0.01 -0.195,0.029 -0.14091,0.0356 -0.0491,0.0124 -0.184997,0.066 -0.178,0.084 -0.10145,0.0606 -0.0676,0.0404 -0.157,0.117 -0.146,0.132 -0.0776,0.0858 -0.0544,0.0602 -0.103997,0.13956 -0.013,0.0174 -0.101,0.169 -0.0536,0.11353 -0.0304,0.0645 -0.066,0.185 -0.034,0.13458 -0.014,0.0554 -0.029,0.195 -0.009,0.196 0.009,0.196 0.029,0.195 0.014,0.0554 0.034,0.13459 0.066,0.185 0.084,0.178 0.101,0.169 0.002,0.003 0.0108,0.0144 0.103997,0.13956 0.132,0.146 0.11573,0.10463 0.0303,0.0274 0.157,0.117 0.168997,0.101 0.178,0.084 0.0636,0.0227 0.12141,0.0433 0.19,0.048 0.18828,0.028 0.007,0.001 0.195997,0.009 0.196,-0.009 0.007,-0.001 0.18827,-0.028 0.005,-0.001 0.184997,-0.0467 0.0407,-0.0145 M 77.008799,52.798901 H 1.0090493 v -4.022 -3.155 -42.8229968 h 2.297002 3.154982 9.0449487 0.352997 0.647997 0.052 4.000979 10.44694 3.154982 37.143922 3.155 2.548 v 42.8229968 3.155 4.022 m -60.167823,-21.803993 0.016,0.01 0.236997,0.14238 0.266,0.126 0.0755,0.027 0.20146,0.072 0.286,0.072 0.292004,0.043 0.293997,0.015 0.294,-0.015 0.291997,-0.043 0.286,-0.072 0.201457,-0.072 0.0755,-0.027 0.266,-0.126 0.142097,-0.0854 0.1109,-0.0666 0.237,-0.175 0.12882,-0.117 0.0892,-0.081 0.14127,-0.15554 0.0567,-0.0625 0.123,-0.16658 0.052,-0.0704 0.152004,-0.253 0.103,-0.21744 0.023,-0.0486 0.099,-0.277 0.072,-0.286 0.043,-0.292 0.014,-0.294 -0.014,-0.294 -0.043,-0.292 -0.072,-0.286 -0.099,-0.277 -0.023,-0.0486 -0.103,-0.21745 -0.152004,-0.253 -0.0318,-0.0431 -0.0202,-0.0273 -0.1134,-0.15357 -0.01,-0.013 -0.198,-0.218 -0.217997,-0.198 -0.237,-0.175 -0.171437,-0.103 -0.0816,-0.049 -0.26601,-0.126 -0.276987,-0.099 -0.286,-0.072 -0.189997,-0.028 -0.102,-0.015 -0.294,-0.014 -0.293997,0.014 -0.292004,0.043 -0.28601,0.072 -0.276987,0.099 -0.266,0.126 -0.0816,0.049 -0.155447,0.0934 -0.016,0.01 -0.237,0.175 -0.045,0.0409 -0.173,0.15712 -0.197987,0.218 -0.01,0.013 -0.1654,0.224 -0.152,0.253 -0.002,0.004 -0.123997,0.26178 -0.099,0.277 -0.072,0.286 -0.043,0.292 -0.015,0.294 0.008,0.156 0.007,0.138 0.043,0.292 0.072,0.286 0.099,0.277 0.123997,0.26178 0.002,0.004 0.152,0.253 0.11924,0.16149 0.0558,0.0755 0.197997,0.218 0.0892,0.081 0.0838,0.0761 0.045,0.0409 0.15127,0.1117 0.0857,0.0633 M 66.010859,45.622191 H 46.005868 v 3.155 h 20.004991 v -3.155 m -37.000892,0 H 9.0050583 v 3.155 H 29.009947 v -3.155 M 74.459839,6.7961881 h -3.155 V 16.801188 h 3.155 V 6.7950301 m 0,16.8009979 h -3.155 v 10.005003 h 3.155 V 23.596028 m -40.298922,-10.8 h -3.154982 v 6.494 12.009 0.202 1.3 h 3.154982 v -20.005 m -27.7008437,0 h -3.154982 v 20.005 h 3.154982 z"
       fill="none"
       stroke="#ff0000"
       stroke-width="0.001mm"
       id="path840"
       style="stroke-width:0.25;stroke-miterlimit:4;stroke-dasharray:none" />
    <path
       d="m 19.131161,71.057894 0.0449,-0.007 0.002,-3.9e-4 9e-4,-4.6e-4 0.0605,-0.0308 0.0356,-0.0127 0.178,-0.084 0.139187,-0.0832 0.14281,-0.0728 0.442997,-0.443 0.026,-0.051 0.25799,-0.506 0.098,-0.618 -0.098,-0.618 -0.284,-0.558 -0.442987,-0.442 -0.557007,-0.284 -0.0454,-0.007 -0.0826,-0.0131 -0.0441,-0.007 -0.100887,-0.0255 -0.005,-0.001 -0.195,-0.029 -0.0756,-0.004 -0.0388,-0.006 -0.0316,-0.005 -0.0315,0.005 -0.005,7.1e-4 -0.014,-7.1e-4 -0.195997,0.01 -0.195,0.029 -0.14091,0.0356 -0.0491,0.0124 -0.184997,0.066 -0.178,0.084 -0.10145,0.0606 -0.0676,0.0404 -0.157,0.117 -0.146,0.132 -0.0776,0.0858 -0.0544,0.0602 -0.103997,0.13956 -0.013,0.0174 -0.101,0.169 -0.0536,0.11353 -0.0304,0.0645 -0.066,0.185 -0.034,0.13458 -0.014,0.0554 -0.029,0.195 -0.009,0.196 0.009,0.196 0.029,0.195 0.014,0.0554 0.034,0.13459 0.066,0.185 0.084,0.178 0.101,0.169 0.002,0.003 0.0108,0.0144 0.103997,0.13956 0.132,0.146 0.11573,0.10463 0.0303,0.0274 0.157,0.117 0.168997,0.101 0.178,0.084 0.0636,0.0227 0.12141,0.0433 0.19,0.048 0.18828,0.028 0.007,0.001 0.195997,0.009 0.196,-0.009 0.007,-0.001 0.18827,-0.028 0.005,-0.001 0.184997,-0.0467 0.0407,-0.0145 M 77.008799,104.65729 H 1.0090493 v -4.02202 -3.155003 -42.823001 h 2.297002 3.154982 9.0449487 0.352997 0.647997 0.052 4.000979 10.44694 3.154982 37.143922 3.155 2.548 v 42.823001 3.155003 4.02202 m -60.167823,-21.804016 0.016,0.01 0.236997,0.14238 0.266,0.126 0.0755,0.027 0.20146,0.072 0.286,0.072 0.292004,0.043 0.293997,0.015 0.294,-0.015 0.291997,-0.043 0.286,-0.072 0.201457,-0.072 0.0755,-0.027 0.266,-0.126 0.142097,-0.0854 0.1109,-0.0666 0.237,-0.175 0.12882,-0.117 0.0892,-0.081 0.14127,-0.15554 0.0567,-0.0625 0.123,-0.16658 0.052,-0.0704 0.152004,-0.253 0.103,-0.21744 0.023,-0.0486 0.099,-0.277 0.072,-0.286 0.043,-0.292 0.014,-0.294 -0.014,-0.294 -0.043,-0.292 -0.072,-0.286 -0.099,-0.277 -0.023,-0.0486 -0.103,-0.21745 -0.152004,-0.253 -0.0318,-0.0431 -0.0202,-0.0273 -0.1134,-0.15357 -0.01,-0.013 -0.198,-0.218 -0.217997,-0.198 -0.237,-0.175 -0.171437,-0.103 -0.0816,-0.049 -0.26601,-0.126 -0.276987,-0.099 -0.286,-0.072 -0.189997,-0.028 -0.102,-0.015 -0.294,-0.014 -0.293997,0.014 -0.292004,0.043 -0.28601,0.072 -0.276987,0.099 -0.266,0.126 -0.0816,0.049 -0.155447,0.0934 -0.016,0.01 -0.237,0.175 -0.045,0.0409 -0.173,0.15712 -0.197987,0.218 -0.01,0.013 -0.1654,0.224 -0.152,0.253 -0.002,0.004 -0.123997,0.26178 -0.099,0.277 -0.072,0.286 -0.043,0.292 -0.015,0.294 0.008,0.156 0.007,0.138 0.043,0.292 0.072,0.286 0.099,0.277 0.123997,0.26178 0.002,0.004 0.152,0.253 0.11924,0.16149 0.0558,0.0755 0.197997,0.218 0.0892,0.081 0.0838,0.0761 0.045,0.0409 0.15127,0.1117 0.0857,0.0633 M 66.010859,97.480557 H 46.005868 v 3.155003 h 20.004991 v -3.155003 m -37.000892,0 H 9.0050583 v 3.155003 H 29.009947 V 97.480557 M 74.459839,58.654552 h -3.155 v 10.005002 h 3.155 v -10.00616 m 0,16.801 h -3.155 v 10.005003 h 3.155 V 75.454394 m -40.298922,-10.8 h -3.154982 v 6.494 12.009 0.202 1.3 h 3.154982 v -20.005 m -27.7008437,0 h -3.154982 v 20.005 h 3.154982 z"
       fill="none"
       stroke="#ff0000"
       stroke-width="0.001mm"
       id="path929"
       style="stroke-width:0.25;stroke-miterlimit:4;stroke-dasharray:none" />
    <path
       d="m 104.83358,38.634428 h -3.15 v 12 H 82.683594 v -12 h -3.1 v -20 h 3.1 V 8.6344209 H 101.68358 V 18.634428 h 3.15 z"
       fill="none"
       stroke="#ff0000"
       stroke-width="0.001mm"
       id="path947"
       style="stroke-width:0.25;stroke-miterlimit:4;stroke-dasharray:none" />
    <path
       d="m 104.83358,84.671957 h -3.15 v 12 H 82.683594 v -12 h -3.1 v -20 h 3.1 V 54.671949 h 18.999986 v 10.000008 h 3.15 z"
       fill="none"
       stroke="#ff0000"
       stroke-width="0.001mm"
       id="path956"
       style="stroke-width:0.25;stroke-miterlimit:4;stroke-dasharray:none" />
  </g>
</svg>
