<?xml version="1.0" standalone="no"?>
<!DOCTYPE svg PUBLIC "-//W3C//DTD SVG 1.1//EN"
  "http://www.w3.org/Graphics/SVG/1.1/DTD/svg11.dtd">
<svg width="78mm" height="52mm" viewBox="-66 -33 78 52" xmlns="http://www.w3.org/2000/svg" version="1.1">
	<title>svgOutput</title>
	<desc>made with tinkercad</desc>
<path d="M -46.87834167480469 -15.598505020141602 L -46.83345413208008 -15.605610847473145 L -46.83100128173828 -15.605999946594238 L -46.830101013183594 -15.60645866394043 L -46.76964569091797 -15.637283325195312 L -46.73400115966797 -15.649999618530273 L -46.555999755859375 -15.734000205993652 L -46.416805267333984 -15.81718635559082 L -46.27399826049805 -15.890000343322754 L -45.83100128173828 -16.33300018310547 L -45.804996490478516 -16.384000778198242 L -45.547000885009766 -16.889999389648438 L -45.44900131225586 -17.507999420166016 L -45.547000885009766 -18.125999450683594 L -45.83100128173828 -18.68400001525879 L -46.27399826049805 -19.125999450683594 L -46.83100128173828 -19.40999984741211 L -46.87636184692383 -19.41718101501465 L -46.9589729309082 -19.430261611938477 L -47.00310516357422 -19.43724822998047 L -47.104000091552734 -19.462736129760742 L -47.10900115966797 -19.464000701904297 L -47.30400085449219 -19.493000030517578 L -47.3796272277832 -19.496858596801758 L -47.418418884277344 -19.503000259399414 L -47.45000076293945 -19.507999420166016 L -47.481529235839844 -19.503000259399414 L -47.486026763916016 -19.502286911010742 L -47.5 -19.503000259399414 L -47.69599914550781 -19.493000030517578 L -47.89099884033203 -19.464000701904297 L -48.03190994262695 -19.428401947021484 L -48.08100128173828 -19.416000366210938 L -48.26599884033203 -19.350000381469727 L -48.444000244140625 -19.266000747680664 L -48.54545211791992 -19.20536994934082 L -48.612998962402344 -19.165000915527344 L -48.77000045776367 -19.04800033569336 L -48.91600036621094 -18.916000366210938 L -48.993614196777344 -18.830156326293945 L -49.04800033569336 -18.770000457763672 L -49.152000427246094 -18.630443572998047 L -49.165000915527344 -18.613000869750977 L -49.26599884033203 -18.444000244140625 L -49.319576263427734 -18.330469131469727 L -49.349998474121094 -18.266000747680664 L -49.41600036621094 -18.08099937438965 L -49.45000076293945 -17.9464168548584 L -49.4640007019043 -17.891000747680664 L -49.49300003051758 -17.695999145507812 L -49.50199890136719 -17.5 L -49.49300003051758 -17.304000854492188 L -49.4640007019043 -17.108999252319336 L -49.45000076293945 -17.0535831451416 L -49.41600036621094 -16.91900062561035 L -49.349998474121094 -16.733999252319336 L -49.26599884033203 -16.555999755859375 L -49.165000915527344 -16.386999130249023 L -49.16276550292969 -16.384000778198242 L -49.152000427246094 -16.369556427001953 L -49.04800033569336 -16.229999542236328 L -48.91600036621094 -16.083999633789062 L -48.80026626586914 -15.979363441467285 L -48.77000045776367 -15.95199966430664 L -48.612998962402344 -15.835000038146973 L -48.444000244140625 -15.734000205993652 L -48.26599884033203 -15.649999618530273 L -48.20241165161133 -15.627314567565918 L -48.08100128173828 -15.583999633789062 L -47.89099884033203 -15.53600025177002 L -47.70272445678711 -15.508000373840332 L -47.69599914550781 -15.506999969482422 L -47.5 -15.498000144958496 L -47.30400085449219 -15.506999969482422 L -47.29727554321289 -15.508000373840332 L -47.10900115966797 -15.53600025177002 L -47.104000091552734 -15.537262916564941 L -46.91899871826172 -15.583999633789062 L -46.87834167480469 -15.598505020141602 M 11 18 L -65 18 L -65 13.977999687194824 L -65 10.822999954223633 L -65 -32 L -62.702999114990234 -32 L -59.54800033569336 -32 L -50.50299835205078 -32 L -50.150001525878906 -32 L -49.50199890136719 -32 L -49.45000076293945 -32 L -45.44900131225586 -32 L -35.00199890136719 -32 L -31.847000122070312 -32 L 5.296999931335449 -32 L 8.45199966430664 -32 L 11 -32 L 11 10.822999954223633 L 11 13.977999687194824 L 11 18 M -49.167999267578125 -3.803999900817871 L -49.152000427246094 -3.7943873405456543 L -48.915000915527344 -3.6519999504089355 L -48.64899826049805 -3.5260000228881836 L -48.573455810546875 -3.499000072479248 L -48.37200164794922 -3.427000045776367 L -48.08599853515625 -3.3550000190734863 L -47.79399871826172 -3.312000036239624 L -47.5 -3.296999931335449 L -47.20600128173828 -3.312000036239624 L -46.91400146484375 -3.3550000190734863 L -46.62799835205078 -3.427000045776367 L -46.426544189453125 -3.499000072479248 L -46.35100173950195 -3.5260000228881836 L -46.084999084472656 -3.6519999504089355 L -45.942893981933594 -3.7373766899108887 L -45.832000732421875 -3.803999900817871 L -45.595001220703125 -3.9790000915527344 L -45.466182708740234 -4.0960001945495605 L -45.37699890136719 -4.177000045776367 L -45.2357292175293 -4.332542419433594 L -45.17900085449219 -4.394999980926514 L -45.055999755859375 -4.561577320098877 L -45.00400161743164 -4.631999969482422 L -44.85200119018555 -4.885000228881836 L -44.749000549316406 -5.102444648742676 L -44.72600173950195 -5.151000022888184 L -44.62699890136719 -5.427999973297119 L -44.55500030517578 -5.714000225067139 L -44.512001037597656 -6.00600004196167 L -44.49800109863281 -6.300000190734863 L -44.512001037597656 -6.593999862670898 L -44.55500030517578 -6.886000156402588 L -44.62699890136719 -7.171999931335449 L -44.72600173950195 -7.448999881744385 L -44.749000549316406 -7.497555732727051 L -44.85200119018555 -7.715000152587891 L -45.00400161743164 -7.9679999351501465 L -45.03580093383789 -8.011069297790527 L -45.055999755859375 -8.038422584533691 L -45.16939926147461 -8.192000389099121 L -45.17900085449219 -8.204999923706055 L -45.37699890136719 -8.42300033569336 L -45.595001220703125 -8.621000289916992 L -45.832000732421875 -8.795999526977539 L -46.003440856933594 -8.89900016784668 L -46.084999084472656 -8.947999954223633 L -46.35100173950195 -9.074000358581543 L -46.62799835205078 -9.17300033569336 L -46.91400146484375 -9.244999885559082 L -47.104000091552734 -9.272979736328125 L -47.20600128173828 -9.288000106811523 L -47.5 -9.302000045776367 L -47.79399871826172 -9.288000106811523 L -48.08599853515625 -9.244999885559082 L -48.37200164794922 -9.17300033569336 L -48.64899826049805 -9.074000358581543 L -48.915000915527344 -8.947999954223633 L -48.996559143066406 -8.89900016784668 L -49.152000427246094 -8.805612564086914 L -49.167999267578125 -8.795999526977539 L -49.404998779296875 -8.621000289916992 L -49.45000076293945 -8.58012866973877 L -49.62300109863281 -8.42300033569336 L -49.82099914550781 -8.204999923706055 L -49.83060073852539 -8.192000389099121 L -49.99599838256836 -7.9679999351501465 L -50.14799880981445 -7.715000152587891 L -50.150001525878906 -7.710777759552002 L -50.27399826049805 -7.448999881744385 L -50.37300109863281 -7.171999931335449 L -50.44499969482422 -6.886000156402588 L -50.487998962402344 -6.593999862670898 L -50.50299835205078 -6.300000190734863 L -50.49504089355469 -6.144000053405762 L -50.487998962402344 -6.00600004196167 L -50.44499969482422 -5.714000225067139 L -50.37300109863281 -5.427999973297119 L -50.27399826049805 -5.151000022888184 L -50.150001525878906 -4.889222145080566 L -50.14799880981445 -4.885000228881836 L -49.99599838256836 -4.631999969482422 L -49.87675476074219 -4.470505237579346 L -49.82099914550781 -4.394999980926514 L -49.62300109863281 -4.177000045776367 L -49.533817291259766 -4.0960001945495605 L -49.45000076293945 -4.019871711730957 L -49.404998779296875 -3.9790000915527344 L -49.253726959228516 -3.8673017024993896 L -49.167999267578125 -3.803999900817871 M 0.003000000026077032 10.822999954223633 L -20.00200080871582 10.822999954223633 L -20.00200080871582 13.977999687194824 L 0.003000000026077032 13.977999687194824 L 0.003000000026077032 10.822999954223633 M -36.99800109863281 10.822999954223633 L -57.00299835205078 10.822999954223633 L -57.00299835205078 13.977999687194824 L -36.99800109863281 13.977999687194824 L -36.99800109863281 10.822999954223633 M 8.45199966430664 -28.003000259399414 L 5.296999931335449 -28.003000259399414 L 5.296999931335449 -17.99799919128418 L 8.45199966430664 -17.99799919128418 L 8.45199966430664 -28.003000259399414 M 8.45199966430664 -11.20199966430664 L 5.296999931335449 -11.20199966430664 L 5.296999931335449 -1.1970000267028809 L 8.45199966430664 -1.1970000267028809 L 8.45199966430664 -11.20199966430664 M -31.847000122070312 -22.00200080871582 L -35.00199890136719 -22.00200080871582 L -35.00199890136719 -15.508000373840332 L -35.00199890136719 -3.499000072479248 L -35.00199890136719 -3.296999931335449 L -35.00199890136719 -1.996999979019165 L -31.847000122070312 -1.996999979019165 L -31.847000122070312 -22.00200080871582 M -59.54800033569336 -22.00200080871582 L -62.702999114990234 -22.00200080871582 L -62.702999114990234 -1.996999979019165 L -59.54800033569336 -1.996999979019165 L -59.54800033569336 -22.00200080871582 z" fill="none" stroke="rgb(255,0,0)" stroke-width="0.001mm" />
</svg>