<?xml version="1.0" standalone="no"?>
<!DOCTYPE svg PUBLIC "-//W3C//DTD SVG 1.1//EN"
  "http://www.w3.org/Graphics/SVG/1.1/DTD/svg11.dtd">
<svg width="32.000003814697266mm" height="32mm" viewBox="-78.30000305175781 7.5 32.000003814697266 32" xmlns="http://www.w3.org/2000/svg" version="1.1">
	<title>svgOutput</title>
	<desc>made with tinkercad</desc>
<path d="M -49.827999114990234 15.166000366210938 L -49.09797286987305 16.384000778198242 L -49.07099914550781 16.429000854492188 L -48.44200134277344 17.760000228881836 L -47.94599914550781 19.145999908447266 L -47.5880012512207 20.573999404907227 L -47.37200164794922 22.030000686645508 L -47.29999923706055 23.5 L -47.37200164794922 24.969999313354492 L -47.5880012512207 26.426000595092773 L -47.94599914550781 27.854000091552734 L -48.44200134277344 29.239999771118164 L -49.07099914550781 30.570999145507812 L -49.827999114990234 31.833999633789062 L -50.520992279052734 32.768001556396484 L -50.70500183105469 33.01599884033203 L -51.69300079345703 34.106998443603516 L -52.784000396728516 35.095001220703125 L -53.965999603271484 35.97200012207031 L -55.229000091552734 36.729000091552734 L -56.560001373291016 37.358001708984375 L -57.94599914550781 37.854000091552734 L -59.374000549316406 38.21200180053711 L -60.83000183105469 38.428001403808594 L -62.29999923706055 38.5 L -63.77000045776367 38.428001403808594 L -65.22599792480469 38.21200180053711 L -65.53600311279297 38.134281158447266 L -66.65399932861328 37.854000091552734 L -68.04000091552734 37.358001708984375 L -69.37100219726562 36.729000091552734 L -70.63400268554688 35.97200012207031 L -71.81600189208984 35.095001220703125 L -72.90699768066406 34.106998443603516 L -73.8949966430664 33.01599884033203 L -74.07901000976562 32.768001556396484 L -74.77200317382812 31.833999633789062 L -75.52899932861328 30.570999145507812 L -76.15799713134766 29.239999771118164 L -76.65399932861328 27.854000091552734 L -77.01200103759766 26.426000595092773 L -77.22799682617188 24.969999313354492 L -77.30000305175781 23.5 L -77.22799682617188 22.030000686645508 L -77.01200103759766 20.573999404907227 L -76.65399932861328 19.145999908447266 L -76.15799713134766 17.760000228881836 L -75.52899932861328 16.429000854492188 L -75.50202941894531 16.384000778198242 L -74.77200317382812 15.166000366210938 L -73.8949966430664 13.984000205993652 L -72.90699768066406 12.892999649047852 L -71.81600189208984 11.904999732971191 L -70.63400268554688 11.027999877929688 L -69.37100219726562 10.270999908447266 L -68.04000091552734 9.642000198364258 L -66.65399932861328 9.145999908447266 L -65.53600311279297 8.865716934204102 L -65.22599792480469 8.788000106811523 L -63.77000045776367 8.571999549865723 L -62.29999923706055 8.5 L -60.83000183105469 8.571999549865723 L -59.374000549316406 8.788000106811523 L -57.94599914550781 9.145999908447266 L -56.560001373291016 9.642000198364258 L -55.229000091552734 10.270999908447266 L -53.965999603271484 11.027999877929688 L -52.784000396728516 11.904999732971191 L -51.69300079345703 12.892999649047852 L -50.70500183105469 13.984000205993652 L -49.827999114990234 15.166000366210938 M -62.70100021362305 22.49799919128418 L -62.51333999633789 22.527999877929688 L -62.40700149536133 22.545000076293945 L -62.14099884033203 22.68000030517578 L -61.930999755859375 22.891000747680664 L -61.79499816894531 23.1560001373291 L -61.749000549316406 23.451000213623047 L -61.764801025390625 23.552000045776367 L -61.79499816894531 23.7450008392334 L -61.930999755859375 24.01099967956543 L -62.14099884033203 24.22100067138672 L -62.40700149536133 24.35700035095215 L -62.70100021362305 24.402999877929688 L -62.99599838256836 24.35700035095215 L -63.26100158691406 24.22100067138672 L -63.47200012207031 24.01099967956543 L -63.487998962402344 23.979475021362305 L -63.606998443603516 23.7450008392334 L -63.65399932861328 23.451000213623047 L -63.606998443603516 23.1560001373291 L -63.487998962402344 22.922407150268555 L -63.47200012207031 22.891000747680664 L -63.26100158691406 22.68000030517578 L -62.99599838256836 22.545000076293945 L -62.88929748535156 22.527999877929688 L -62.70100021362305 22.49799919128418 M -63.5359992980957 26.018999099731445 L -62.70100021362305 26.150999069213867 L -61.867000579833984 26.018999099731445 L -61.11399841308594 25.635000228881836 L -60.90399932861328 25.424999237060547 L -60.90399932861328 24.576000213623047 L -60.90399932861328 24.402999877929688 L -60.90399932861328 21.47599983215332 L -61.11399841308594 21.266000747680664 L -61.749000549316406 20.942174911499023 L -61.867000579833984 20.881999969482422 L -62.70100021362305 20.75 L -63.5359992980957 20.881999969482422 L -63.65399932861328 20.9422550201416 L -64.28800201416016 21.266000747680664 L -64.6989974975586 21.676313400268555 L -64.6989974975586 24.576000213623047 L -64.6989974975586 25.224687576293945 L -64.28800201416016 25.635000228881836 L -63.5359992980957 26.018999099731445 M -51.797000885009766 21.92300033569336 L -53.391998291015625 21.92300033569336 L -56.801998138427734 21.92300033569336 L -56.801998138427734 25.077999114990234 L -53.391998291015625 25.077999114990234 L -51.797000885009766 25.077999114990234 L -51.797000885009766 21.92300033569336 z" fill="none" stroke="rgb(255,0,0)" stroke-width="0.001mm" />
</svg>