<?xml version="1.0" encoding="UTF-8" standalone="no"?>
<!-- Created with Inkscape (http://www.inkscape.org/) -->

<svg
   width="148mm"
   height="210mm"
   viewBox="0 0 148 210"
   version="1.1"
   id="svg1"
   inkscape:version="1.4.4 (dcaf3e7, 2026-05-05)"
   sodipodi:docname="Exzente3.svg"
   xmlns:inkscape="http://www.inkscape.org/namespaces/inkscape"
   xmlns:sodipodi="http://sodipodi.sourceforge.net/DTD/sodipodi-0.dtd"
   xmlns="http://www.w3.org/2000/svg"
   xmlns:svg="http://www.w3.org/2000/svg">
  <sodipodi:namedview
     id="namedview1"
     pagecolor="#ffffff"
     bordercolor="#666666"
     borderopacity="1.0"
     inkscape:showpageshadow="2"
     inkscape:pageopacity="0.0"
     inkscape:pagecheckerboard="0"
     inkscape:deskcolor="#d1d1d1"
     inkscape:document-units="mm"
     inkscape:zoom="14.124309"
     inkscape:cx="41.948955"
     inkscape:cy="718.58384"
     inkscape:window-width="1920"
     inkscape:window-height="1009"
     inkscape:window-x="-8"
     inkscape:window-y="-8"
     inkscape:window-maximized="1"
     inkscape:current-layer="layer1"
     showgrid="false"
     showguides="true">
    <sodipodi:guide
       position="13.8995,24.098868"
       orientation="1,0"
       id="guide1"
       inkscape:locked="false" />
    <sodipodi:guide
       position="19.856429,19.603073"
       orientation="0,-1"
       id="guide2"
       inkscape:locked="false" />
    <sodipodi:guide
       position="20.530798,14.133188"
       orientation="0,-1"
       id="guide3"
       inkscape:locked="false" />
    <sodipodi:guide
       position="17.795856,26.196906"
       orientation="1,0"
       id="guide4"
       inkscape:locked="false" />
    <sodipodi:guide
       position="51.579886,13.299592"
       orientation="1,0"
       id="guide5"
       inkscape:locked="false" />
  </sodipodi:namedview>
  <defs
     id="defs1" />
  <g
     inkscape:label="Ebene 1"
     inkscape:groupmode="layer"
     id="layer1">
    <path
       id="path970-8"
       style="fill:none;stroke:#010000;stroke-width:0.1;stroke-miterlimit:4;stroke-dasharray:none;stroke-opacity:1"
       d="m 15.780432,178.16277 -1.470194,0.0718 -1.455725,0.21601 -0.310059,0.0775 -1.118278,0.2806 -1.385962,0.49558 -1.3306681,0.62942 -1.262972,0.75706 -1.1823568,0.87695 -1.0908895,0.98805 -0.9880533,1.09089 -0.8769491,1.18184 -0.730188,1.21802 -0.026872,0.045 -0.6289022,1.33119 -0.4960938,1.38596 -0.3581176,1.42782 -0.21600753,1.45624 -0.0718302,1.46968 0.0718302,1.47019 0.21600753,1.45625 0.3581176,1.42782 0.4960938,1.38596 0.6289022,1.33118 0.7570597,1.26297 0.692981,0.9338 0.1839681,0.24804 0.9880533,1.09089 1.0908895,0.98806 1.1823568,0.87695 1.262972,0.75706 1.3306684,0.6289 1.385962,0.49609 1.118278,0.28009 0.310059,0.078 1.455725,0.21601 1.470194,0.0718 1.470195,-0.0718 1.455725,-0.21601 1.42782,-0.35812 1.385961,-0.49609 1.331185,-0.6289 1.262972,-0.75706 1.18184,-0.87695 1.091407,-0.98806 0.988053,-1.09089 0.183968,-0.24804 0.692981,-0.9338 0.756543,-1.26297 0.629419,-1.33118 0.495577,-1.38596 0.358118,-1.42834 0.216007,-1.45573 0.07235,-1.47019 -0.07235,-1.46968 -0.216007,-1.45624 -0.358118,-1.42782 -0.495577,-1.38596 -0.629419,-1.33119 -0.02687,-0.045 -0.729671,-1.21802 -0.876949,-1.18184 -0.988053,-1.09089 -1.091407,-0.98805 -1.18184,-0.87695 -1.262972,-0.75706 -1.330668,-0.6289 -1.386478,-0.4961 -1.42782,-0.35811 -1.455725,-0.21601 z m 2.321818,13.28355 -0.03747,3.63738 c -0.759783,1.68974 -3.488301,1.55266 -4.418846,0.0374 l 3e-6,-3.69357 c 0.848639,-1.90101 3.925148,-1.86744 4.456308,0.0188 z"
       sodipodi:nodetypes="cccccccccccccccccccccccccccccccccccccccccccccccccccccccccccccccccccccccccccc" />
  </g>
</svg>
