solid OpenSCAD_Model
  facet normal 0.962452 -0.271453 0
    outer loop
      vertex 4.75528 -1.54508 1.5
      vertex 4.86185 -1.16723 -1.5
      vertex 4.86185 -1.16723 1.5
    endloop
  endfacet
  facet normal 0.962452 -0.271453 0
    outer loop
      vertex 4.86185 -1.16723 -1.5
      vertex 4.75528 -1.54508 1.5
      vertex 4.75528 -1.54508 -1.5
    endloop
  endfacet
  facet normal 0.55557 0.83147 -0
    outer loop
      vertex 2.93893 4.04508 -1.5
      vertex 2.61249 4.2632 1.5
      vertex 2.93893 4.04508 1.5
    endloop
  endfacet
  facet normal 0.55557 0.83147 0
    outer loop
      vertex 2.61249 4.2632 1.5
      vertex 2.93893 4.04508 -1.5
      vertex 2.61249 4.2632 -1.5
    endloop
  endfacet
  facet normal -0.3461 0.938198 0
    outer loop
      vertex -1.54508 4.75528 -1.5
      vertex -1.91342 4.6194 1.5
      vertex -1.54508 4.75528 1.5
    endloop
  endfacet
  facet normal -0.3461 0.938198 0
    outer loop
      vertex -1.91342 4.6194 1.5
      vertex -1.54508 4.75528 -1.5
      vertex -1.91342 4.6194 -1.5
    endloop
  endfacet
  facet normal -0.908136 0.418675 0
    outer loop
      vertex -4.6194 1.91342 -1.5
      vertex -4.45503 2.26995 1.5
      vertex -4.45503 2.26995 -1.5
    endloop
  endfacet
  facet normal -0.908136 0.418675 0
    outer loop
      vertex -4.45503 2.26995 1.5
      vertex -4.6194 1.91342 -1.5
      vertex -4.6194 1.91342 1.5
    endloop
  endfacet
  facet normal -0.908136 -0.418675 0
    outer loop
      vertex -4.45503 -2.26995 -1.5
      vertex -4.6194 -1.91342 1.5
      vertex -4.6194 -1.91342 -1.5
    endloop
  endfacet
  facet normal -0.908136 -0.418675 0
    outer loop
      vertex -4.6194 -1.91342 1.5
      vertex -4.45503 -2.26995 -1.5
      vertex -4.45503 -2.26995 1.5
    endloop
  endfacet
  facet normal 0.980787 0.195083 0
    outer loop
      vertex 4.93844 0.782172 1.5
      vertex 4.86185 1.16723 -1.5
      vertex 4.86185 1.16723 1.5
    endloop
  endfacet
  facet normal 0.980787 0.195083 0
    outer loop
      vertex 4.86185 1.16723 -1.5
      vertex 4.93844 0.782172 1.5
      vertex 4.93844 0.782172 -1.5
    endloop
  endfacet
  facet normal 0.962452 0.271453 0
    outer loop
      vertex 4.86185 1.16723 1.5
      vertex 4.75528 1.54508 -1.5
      vertex 4.75528 1.54508 1.5
    endloop
  endfacet
  facet normal 0.962452 0.271453 0
    outer loop
      vertex 4.75528 1.54508 -1.5
      vertex 4.86185 1.16723 1.5
      vertex 4.86185 1.16723 -1.5
    endloop
  endfacet
  facet normal 0.83147 0.55557 0
    outer loop
      vertex 4.2632 2.61249 1.5
      vertex 4.04508 2.93893 -1.5
      vertex 4.04508 2.93893 1.5
    endloop
  endfacet
  facet normal 0.83147 0.55557 0
    outer loop
      vertex 4.04508 2.93893 -1.5
      vertex 4.2632 2.61249 1.5
      vertex 4.2632 2.61249 -1.5
    endloop
  endfacet
  facet normal 0.488618 0.872498 -0
    outer loop
      vertex 2.61249 4.2632 -1.5
      vertex 2.26995 4.45503 1.5
      vertex 2.61249 4.2632 1.5
    endloop
  endfacet
  facet normal 0.488618 0.872498 0
    outer loop
      vertex 2.26995 4.45503 1.5
      vertex 2.61249 4.2632 -1.5
      vertex 2.26995 4.45503 -1.5
    endloop
  endfacet
  facet normal -0.55557 0.83147 0
    outer loop
      vertex -2.61249 4.2632 -1.5
      vertex -2.93893 4.04508 1.5
      vertex -2.61249 4.2632 1.5
    endloop
  endfacet
  facet normal -0.55557 0.83147 0
    outer loop
      vertex -2.93893 4.04508 1.5
      vertex -2.61249 4.2632 -1.5
      vertex -2.93893 4.04508 -1.5
    endloop
  endfacet
  facet normal 0.734313 -0.678811 0
    outer loop
      vertex 3.53553 -3.53553 1.5
      vertex 3.80203 -3.24724 -1.5
      vertex 3.80203 -3.24724 1.5
    endloop
  endfacet
  facet normal 0.734313 -0.678811 0
    outer loop
      vertex 3.80203 -3.24724 -1.5
      vertex 3.53553 -3.53553 1.5
      vertex 3.53553 -3.53553 -1.5
    endloop
  endfacet
  facet normal 0.195083 -0.980787 0
    outer loop
      vertex 0.782172 -4.93844 -1.5
      vertex 1.16723 -4.86185 1.5
      vertex 0.782172 -4.93844 1.5
    endloop
  endfacet
  facet normal 0.195083 -0.980787 0
    outer loop
      vertex 1.16723 -4.86185 1.5
      vertex 0.782172 -4.93844 -1.5
      vertex 1.16723 -4.86185 -1.5
    endloop
  endfacet
  facet normal 0.619091 -0.785319 0
    outer loop
      vertex 2.93893 -4.04508 -1.5
      vertex 3.24724 -3.80203 1.5
      vertex 2.93893 -4.04508 1.5
    endloop
  endfacet
  facet normal 0.619091 -0.785319 0
    outer loop
      vertex 3.24724 -3.80203 1.5
      vertex 2.93893 -4.04508 -1.5
      vertex 3.24724 -3.80203 -1.5
    endloop
  endfacet
  facet normal -0.0392514 -0.999229 0
    outer loop
      vertex -0.392295 -4.98459 -1.5
      vertex 0 -5 1.5
      vertex -0.392295 -4.98459 1.5
    endloop
  endfacet
  facet normal -0.0392514 -0.999229 -0
    outer loop
      vertex 0 -5 1.5
      vertex -0.392295 -4.98459 -1.5
      vertex 0 -5 -1.5
    endloop
  endfacet
  facet normal -0.488618 -0.872498 0
    outer loop
      vertex -2.61249 -4.2632 -1.5
      vertex -2.26995 -4.45503 1.5
      vertex -2.61249 -4.2632 1.5
    endloop
  endfacet
  facet normal -0.488618 -0.872498 -0
    outer loop
      vertex -2.26995 -4.45503 1.5
      vertex -2.61249 -4.2632 -1.5
      vertex -2.26995 -4.45503 -1.5
    endloop
  endfacet
  facet normal -0.55557 -0.83147 0
    outer loop
      vertex -2.93893 -4.04508 -1.5
      vertex -2.61249 -4.2632 1.5
      vertex -2.93893 -4.04508 1.5
    endloop
  endfacet
  facet normal -0.55557 -0.83147 -0
    outer loop
      vertex -2.61249 -4.2632 1.5
      vertex -2.93893 -4.04508 -1.5
      vertex -2.61249 -4.2632 -1.5
    endloop
  endfacet
  facet normal 0.938198 0.3461 0
    outer loop
      vertex 4.75528 1.54508 1.5
      vertex 4.6194 1.91342 -1.5
      vertex 4.6194 1.91342 1.5
    endloop
  endfacet
  facet normal 0.938198 0.3461 0
    outer loop
      vertex 4.6194 1.91342 -1.5
      vertex 4.75528 1.54508 1.5
      vertex 4.75528 1.54508 -1.5
    endloop
  endfacet
  facet normal 0.908136 0.418675 0
    outer loop
      vertex 4.6194 1.91342 1.5
      vertex 4.45503 2.26995 -1.5
      vertex 4.45503 2.26995 1.5
    endloop
  endfacet
  facet normal 0.908136 0.418675 0
    outer loop
      vertex 4.45503 2.26995 -1.5
      vertex 4.6194 1.91342 1.5
      vertex 4.6194 1.91342 -1.5
    endloop
  endfacet
  facet normal 0.872498 0.488618 0
    outer loop
      vertex 4.45503 2.26995 1.5
      vertex 4.2632 2.61249 -1.5
      vertex 4.2632 2.61249 1.5
    endloop
  endfacet
  facet normal 0.872498 0.488618 0
    outer loop
      vertex 4.2632 2.61249 -1.5
      vertex 4.45503 2.26995 1.5
      vertex 4.45503 2.26995 -1.5
    endloop
  endfacet
  facet normal 0.0392514 0.999229 -0
    outer loop
      vertex 0.392295 4.98459 -1.5
      vertex 0 5 1.5
      vertex 0.392295 4.98459 1.5
    endloop
  endfacet
  facet normal 0.0392514 0.999229 0
    outer loop
      vertex 0 5 1.5
      vertex 0.392295 4.98459 -1.5
      vertex 0 5 -1.5
    endloop
  endfacet
  facet normal 0.195083 0.980787 -0
    outer loop
      vertex 1.16723 4.86185 -1.5
      vertex 0.782172 4.93844 1.5
      vertex 1.16723 4.86185 1.5
    endloop
  endfacet
  facet normal 0.195083 0.980787 0
    outer loop
      vertex 0.782172 4.93844 1.5
      vertex 1.16723 4.86185 -1.5
      vertex 0.782172 4.93844 -1.5
    endloop
  endfacet
  facet normal 0.418675 0.908136 -0
    outer loop
      vertex 2.26995 4.45503 -1.5
      vertex 1.91342 4.6194 1.5
      vertex 2.26995 4.45503 1.5
    endloop
  endfacet
  facet normal 0.418675 0.908136 0
    outer loop
      vertex 1.91342 4.6194 1.5
      vertex 2.26995 4.45503 -1.5
      vertex 1.91342 4.6194 -1.5
    endloop
  endfacet
  facet normal 0.3461 0.938198 -0
    outer loop
      vertex 1.91342 4.6194 -1.5
      vertex 1.54508 4.75528 1.5
      vertex 1.91342 4.6194 1.5
    endloop
  endfacet
  facet normal 0.3461 0.938198 0
    outer loop
      vertex 1.54508 4.75528 1.5
      vertex 1.91342 4.6194 -1.5
      vertex 1.54508 4.75528 -1.5
    endloop
  endfacet
  facet normal -0.999229 0.0392514 0
    outer loop
      vertex -5 0 -1.5
      vertex -4.98459 0.392295 1.5
      vertex -4.98459 0.392295 -1.5
    endloop
  endfacet
  facet normal -0.999229 0.0392514 0
    outer loop
      vertex -4.98459 0.392295 1.5
      vertex -5 0 -1.5
      vertex -5 0 1.5
    endloop
  endfacet
  facet normal -0.980787 0.195083 0
    outer loop
      vertex -4.93844 0.782172 -1.5
      vertex -4.86185 1.16723 1.5
      vertex -4.86185 1.16723 -1.5
    endloop
  endfacet
  facet normal -0.980787 0.195083 0
    outer loop
      vertex -4.86185 1.16723 1.5
      vertex -4.93844 0.782172 -1.5
      vertex -4.93844 0.782172 1.5
    endloop
  endfacet
  facet normal -0.938198 0.3461 0
    outer loop
      vertex -4.75528 1.54508 -1.5
      vertex -4.6194 1.91342 1.5
      vertex -4.6194 1.91342 -1.5
    endloop
  endfacet
  facet normal -0.938198 0.3461 0
    outer loop
      vertex -4.6194 1.91342 1.5
      vertex -4.75528 1.54508 -1.5
      vertex -4.75528 1.54508 1.5
    endloop
  endfacet
  facet normal -0.785319 0.619091 0
    outer loop
      vertex -4.04508 2.93893 -1.5
      vertex -3.80203 3.24724 1.5
      vertex -3.80203 3.24724 -1.5
    endloop
  endfacet
  facet normal -0.785319 0.619091 0
    outer loop
      vertex -3.80203 3.24724 1.5
      vertex -4.04508 2.93893 -1.5
      vertex -4.04508 2.93893 1.5
    endloop
  endfacet
  facet normal -0.83147 0.55557 0
    outer loop
      vertex -4.2632 2.61249 -1.5
      vertex -4.04508 2.93893 1.5
      vertex -4.04508 2.93893 -1.5
    endloop
  endfacet
  facet normal -0.83147 0.55557 0
    outer loop
      vertex -4.04508 2.93893 1.5
      vertex -4.2632 2.61249 -1.5
      vertex -4.2632 2.61249 1.5
    endloop
  endfacet
  facet normal -0.0392514 0.999229 0
    outer loop
      vertex 0 5 -1.5
      vertex -0.392295 4.98459 1.5
      vertex 0 5 1.5
    endloop
  endfacet
  facet normal -0.0392514 0.999229 0
    outer loop
      vertex -0.392295 4.98459 1.5
      vertex 0 5 -1.5
      vertex -0.392295 4.98459 -1.5
    endloop
  endfacet
  facet normal -0.271453 0.962452 0
    outer loop
      vertex -1.16723 4.86185 -1.5
      vertex -1.54508 4.75528 1.5
      vertex -1.16723 4.86185 1.5
    endloop
  endfacet
  facet normal -0.271453 0.962452 0
    outer loop
      vertex -1.54508 4.75528 1.5
      vertex -1.16723 4.86185 -1.5
      vertex -1.54508 4.75528 -1.5
    endloop
  endfacet
  facet normal -0.11755 0.993067 0
    outer loop
      vertex -0.392295 4.98459 -1.5
      vertex -0.782172 4.93844 1.5
      vertex -0.392295 4.98459 1.5
    endloop
  endfacet
  facet normal -0.11755 0.993067 0
    outer loop
      vertex -0.782172 4.93844 1.5
      vertex -0.392295 4.98459 -1.5
      vertex -0.782172 4.93844 -1.5
    endloop
  endfacet
  facet normal -0.418675 0.908136 0
    outer loop
      vertex -1.91342 4.6194 -1.5
      vertex -2.26995 4.45503 1.5
      vertex -1.91342 4.6194 1.5
    endloop
  endfacet
  facet normal -0.418675 0.908136 0
    outer loop
      vertex -2.26995 4.45503 1.5
      vertex -1.91342 4.6194 -1.5
      vertex -2.26995 4.45503 -1.5
    endloop
  endfacet
  facet normal -0.488618 0.872498 0
    outer loop
      vertex -2.26995 4.45503 -1.5
      vertex -2.61249 4.2632 1.5
      vertex -2.26995 4.45503 1.5
    endloop
  endfacet
  facet normal -0.488618 0.872498 0
    outer loop
      vertex -2.61249 4.2632 1.5
      vertex -2.26995 4.45503 -1.5
      vertex -2.61249 4.2632 -1.5
    endloop
  endfacet
  facet normal 0.999229 0.0392514 0
    outer loop
      vertex 5 0 1.5
      vertex 4.98459 0.392295 -1.5
      vertex 4.98459 0.392295 1.5
    endloop
  endfacet
  facet normal 0.999229 0.0392514 0
    outer loop
      vertex 4.98459 0.392295 -1.5
      vertex 5 0 1.5
      vertex 5 0 -1.5
    endloop
  endfacet
  facet normal 0.0392514 -0.999229 0
    outer loop
      vertex 0 -5 -1.5
      vertex 0.392295 -4.98459 1.5
      vertex 0 -5 1.5
    endloop
  endfacet
  facet normal 0.0392514 -0.999229 0
    outer loop
      vertex 0.392295 -4.98459 1.5
      vertex 0 -5 -1.5
      vertex 0.392295 -4.98459 -1.5
    endloop
  endfacet
  facet normal 0.11755 -0.993067 0
    outer loop
      vertex 0.392295 -4.98459 -1.5
      vertex 0.782172 -4.93844 1.5
      vertex 0.392295 -4.98459 1.5
    endloop
  endfacet
  facet normal 0.11755 -0.993067 0
    outer loop
      vertex 0.782172 -4.93844 1.5
      vertex 0.392295 -4.98459 -1.5
      vertex 0.782172 -4.93844 -1.5
    endloop
  endfacet
  facet normal 0.418675 -0.908136 0
    outer loop
      vertex 1.91342 -4.6194 -1.5
      vertex 2.26995 -4.45503 1.5
      vertex 1.91342 -4.6194 1.5
    endloop
  endfacet
  facet normal 0.418675 -0.908136 0
    outer loop
      vertex 2.26995 -4.45503 1.5
      vertex 1.91342 -4.6194 -1.5
      vertex 2.26995 -4.45503 -1.5
    endloop
  endfacet
  facet normal 0.55557 -0.83147 0
    outer loop
      vertex 2.61249 -4.2632 -1.5
      vertex 2.93893 -4.04508 1.5
      vertex 2.61249 -4.2632 1.5
    endloop
  endfacet
  facet normal 0.55557 -0.83147 0
    outer loop
      vertex 2.93893 -4.04508 1.5
      vertex 2.61249 -4.2632 -1.5
      vertex 2.93893 -4.04508 -1.5
    endloop
  endfacet
  facet normal 0.488618 -0.872498 0
    outer loop
      vertex 2.26995 -4.45503 -1.5
      vertex 2.61249 -4.2632 1.5
      vertex 2.26995 -4.45503 1.5
    endloop
  endfacet
  facet normal 0.488618 -0.872498 0
    outer loop
      vertex 2.61249 -4.2632 1.5
      vertex 2.26995 -4.45503 -1.5
      vertex 2.61249 -4.2632 -1.5
    endloop
  endfacet
  facet normal -0.3461 -0.938198 0
    outer loop
      vertex -1.91342 -4.6194 -1.5
      vertex -1.54508 -4.75528 1.5
      vertex -1.91342 -4.6194 1.5
    endloop
  endfacet
  facet normal -0.3461 -0.938198 -0
    outer loop
      vertex -1.54508 -4.75528 1.5
      vertex -1.91342 -4.6194 -1.5
      vertex -1.54508 -4.75528 -1.5
    endloop
  endfacet
  facet normal -0.11755 -0.993067 0
    outer loop
      vertex -0.782172 -4.93844 -1.5
      vertex -0.392295 -4.98459 1.5
      vertex -0.782172 -4.93844 1.5
    endloop
  endfacet
  facet normal -0.11755 -0.993067 -0
    outer loop
      vertex -0.392295 -4.98459 1.5
      vertex -0.782172 -4.93844 -1.5
      vertex -0.392295 -4.98459 -1.5
    endloop
  endfacet
  facet normal -0.418675 -0.908136 0
    outer loop
      vertex -2.26995 -4.45503 -1.5
      vertex -1.91342 -4.6194 1.5
      vertex -2.26995 -4.45503 1.5
    endloop
  endfacet
  facet normal -0.418675 -0.908136 -0
    outer loop
      vertex -1.91342 -4.6194 1.5
      vertex -2.26995 -4.45503 -1.5
      vertex -1.91342 -4.6194 -1.5
    endloop
  endfacet
  facet normal -0.999229 -0.0392514 0
    outer loop
      vertex -4.98459 -0.392295 -1.5
      vertex -5 0 1.5
      vertex -5 0 -1.5
    endloop
  endfacet
  facet normal -0.999229 -0.0392514 0
    outer loop
      vertex -5 0 1.5
      vertex -4.98459 -0.392295 -1.5
      vertex -4.98459 -0.392295 1.5
    endloop
  endfacet
  facet normal 0 0 -1
    outer loop
      vertex 1.7 -2.75 -1.5
      vertex 5 0 -1.5
      vertex 4.98459 -0.392295 -1.5
    endloop
  endfacet
  facet normal 0 0 -1
    outer loop
      vertex 1.7 -2.75 -1.5
      vertex 4.98459 -0.392295 -1.5
      vertex 4.93844 -0.782172 -1.5
    endloop
  endfacet
  facet normal 0 0 -1
    outer loop
      vertex 1.7 2.75 -1.5
      vertex 5 0 -1.5
      vertex 1.7 -2.75 -1.5
    endloop
  endfacet
  facet normal 0 0 -1
    outer loop
      vertex 1.7 -2.75 -1.5
      vertex 4.93844 -0.782172 -1.5
      vertex 4.86185 -1.16723 -1.5
    endloop
  endfacet
  facet normal 0 0 -1
    outer loop
      vertex 5 0 -1.5
      vertex 1.7 2.75 -1.5
      vertex 4.98459 0.392295 -1.5
    endloop
  endfacet
  facet normal 0 0 -1
    outer loop
      vertex 1.7 -2.75 -1.5
      vertex 4.86185 -1.16723 -1.5
      vertex 4.75528 -1.54508 -1.5
    endloop
  endfacet
  facet normal 0 0 -1
    outer loop
      vertex 4.98459 0.392295 -1.5
      vertex 1.7 2.75 -1.5
      vertex 4.93844 0.782172 -1.5
    endloop
  endfacet
  facet normal 0 0 -1
    outer loop
      vertex 1.7 -2.75 -1.5
      vertex 4.75528 -1.54508 -1.5
      vertex 4.6194 -1.91342 -1.5
    endloop
  endfacet
  facet normal 0 0 -1
    outer loop
      vertex 4.93844 0.782172 -1.5
      vertex 1.7 2.75 -1.5
      vertex 4.86185 1.16723 -1.5
    endloop
  endfacet
  facet normal 0 0 -1
    outer loop
      vertex 1.7 -2.75 -1.5
      vertex 4.6194 -1.91342 -1.5
      vertex 4.45503 -2.26995 -1.5
    endloop
  endfacet
  facet normal 0 0 -1
    outer loop
      vertex 4.86185 1.16723 -1.5
      vertex 1.7 2.75 -1.5
      vertex 4.75528 1.54508 -1.5
    endloop
  endfacet
  facet normal 0 0 -1
    outer loop
      vertex 1.7 -2.75 -1.5
      vertex 4.45503 -2.26995 -1.5
      vertex 4.2632 -2.61249 -1.5
    endloop
  endfacet
  facet normal 0 0 -1
    outer loop
      vertex 4.75528 1.54508 -1.5
      vertex 1.7 2.75 -1.5
      vertex 4.6194 1.91342 -1.5
    endloop
  endfacet
  facet normal 0 0 -1
    outer loop
      vertex 1.7 -2.75 -1.5
      vertex 4.2632 -2.61249 -1.5
      vertex 4.04508 -2.93893 -1.5
    endloop
  endfacet
  facet normal 0 0 -1
    outer loop
      vertex 4.6194 1.91342 -1.5
      vertex 1.7 2.75 -1.5
      vertex 4.45503 2.26995 -1.5
    endloop
  endfacet
  facet normal 0 0 -1
    outer loop
      vertex 1.7 -2.75 -1.5
      vertex 4.04508 -2.93893 -1.5
      vertex 3.80203 -3.24724 -1.5
    endloop
  endfacet
  facet normal 0 0 -1
    outer loop
      vertex 4.45503 2.26995 -1.5
      vertex 1.7 2.75 -1.5
      vertex 4.2632 2.61249 -1.5
    endloop
  endfacet
  facet normal 0 0 -1
    outer loop
      vertex 1.7 -2.75 -1.5
      vertex 3.80203 -3.24724 -1.5
      vertex 3.53553 -3.53553 -1.5
    endloop
  endfacet
  facet normal 0 0 -1
    outer loop
      vertex 4.2632 2.61249 -1.5
      vertex 1.7 2.75 -1.5
      vertex 4.04508 2.93893 -1.5
    endloop
  endfacet
  facet normal 0 0 -1
    outer loop
      vertex 1.7 -2.75 -1.5
      vertex 3.53553 -3.53553 -1.5
      vertex 3.24724 -3.80203 -1.5
    endloop
  endfacet
  facet normal -0 0 -1
    outer loop
      vertex 4.04508 2.93893 -1.5
      vertex 1.7 2.75 -1.5
      vertex 3.80203 3.24724 -1.5
    endloop
  endfacet
  facet normal 0 0 -1
    outer loop
      vertex 1.7 -2.75 -1.5
      vertex 3.24724 -3.80203 -1.5
      vertex 2.93893 -4.04508 -1.5
    endloop
  endfacet
  facet normal -0 0 -1
    outer loop
      vertex 3.80203 3.24724 -1.5
      vertex 1.7 2.75 -1.5
      vertex 3.53553 3.53553 -1.5
    endloop
  endfacet
  facet normal 0 0 -1
    outer loop
      vertex 1.7 -2.75 -1.5
      vertex 2.93893 -4.04508 -1.5
      vertex 2.61249 -4.2632 -1.5
    endloop
  endfacet
  facet normal -0 0 -1
    outer loop
      vertex 3.53553 3.53553 -1.5
      vertex 1.7 2.75 -1.5
      vertex 3.24724 3.80203 -1.5
    endloop
  endfacet
  facet normal 0 0 -1
    outer loop
      vertex 1.7 -2.75 -1.5
      vertex 2.61249 -4.2632 -1.5
      vertex 2.26995 -4.45503 -1.5
    endloop
  endfacet
  facet normal -0 0 -1
    outer loop
      vertex 3.24724 3.80203 -1.5
      vertex 1.7 2.75 -1.5
      vertex 2.93893 4.04508 -1.5
    endloop
  endfacet
  facet normal 0 0 -1
    outer loop
      vertex 1.7 -2.75 -1.5
      vertex 2.26995 -4.45503 -1.5
      vertex 1.91342 -4.6194 -1.5
    endloop
  endfacet
  facet normal -0 0 -1
    outer loop
      vertex 2.93893 4.04508 -1.5
      vertex 1.7 2.75 -1.5
      vertex 2.61249 4.2632 -1.5
    endloop
  endfacet
  facet normal -0 0 -1
    outer loop
      vertex 2.61249 4.2632 -1.5
      vertex 1.7 2.75 -1.5
      vertex 2.26995 4.45503 -1.5
    endloop
  endfacet
  facet normal 0 0 -1
    outer loop
      vertex 1.54508 -4.75528 -1.5
      vertex 1.7 -2.75 -1.5
      vertex 1.91342 -4.6194 -1.5
    endloop
  endfacet
  facet normal 0 0 -1
    outer loop
      vertex 1.16723 -4.86185 -1.5
      vertex 1.7 -2.75 -1.5
      vertex 1.54508 -4.75528 -1.5
    endloop
  endfacet
  facet normal 0 0 -1
    outer loop
      vertex 0.782172 -4.93844 -1.5
      vertex 1.7 -2.75 -1.5
      vertex 1.16723 -4.86185 -1.5
    endloop
  endfacet
  facet normal 0 0 -1
    outer loop
      vertex 0.392295 -4.98459 -1.5
      vertex 1.7 -2.75 -1.5
      vertex 0.782172 -4.93844 -1.5
    endloop
  endfacet
  facet normal 0 0 -1
    outer loop
      vertex 0 -5 -1.5
      vertex 1.7 -2.75 -1.5
      vertex 0.392295 -4.98459 -1.5
    endloop
  endfacet
  facet normal 0 0 -1
    outer loop
      vertex -1.7 -2.75 -1.5
      vertex 0 -5 -1.5
      vertex -0.392295 -4.98459 -1.5
    endloop
  endfacet
  facet normal 0 0 -1
    outer loop
      vertex -1.7 -2.75 -1.5
      vertex -0.392295 -4.98459 -1.5
      vertex -0.782172 -4.93844 -1.5
    endloop
  endfacet
  facet normal 0 0 -1
    outer loop
      vertex -1.7 -2.75 -1.5
      vertex -0.782172 -4.93844 -1.5
      vertex -1.16723 -4.86185 -1.5
    endloop
  endfacet
  facet normal 0 0 -1
    outer loop
      vertex -1.7 -2.75 -1.5
      vertex -1.16723 -4.86185 -1.5
      vertex -1.54508 -4.75528 -1.5
    endloop
  endfacet
  facet normal 0 0 -1
    outer loop
      vertex 0 -5 -1.5
      vertex -1.7 -2.75 -1.5
      vertex 1.7 -2.75 -1.5
    endloop
  endfacet
  facet normal 0 0 -1
    outer loop
      vertex -2.26995 -4.45503 -1.5
      vertex -1.7 -2.75 -1.5
      vertex -1.91342 -4.6194 -1.5
    endloop
  endfacet
  facet normal 0 0 -1
    outer loop
      vertex -1.91342 -4.6194 -1.5
      vertex -1.7 -2.75 -1.5
      vertex -1.54508 -4.75528 -1.5
    endloop
  endfacet
  facet normal -0 0 -1
    outer loop
      vertex 2.26995 4.45503 -1.5
      vertex 1.7 2.75 -1.5
      vertex 1.91342 4.6194 -1.5
    endloop
  endfacet
  facet normal 0 0 -1
    outer loop
      vertex 1.7 2.75 -1.5
      vertex 1.54508 4.75528 -1.5
      vertex 1.91342 4.6194 -1.5
    endloop
  endfacet
  facet normal 0 0 -1
    outer loop
      vertex 1.7 2.75 -1.5
      vertex 1.16723 4.86185 -1.5
      vertex 1.54508 4.75528 -1.5
    endloop
  endfacet
  facet normal 0 0 -1
    outer loop
      vertex 1.7 2.75 -1.5
      vertex 0.782172 4.93844 -1.5
      vertex 1.16723 4.86185 -1.5
    endloop
  endfacet
  facet normal 0 0 -1
    outer loop
      vertex 1.7 2.75 -1.5
      vertex 0.392295 4.98459 -1.5
      vertex 0.782172 4.93844 -1.5
    endloop
  endfacet
  facet normal 0 0 -1
    outer loop
      vertex 1.7 2.75 -1.5
      vertex 0 5 -1.5
      vertex 0.392295 4.98459 -1.5
    endloop
  endfacet
  facet normal 0 0 -1
    outer loop
      vertex -1.7 2.75 -1.5
      vertex 0 5 -1.5
      vertex 1.7 2.75 -1.5
    endloop
  endfacet
  facet normal 0 0 -1
    outer loop
      vertex 0 5 -1.5
      vertex -1.7 2.75 -1.5
      vertex -0.392295 4.98459 -1.5
    endloop
  endfacet
  facet normal 0 0 -1
    outer loop
      vertex -0.392295 4.98459 -1.5
      vertex -1.7 2.75 -1.5
      vertex -0.782172 4.93844 -1.5
    endloop
  endfacet
  facet normal 0 0 -1
    outer loop
      vertex -0.782172 4.93844 -1.5
      vertex -1.7 2.75 -1.5
      vertex -1.16723 4.86185 -1.5
    endloop
  endfacet
  facet normal 0 0 -1
    outer loop
      vertex -1.16723 4.86185 -1.5
      vertex -1.7 2.75 -1.5
      vertex -1.54508 4.75528 -1.5
    endloop
  endfacet
  facet normal 0 0 -1
    outer loop
      vertex -1.7 2.75 -1.5
      vertex -1.91342 4.6194 -1.5
      vertex -1.54508 4.75528 -1.5
    endloop
  endfacet
  facet normal 0 0 -1
    outer loop
      vertex -2.61249 -4.2632 -1.5
      vertex -1.7 -2.75 -1.5
      vertex -2.26995 -4.45503 -1.5
    endloop
  endfacet
  facet normal 0 0 -1
    outer loop
      vertex -2.93893 -4.04508 -1.5
      vertex -1.7 -2.75 -1.5
      vertex -2.61249 -4.2632 -1.5
    endloop
  endfacet
  facet normal 0 0 -1
    outer loop
      vertex -1.7 2.75 -1.5
      vertex -2.26995 4.45503 -1.5
      vertex -1.91342 4.6194 -1.5
    endloop
  endfacet
  facet normal 0 0 -1
    outer loop
      vertex -3.24724 -3.80203 -1.5
      vertex -1.7 -2.75 -1.5
      vertex -2.93893 -4.04508 -1.5
    endloop
  endfacet
  facet normal 0 0 -1
    outer loop
      vertex -1.7 2.75 -1.5
      vertex -2.61249 4.2632 -1.5
      vertex -2.26995 4.45503 -1.5
    endloop
  endfacet
  facet normal 0 0 -1
    outer loop
      vertex -3.53553 -3.53553 -1.5
      vertex -1.7 -2.75 -1.5
      vertex -3.24724 -3.80203 -1.5
    endloop
  endfacet
  facet normal 0 0 -1
    outer loop
      vertex -1.7 2.75 -1.5
      vertex -2.93893 4.04508 -1.5
      vertex -2.61249 4.2632 -1.5
    endloop
  endfacet
  facet normal 0 0 -1
    outer loop
      vertex -3.80203 -3.24724 -1.5
      vertex -1.7 -2.75 -1.5
      vertex -3.53553 -3.53553 -1.5
    endloop
  endfacet
  facet normal 0 0 -1
    outer loop
      vertex -1.7 2.75 -1.5
      vertex -3.24724 3.80203 -1.5
      vertex -2.93893 4.04508 -1.5
    endloop
  endfacet
  facet normal 0 0 -1
    outer loop
      vertex -4.04508 -2.93893 -1.5
      vertex -1.7 -2.75 -1.5
      vertex -3.80203 -3.24724 -1.5
    endloop
  endfacet
  facet normal 0 0 -1
    outer loop
      vertex -1.7 2.75 -1.5
      vertex -3.53553 3.53553 -1.5
      vertex -3.24724 3.80203 -1.5
    endloop
  endfacet
  facet normal 0 0 -1
    outer loop
      vertex -4.2632 -2.61249 -1.5
      vertex -1.7 -2.75 -1.5
      vertex -4.04508 -2.93893 -1.5
    endloop
  endfacet
  facet normal 0 0 -1
    outer loop
      vertex -1.7 2.75 -1.5
      vertex -3.80203 3.24724 -1.5
      vertex -3.53553 3.53553 -1.5
    endloop
  endfacet
  facet normal 0 0 -1
    outer loop
      vertex -4.45503 -2.26995 -1.5
      vertex -1.7 -2.75 -1.5
      vertex -4.2632 -2.61249 -1.5
    endloop
  endfacet
  facet normal 0 0 -1
    outer loop
      vertex -1.7 2.75 -1.5
      vertex -4.04508 2.93893 -1.5
      vertex -3.80203 3.24724 -1.5
    endloop
  endfacet
  facet normal 0 0 -1
    outer loop
      vertex -4.6194 -1.91342 -1.5
      vertex -1.7 -2.75 -1.5
      vertex -4.45503 -2.26995 -1.5
    endloop
  endfacet
  facet normal -0 0 -1
    outer loop
      vertex -1.7 2.75 -1.5
      vertex -4.2632 2.61249 -1.5
      vertex -4.04508 2.93893 -1.5
    endloop
  endfacet
  facet normal 0 0 -1
    outer loop
      vertex -4.75528 -1.54508 -1.5
      vertex -1.7 -2.75 -1.5
      vertex -4.6194 -1.91342 -1.5
    endloop
  endfacet
  facet normal 0 0 -1
    outer loop
      vertex -1.7 2.75 -1.5
      vertex -4.45503 2.26995 -1.5
      vertex -4.2632 2.61249 -1.5
    endloop
  endfacet
  facet normal 0 0 -1
    outer loop
      vertex -4.86185 -1.16723 -1.5
      vertex -1.7 -2.75 -1.5
      vertex -4.75528 -1.54508 -1.5
    endloop
  endfacet
  facet normal 0 0 -1
    outer loop
      vertex -1.7 2.75 -1.5
      vertex -4.6194 1.91342 -1.5
      vertex -4.45503 2.26995 -1.5
    endloop
  endfacet
  facet normal 0 0 -1
    outer loop
      vertex -4.93844 -0.782172 -1.5
      vertex -1.7 -2.75 -1.5
      vertex -4.86185 -1.16723 -1.5
    endloop
  endfacet
  facet normal 0 0 -1
    outer loop
      vertex -1.7 2.75 -1.5
      vertex -4.75528 1.54508 -1.5
      vertex -4.6194 1.91342 -1.5
    endloop
  endfacet
  facet normal 0 0 -1
    outer loop
      vertex -4.98459 -0.392295 -1.5
      vertex -1.7 -2.75 -1.5
      vertex -4.93844 -0.782172 -1.5
    endloop
  endfacet
  facet normal 0 0 -1
    outer loop
      vertex -1.7 2.75 -1.5
      vertex -4.86185 1.16723 -1.5
      vertex -4.75528 1.54508 -1.5
    endloop
  endfacet
  facet normal 0 0 -1
    outer loop
      vertex -5 0 -1.5
      vertex -1.7 -2.75 -1.5
      vertex -4.98459 -0.392295 -1.5
    endloop
  endfacet
  facet normal 0 0 -1
    outer loop
      vertex -1.7 2.75 -1.5
      vertex -4.93844 0.782172 -1.5
      vertex -4.86185 1.16723 -1.5
    endloop
  endfacet
  facet normal 0 0 -1
    outer loop
      vertex -1.7 -2.75 -1.5
      vertex -5 0 -1.5
      vertex -1.7 2.75 -1.5
    endloop
  endfacet
  facet normal 0 0 -1
    outer loop
      vertex -1.7 2.75 -1.5
      vertex -4.98459 0.392295 -1.5
      vertex -4.93844 0.782172 -1.5
    endloop
  endfacet
  facet normal 0 0 -1
    outer loop
      vertex -1.7 2.75 -1.5
      vertex -5 0 -1.5
      vertex -4.98459 0.392295 -1.5
    endloop
  endfacet
  facet normal -0.83147 -0.55557 0
    outer loop
      vertex -4.04508 -2.93893 -1.5
      vertex -4.2632 -2.61249 1.5
      vertex -4.2632 -2.61249 -1.5
    endloop
  endfacet
  facet normal -0.83147 -0.55557 0
    outer loop
      vertex -4.2632 -2.61249 1.5
      vertex -4.04508 -2.93893 -1.5
      vertex -4.04508 -2.93893 1.5
    endloop
  endfacet
  facet normal 0.993067 0.11755 0
    outer loop
      vertex 4.98459 0.392295 1.5
      vertex 4.93844 0.782172 -1.5
      vertex 4.93844 0.782172 1.5
    endloop
  endfacet
  facet normal 0.993067 0.11755 0
    outer loop
      vertex 4.93844 0.782172 -1.5
      vertex 4.98459 0.392295 1.5
      vertex 4.98459 0.392295 -1.5
    endloop
  endfacet
  facet normal 0.734313 0.678811 0
    outer loop
      vertex 3.80203 3.24724 1.5
      vertex 3.53553 3.53553 -1.5
      vertex 3.53553 3.53553 1.5
    endloop
  endfacet
  facet normal 0.734313 0.678811 0
    outer loop
      vertex 3.53553 3.53553 -1.5
      vertex 3.80203 3.24724 1.5
      vertex 3.80203 3.24724 -1.5
    endloop
  endfacet
  facet normal 0.785319 0.619091 0
    outer loop
      vertex 4.04508 2.93893 1.5
      vertex 3.80203 3.24724 -1.5
      vertex 3.80203 3.24724 1.5
    endloop
  endfacet
  facet normal 0.785319 0.619091 0
    outer loop
      vertex 3.80203 3.24724 -1.5
      vertex 4.04508 2.93893 1.5
      vertex 4.04508 2.93893 -1.5
    endloop
  endfacet
  facet normal 0.678811 0.734313 -0
    outer loop
      vertex 3.53553 3.53553 -1.5
      vertex 3.24724 3.80203 1.5
      vertex 3.53553 3.53553 1.5
    endloop
  endfacet
  facet normal 0.678811 0.734313 0
    outer loop
      vertex 3.24724 3.80203 1.5
      vertex 3.53553 3.53553 -1.5
      vertex 3.24724 3.80203 -1.5
    endloop
  endfacet
  facet normal 0.619091 0.785319 -0
    outer loop
      vertex 3.24724 3.80203 -1.5
      vertex 2.93893 4.04508 1.5
      vertex 3.24724 3.80203 1.5
    endloop
  endfacet
  facet normal 0.619091 0.785319 0
    outer loop
      vertex 2.93893 4.04508 1.5
      vertex 3.24724 3.80203 -1.5
      vertex 2.93893 4.04508 -1.5
    endloop
  endfacet
  facet normal 0.11755 0.993067 -0
    outer loop
      vertex 0.782172 4.93844 -1.5
      vertex 0.392295 4.98459 1.5
      vertex 0.782172 4.93844 1.5
    endloop
  endfacet
  facet normal 0.11755 0.993067 0
    outer loop
      vertex 0.392295 4.98459 1.5
      vertex 0.782172 4.93844 -1.5
      vertex 0.392295 4.98459 -1.5
    endloop
  endfacet
  facet normal 0.271453 0.962452 -0
    outer loop
      vertex 1.54508 4.75528 -1.5
      vertex 1.16723 4.86185 1.5
      vertex 1.54508 4.75528 1.5
    endloop
  endfacet
  facet normal 0.271453 0.962452 0
    outer loop
      vertex 1.16723 4.86185 1.5
      vertex 1.54508 4.75528 -1.5
      vertex 1.16723 4.86185 -1.5
    endloop
  endfacet
  facet normal 0 0 1
    outer loop
      vertex 1.7 2.75 1.5
      vertex 5 0 1.5
      vertex 4.98459 0.392295 1.5
    endloop
  endfacet
  facet normal 0 0 1
    outer loop
      vertex 1.7 2.75 1.5
      vertex 4.98459 0.392295 1.5
      vertex 4.93844 0.782172 1.5
    endloop
  endfacet
  facet normal 0 0 1
    outer loop
      vertex 1.7 -2.75 1.5
      vertex 5 0 1.5
      vertex 1.7 2.75 1.5
    endloop
  endfacet
  facet normal 0 0 1
    outer loop
      vertex 1.7 2.75 1.5
      vertex 4.93844 0.782172 1.5
      vertex 4.86185 1.16723 1.5
    endloop
  endfacet
  facet normal 0 0 1
    outer loop
      vertex 5 0 1.5
      vertex 1.7 -2.75 1.5
      vertex 4.98459 -0.392295 1.5
    endloop
  endfacet
  facet normal 0 0 1
    outer loop
      vertex 1.7 2.75 1.5
      vertex 4.86185 1.16723 1.5
      vertex 4.75528 1.54508 1.5
    endloop
  endfacet
  facet normal 0 0 1
    outer loop
      vertex 4.98459 -0.392295 1.5
      vertex 1.7 -2.75 1.5
      vertex 4.93844 -0.782172 1.5
    endloop
  endfacet
  facet normal 0 0 1
    outer loop
      vertex 1.7 2.75 1.5
      vertex 4.75528 1.54508 1.5
      vertex 4.6194 1.91342 1.5
    endloop
  endfacet
  facet normal 0 0 1
    outer loop
      vertex 4.93844 -0.782172 1.5
      vertex 1.7 -2.75 1.5
      vertex 4.86185 -1.16723 1.5
    endloop
  endfacet
  facet normal 0 0 1
    outer loop
      vertex 1.7 2.75 1.5
      vertex 4.6194 1.91342 1.5
      vertex 4.45503 2.26995 1.5
    endloop
  endfacet
  facet normal 0 0 1
    outer loop
      vertex 4.86185 -1.16723 1.5
      vertex 1.7 -2.75 1.5
      vertex 4.75528 -1.54508 1.5
    endloop
  endfacet
  facet normal 0 0 1
    outer loop
      vertex 1.7 2.75 1.5
      vertex 4.45503 2.26995 1.5
      vertex 4.2632 2.61249 1.5
    endloop
  endfacet
  facet normal 0 0 1
    outer loop
      vertex 4.75528 -1.54508 1.5
      vertex 1.7 -2.75 1.5
      vertex 4.6194 -1.91342 1.5
    endloop
  endfacet
  facet normal -0 0 1
    outer loop
      vertex 1.7 2.75 1.5
      vertex 4.2632 2.61249 1.5
      vertex 4.04508 2.93893 1.5
    endloop
  endfacet
  facet normal 0 0 1
    outer loop
      vertex 4.6194 -1.91342 1.5
      vertex 1.7 -2.75 1.5
      vertex 4.45503 -2.26995 1.5
    endloop
  endfacet
  facet normal 0 0 1
    outer loop
      vertex 1.7 2.75 1.5
      vertex 4.04508 2.93893 1.5
      vertex 3.80203 3.24724 1.5
    endloop
  endfacet
  facet normal 0 0 1
    outer loop
      vertex 4.45503 -2.26995 1.5
      vertex 1.7 -2.75 1.5
      vertex 4.2632 -2.61249 1.5
    endloop
  endfacet
  facet normal 0 0 1
    outer loop
      vertex 1.7 2.75 1.5
      vertex 3.80203 3.24724 1.5
      vertex 3.53553 3.53553 1.5
    endloop
  endfacet
  facet normal 0 0 1
    outer loop
      vertex 4.2632 -2.61249 1.5
      vertex 1.7 -2.75 1.5
      vertex 4.04508 -2.93893 1.5
    endloop
  endfacet
  facet normal 0 0 1
    outer loop
      vertex 1.7 2.75 1.5
      vertex 3.53553 3.53553 1.5
      vertex 3.24724 3.80203 1.5
    endloop
  endfacet
  facet normal 0 0 1
    outer loop
      vertex 4.04508 -2.93893 1.5
      vertex 1.7 -2.75 1.5
      vertex 3.80203 -3.24724 1.5
    endloop
  endfacet
  facet normal 0 0 1
    outer loop
      vertex 1.7 2.75 1.5
      vertex 3.24724 3.80203 1.5
      vertex 2.93893 4.04508 1.5
    endloop
  endfacet
  facet normal 0 0 1
    outer loop
      vertex 3.80203 -3.24724 1.5
      vertex 1.7 -2.75 1.5
      vertex 3.53553 -3.53553 1.5
    endloop
  endfacet
  facet normal 0 0 1
    outer loop
      vertex 1.7 2.75 1.5
      vertex 2.93893 4.04508 1.5
      vertex 2.61249 4.2632 1.5
    endloop
  endfacet
  facet normal 0 0 1
    outer loop
      vertex 3.53553 -3.53553 1.5
      vertex 1.7 -2.75 1.5
      vertex 3.24724 -3.80203 1.5
    endloop
  endfacet
  facet normal 0 0 1
    outer loop
      vertex 1.7 2.75 1.5
      vertex 2.61249 4.2632 1.5
      vertex 2.26995 4.45503 1.5
    endloop
  endfacet
  facet normal 0 0 1
    outer loop
      vertex 3.24724 -3.80203 1.5
      vertex 1.7 -2.75 1.5
      vertex 2.93893 -4.04508 1.5
    endloop
  endfacet
  facet normal 0 0 1
    outer loop
      vertex 1.7 2.75 1.5
      vertex 2.26995 4.45503 1.5
      vertex 1.91342 4.6194 1.5
    endloop
  endfacet
  facet normal 0 0 1
    outer loop
      vertex 2.93893 -4.04508 1.5
      vertex 1.7 -2.75 1.5
      vertex 2.61249 -4.2632 1.5
    endloop
  endfacet
  facet normal 0 0 1
    outer loop
      vertex 2.61249 -4.2632 1.5
      vertex 1.7 -2.75 1.5
      vertex 2.26995 -4.45503 1.5
    endloop
  endfacet
  facet normal 0 0 1
    outer loop
      vertex 1.54508 4.75528 1.5
      vertex 1.7 2.75 1.5
      vertex 1.91342 4.6194 1.5
    endloop
  endfacet
  facet normal 0 0 1
    outer loop
      vertex 1.16723 4.86185 1.5
      vertex 1.7 2.75 1.5
      vertex 1.54508 4.75528 1.5
    endloop
  endfacet
  facet normal 0 0 1
    outer loop
      vertex 0.782172 4.93844 1.5
      vertex 1.7 2.75 1.5
      vertex 1.16723 4.86185 1.5
    endloop
  endfacet
  facet normal 0 0 1
    outer loop
      vertex 0.392295 4.98459 1.5
      vertex 1.7 2.75 1.5
      vertex 0.782172 4.93844 1.5
    endloop
  endfacet
  facet normal 0 0 1
    outer loop
      vertex 0 5 1.5
      vertex 1.7 2.75 1.5
      vertex 0.392295 4.98459 1.5
    endloop
  endfacet
  facet normal 0 0 1
    outer loop
      vertex -1.7 2.75 1.5
      vertex 0 5 1.5
      vertex -0.392295 4.98459 1.5
    endloop
  endfacet
  facet normal 0 0 1
    outer loop
      vertex -1.7 2.75 1.5
      vertex -0.392295 4.98459 1.5
      vertex -0.782172 4.93844 1.5
    endloop
  endfacet
  facet normal 0 0 1
    outer loop
      vertex -1.7 2.75 1.5
      vertex -0.782172 4.93844 1.5
      vertex -1.16723 4.86185 1.5
    endloop
  endfacet
  facet normal 0 0 1
    outer loop
      vertex -1.7 2.75 1.5
      vertex -1.16723 4.86185 1.5
      vertex -1.54508 4.75528 1.5
    endloop
  endfacet
  facet normal 0 0 1
    outer loop
      vertex 0 5 1.5
      vertex -1.7 2.75 1.5
      vertex 1.7 2.75 1.5
    endloop
  endfacet
  facet normal -0 0 1
    outer loop
      vertex -2.26995 4.45503 1.5
      vertex -1.7 2.75 1.5
      vertex -1.91342 4.6194 1.5
    endloop
  endfacet
  facet normal -0 0 1
    outer loop
      vertex -1.91342 4.6194 1.5
      vertex -1.7 2.75 1.5
      vertex -1.54508 4.75528 1.5
    endloop
  endfacet
  facet normal 0 0 1
    outer loop
      vertex 2.26995 -4.45503 1.5
      vertex 1.7 -2.75 1.5
      vertex 1.91342 -4.6194 1.5
    endloop
  endfacet
  facet normal 0 0 1
    outer loop
      vertex 1.7 -2.75 1.5
      vertex 1.54508 -4.75528 1.5
      vertex 1.91342 -4.6194 1.5
    endloop
  endfacet
  facet normal 0 0 1
    outer loop
      vertex 1.7 -2.75 1.5
      vertex 1.16723 -4.86185 1.5
      vertex 1.54508 -4.75528 1.5
    endloop
  endfacet
  facet normal 0 0 1
    outer loop
      vertex 1.7 -2.75 1.5
      vertex 0.782172 -4.93844 1.5
      vertex 1.16723 -4.86185 1.5
    endloop
  endfacet
  facet normal 0 0 1
    outer loop
      vertex 1.7 -2.75 1.5
      vertex 0.392295 -4.98459 1.5
      vertex 0.782172 -4.93844 1.5
    endloop
  endfacet
  facet normal 0 0 1
    outer loop
      vertex 1.7 -2.75 1.5
      vertex 0 -5 1.5
      vertex 0.392295 -4.98459 1.5
    endloop
  endfacet
  facet normal -0 0 1
    outer loop
      vertex -1.7 -2.75 1.5
      vertex 0 -5 1.5
      vertex 1.7 -2.75 1.5
    endloop
  endfacet
  facet normal 0 0 1
    outer loop
      vertex 0 -5 1.5
      vertex -1.7 -2.75 1.5
      vertex -0.392295 -4.98459 1.5
    endloop
  endfacet
  facet normal 0 0 1
    outer loop
      vertex -0.392295 -4.98459 1.5
      vertex -1.7 -2.75 1.5
      vertex -0.782172 -4.93844 1.5
    endloop
  endfacet
  facet normal 0 0 1
    outer loop
      vertex -0.782172 -4.93844 1.5
      vertex -1.7 -2.75 1.5
      vertex -1.16723 -4.86185 1.5
    endloop
  endfacet
  facet normal 0 0 1
    outer loop
      vertex -1.16723 -4.86185 1.5
      vertex -1.7 -2.75 1.5
      vertex -1.54508 -4.75528 1.5
    endloop
  endfacet
  facet normal 0 0 1
    outer loop
      vertex -1.7 -2.75 1.5
      vertex -1.91342 -4.6194 1.5
      vertex -1.54508 -4.75528 1.5
    endloop
  endfacet
  facet normal -0 0 1
    outer loop
      vertex -2.61249 4.2632 1.5
      vertex -1.7 2.75 1.5
      vertex -2.26995 4.45503 1.5
    endloop
  endfacet
  facet normal -0 0 1
    outer loop
      vertex -2.93893 4.04508 1.5
      vertex -1.7 2.75 1.5
      vertex -2.61249 4.2632 1.5
    endloop
  endfacet
  facet normal 0 0 1
    outer loop
      vertex -1.7 -2.75 1.5
      vertex -2.26995 -4.45503 1.5
      vertex -1.91342 -4.6194 1.5
    endloop
  endfacet
  facet normal -0 0 1
    outer loop
      vertex -3.24724 3.80203 1.5
      vertex -1.7 2.75 1.5
      vertex -2.93893 4.04508 1.5
    endloop
  endfacet
  facet normal 0 0 1
    outer loop
      vertex -1.7 -2.75 1.5
      vertex -2.61249 -4.2632 1.5
      vertex -2.26995 -4.45503 1.5
    endloop
  endfacet
  facet normal -0 0 1
    outer loop
      vertex -3.53553 3.53553 1.5
      vertex -1.7 2.75 1.5
      vertex -3.24724 3.80203 1.5
    endloop
  endfacet
  facet normal 0 0 1
    outer loop
      vertex -1.7 -2.75 1.5
      vertex -2.93893 -4.04508 1.5
      vertex -2.61249 -4.2632 1.5
    endloop
  endfacet
  facet normal -0 0 1
    outer loop
      vertex -3.80203 3.24724 1.5
      vertex -1.7 2.75 1.5
      vertex -3.53553 3.53553 1.5
    endloop
  endfacet
  facet normal 0 0 1
    outer loop
      vertex -1.7 -2.75 1.5
      vertex -3.24724 -3.80203 1.5
      vertex -2.93893 -4.04508 1.5
    endloop
  endfacet
  facet normal -0 0 1
    outer loop
      vertex -4.04508 2.93893 1.5
      vertex -1.7 2.75 1.5
      vertex -3.80203 3.24724 1.5
    endloop
  endfacet
  facet normal 0 0 1
    outer loop
      vertex -1.7 -2.75 1.5
      vertex -3.53553 -3.53553 1.5
      vertex -3.24724 -3.80203 1.5
    endloop
  endfacet
  facet normal 0 0 1
    outer loop
      vertex -4.2632 2.61249 1.5
      vertex -1.7 2.75 1.5
      vertex -4.04508 2.93893 1.5
    endloop
  endfacet
  facet normal 0 0 1
    outer loop
      vertex -1.7 -2.75 1.5
      vertex -3.80203 -3.24724 1.5
      vertex -3.53553 -3.53553 1.5
    endloop
  endfacet
  facet normal 0 0 1
    outer loop
      vertex -4.45503 2.26995 1.5
      vertex -1.7 2.75 1.5
      vertex -4.2632 2.61249 1.5
    endloop
  endfacet
  facet normal 0 0 1
    outer loop
      vertex -1.7 -2.75 1.5
      vertex -4.04508 -2.93893 1.5
      vertex -3.80203 -3.24724 1.5
    endloop
  endfacet
  facet normal 0 0 1
    outer loop
      vertex -4.6194 1.91342 1.5
      vertex -1.7 2.75 1.5
      vertex -4.45503 2.26995 1.5
    endloop
  endfacet
  facet normal 0 0 1
    outer loop
      vertex -1.7 -2.75 1.5
      vertex -4.2632 -2.61249 1.5
      vertex -4.04508 -2.93893 1.5
    endloop
  endfacet
  facet normal 0 0 1
    outer loop
      vertex -4.75528 1.54508 1.5
      vertex -1.7 2.75 1.5
      vertex -4.6194 1.91342 1.5
    endloop
  endfacet
  facet normal 0 0 1
    outer loop
      vertex -1.7 -2.75 1.5
      vertex -4.45503 -2.26995 1.5
      vertex -4.2632 -2.61249 1.5
    endloop
  endfacet
  facet normal 0 0 1
    outer loop
      vertex -4.86185 1.16723 1.5
      vertex -1.7 2.75 1.5
      vertex -4.75528 1.54508 1.5
    endloop
  endfacet
  facet normal 0 0 1
    outer loop
      vertex -1.7 -2.75 1.5
      vertex -4.6194 -1.91342 1.5
      vertex -4.45503 -2.26995 1.5
    endloop
  endfacet
  facet normal 0 0 1
    outer loop
      vertex -4.93844 0.782172 1.5
      vertex -1.7 2.75 1.5
      vertex -4.86185 1.16723 1.5
    endloop
  endfacet
  facet normal 0 0 1
    outer loop
      vertex -1.7 -2.75 1.5
      vertex -4.75528 -1.54508 1.5
      vertex -4.6194 -1.91342 1.5
    endloop
  endfacet
  facet normal 0 0 1
    outer loop
      vertex -4.98459 0.392295 1.5
      vertex -1.7 2.75 1.5
      vertex -4.93844 0.782172 1.5
    endloop
  endfacet
  facet normal 0 0 1
    outer loop
      vertex -1.7 -2.75 1.5
      vertex -4.86185 -1.16723 1.5
      vertex -4.75528 -1.54508 1.5
    endloop
  endfacet
  facet normal 0 0 1
    outer loop
      vertex -5 0 1.5
      vertex -1.7 2.75 1.5
      vertex -4.98459 0.392295 1.5
    endloop
  endfacet
  facet normal 0 0 1
    outer loop
      vertex -1.7 -2.75 1.5
      vertex -4.93844 -0.782172 1.5
      vertex -4.86185 -1.16723 1.5
    endloop
  endfacet
  facet normal 0 0 1
    outer loop
      vertex -1.7 2.75 1.5
      vertex -5 0 1.5
      vertex -1.7 -2.75 1.5
    endloop
  endfacet
  facet normal 0 0 1
    outer loop
      vertex -1.7 -2.75 1.5
      vertex -4.98459 -0.392295 1.5
      vertex -4.93844 -0.782172 1.5
    endloop
  endfacet
  facet normal 0 0 1
    outer loop
      vertex -1.7 -2.75 1.5
      vertex -5 0 1.5
      vertex -4.98459 -0.392295 1.5
    endloop
  endfacet
  facet normal -0.993067 0.11755 0
    outer loop
      vertex -4.98459 0.392295 -1.5
      vertex -4.93844 0.782172 1.5
      vertex -4.93844 0.782172 -1.5
    endloop
  endfacet
  facet normal -0.993067 0.11755 0
    outer loop
      vertex -4.93844 0.782172 1.5
      vertex -4.98459 0.392295 -1.5
      vertex -4.98459 0.392295 1.5
    endloop
  endfacet
  facet normal -0.962452 0.271453 0
    outer loop
      vertex -4.86185 1.16723 -1.5
      vertex -4.75528 1.54508 1.5
      vertex -4.75528 1.54508 -1.5
    endloop
  endfacet
  facet normal -0.962452 0.271453 0
    outer loop
      vertex -4.75528 1.54508 1.5
      vertex -4.86185 1.16723 -1.5
      vertex -4.86185 1.16723 1.5
    endloop
  endfacet
  facet normal -0.872498 0.488618 0
    outer loop
      vertex -4.45503 2.26995 -1.5
      vertex -4.2632 2.61249 1.5
      vertex -4.2632 2.61249 -1.5
    endloop
  endfacet
  facet normal -0.872498 0.488618 0
    outer loop
      vertex -4.2632 2.61249 1.5
      vertex -4.45503 2.26995 -1.5
      vertex -4.45503 2.26995 1.5
    endloop
  endfacet
  facet normal -0.734313 0.678811 0
    outer loop
      vertex -3.80203 3.24724 -1.5
      vertex -3.53553 3.53553 1.5
      vertex -3.53553 3.53553 -1.5
    endloop
  endfacet
  facet normal -0.734313 0.678811 0
    outer loop
      vertex -3.53553 3.53553 1.5
      vertex -3.80203 3.24724 -1.5
      vertex -3.80203 3.24724 1.5
    endloop
  endfacet
  facet normal -0.195083 0.980787 0
    outer loop
      vertex -0.782172 4.93844 -1.5
      vertex -1.16723 4.86185 1.5
      vertex -0.782172 4.93844 1.5
    endloop
  endfacet
  facet normal -0.195083 0.980787 0
    outer loop
      vertex -1.16723 4.86185 1.5
      vertex -0.782172 4.93844 -1.5
      vertex -1.16723 4.86185 -1.5
    endloop
  endfacet
  facet normal -0.678811 0.734313 0
    outer loop
      vertex -3.24724 3.80203 -1.5
      vertex -3.53553 3.53553 1.5
      vertex -3.24724 3.80203 1.5
    endloop
  endfacet
  facet normal -0.678811 0.734313 0
    outer loop
      vertex -3.53553 3.53553 1.5
      vertex -3.24724 3.80203 -1.5
      vertex -3.53553 3.53553 -1.5
    endloop
  endfacet
  facet normal -0.619091 0.785319 0
    outer loop
      vertex -2.93893 4.04508 -1.5
      vertex -3.24724 3.80203 1.5
      vertex -2.93893 4.04508 1.5
    endloop
  endfacet
  facet normal -0.619091 0.785319 0
    outer loop
      vertex -3.24724 3.80203 1.5
      vertex -2.93893 4.04508 -1.5
      vertex -3.24724 3.80203 -1.5
    endloop
  endfacet
  facet normal 0.993067 -0.11755 0
    outer loop
      vertex 4.93844 -0.782172 1.5
      vertex 4.98459 -0.392295 -1.5
      vertex 4.98459 -0.392295 1.5
    endloop
  endfacet
  facet normal 0.993067 -0.11755 0
    outer loop
      vertex 4.98459 -0.392295 -1.5
      vertex 4.93844 -0.782172 1.5
      vertex 4.93844 -0.782172 -1.5
    endloop
  endfacet
  facet normal 0.980787 -0.195083 0
    outer loop
      vertex 4.86185 -1.16723 1.5
      vertex 4.93844 -0.782172 -1.5
      vertex 4.93844 -0.782172 1.5
    endloop
  endfacet
  facet normal 0.980787 -0.195083 0
    outer loop
      vertex 4.93844 -0.782172 -1.5
      vertex 4.86185 -1.16723 1.5
      vertex 4.86185 -1.16723 -1.5
    endloop
  endfacet
  facet normal 0.999229 -0.0392514 0
    outer loop
      vertex 4.98459 -0.392295 1.5
      vertex 5 0 -1.5
      vertex 5 0 1.5
    endloop
  endfacet
  facet normal 0.999229 -0.0392514 0
    outer loop
      vertex 5 0 -1.5
      vertex 4.98459 -0.392295 1.5
      vertex 4.98459 -0.392295 -1.5
    endloop
  endfacet
  facet normal 0.938198 -0.3461 0
    outer loop
      vertex 4.6194 -1.91342 1.5
      vertex 4.75528 -1.54508 -1.5
      vertex 4.75528 -1.54508 1.5
    endloop
  endfacet
  facet normal 0.938198 -0.3461 0
    outer loop
      vertex 4.75528 -1.54508 -1.5
      vertex 4.6194 -1.91342 1.5
      vertex 4.6194 -1.91342 -1.5
    endloop
  endfacet
  facet normal 0.83147 -0.55557 0
    outer loop
      vertex 4.04508 -2.93893 1.5
      vertex 4.2632 -2.61249 -1.5
      vertex 4.2632 -2.61249 1.5
    endloop
  endfacet
  facet normal 0.83147 -0.55557 0
    outer loop
      vertex 4.2632 -2.61249 -1.5
      vertex 4.04508 -2.93893 1.5
      vertex 4.04508 -2.93893 -1.5
    endloop
  endfacet
  facet normal 0.3461 -0.938198 0
    outer loop
      vertex 1.54508 -4.75528 -1.5
      vertex 1.91342 -4.6194 1.5
      vertex 1.54508 -4.75528 1.5
    endloop
  endfacet
  facet normal 0.3461 -0.938198 0
    outer loop
      vertex 1.91342 -4.6194 1.5
      vertex 1.54508 -4.75528 -1.5
      vertex 1.91342 -4.6194 -1.5
    endloop
  endfacet
  facet normal 0.678811 -0.734313 0
    outer loop
      vertex 3.24724 -3.80203 -1.5
      vertex 3.53553 -3.53553 1.5
      vertex 3.24724 -3.80203 1.5
    endloop
  endfacet
  facet normal 0.678811 -0.734313 0
    outer loop
      vertex 3.53553 -3.53553 1.5
      vertex 3.24724 -3.80203 -1.5
      vertex 3.53553 -3.53553 -1.5
    endloop
  endfacet
  facet normal -0.271453 -0.962452 0
    outer loop
      vertex -1.54508 -4.75528 -1.5
      vertex -1.16723 -4.86185 1.5
      vertex -1.54508 -4.75528 1.5
    endloop
  endfacet
  facet normal -0.271453 -0.962452 -0
    outer loop
      vertex -1.16723 -4.86185 1.5
      vertex -1.54508 -4.75528 -1.5
      vertex -1.16723 -4.86185 -1.5
    endloop
  endfacet
  facet normal -0.678811 -0.734313 0
    outer loop
      vertex -3.53553 -3.53553 -1.5
      vertex -3.24724 -3.80203 1.5
      vertex -3.53553 -3.53553 1.5
    endloop
  endfacet
  facet normal -0.678811 -0.734313 -0
    outer loop
      vertex -3.24724 -3.80203 1.5
      vertex -3.53553 -3.53553 -1.5
      vertex -3.24724 -3.80203 -1.5
    endloop
  endfacet
  facet normal -0.993067 -0.11755 0
    outer loop
      vertex -4.93844 -0.782172 -1.5
      vertex -4.98459 -0.392295 1.5
      vertex -4.98459 -0.392295 -1.5
    endloop
  endfacet
  facet normal -0.993067 -0.11755 0
    outer loop
      vertex -4.98459 -0.392295 1.5
      vertex -4.93844 -0.782172 -1.5
      vertex -4.93844 -0.782172 1.5
    endloop
  endfacet
  facet normal -0.938198 -0.3461 0
    outer loop
      vertex -4.6194 -1.91342 -1.5
      vertex -4.75528 -1.54508 1.5
      vertex -4.75528 -1.54508 -1.5
    endloop
  endfacet
  facet normal -0.938198 -0.3461 0
    outer loop
      vertex -4.75528 -1.54508 1.5
      vertex -4.6194 -1.91342 -1.5
      vertex -4.6194 -1.91342 1.5
    endloop
  endfacet
  facet normal -0.980787 -0.195083 0
    outer loop
      vertex -4.86185 -1.16723 -1.5
      vertex -4.93844 -0.782172 1.5
      vertex -4.93844 -0.782172 -1.5
    endloop
  endfacet
  facet normal -0.980787 -0.195083 0
    outer loop
      vertex -4.93844 -0.782172 1.5
      vertex -4.86185 -1.16723 -1.5
      vertex -4.86185 -1.16723 1.5
    endloop
  endfacet
  facet normal -0.734313 -0.678811 0
    outer loop
      vertex -3.53553 -3.53553 -1.5
      vertex -3.80203 -3.24724 1.5
      vertex -3.80203 -3.24724 -1.5
    endloop
  endfacet
  facet normal -0.734313 -0.678811 0
    outer loop
      vertex -3.80203 -3.24724 1.5
      vertex -3.53553 -3.53553 -1.5
      vertex -3.53553 -3.53553 1.5
    endloop
  endfacet
  facet normal -0.872498 -0.488618 0
    outer loop
      vertex -4.2632 -2.61249 -1.5
      vertex -4.45503 -2.26995 1.5
      vertex -4.45503 -2.26995 -1.5
    endloop
  endfacet
  facet normal -0.872498 -0.488618 0
    outer loop
      vertex -4.45503 -2.26995 1.5
      vertex -4.2632 -2.61249 -1.5
      vertex -4.2632 -2.61249 1.5
    endloop
  endfacet
  facet normal -0.785319 -0.619091 0
    outer loop
      vertex -3.80203 -3.24724 -1.5
      vertex -4.04508 -2.93893 1.5
      vertex -4.04508 -2.93893 -1.5
    endloop
  endfacet
  facet normal -0.785319 -0.619091 0
    outer loop
      vertex -4.04508 -2.93893 1.5
      vertex -3.80203 -3.24724 -1.5
      vertex -3.80203 -3.24724 1.5
    endloop
  endfacet
  facet normal 0.908136 -0.418675 0
    outer loop
      vertex 4.45503 -2.26995 1.5
      vertex 4.6194 -1.91342 -1.5
      vertex 4.6194 -1.91342 1.5
    endloop
  endfacet
  facet normal 0.908136 -0.418675 0
    outer loop
      vertex 4.6194 -1.91342 -1.5
      vertex 4.45503 -2.26995 1.5
      vertex 4.45503 -2.26995 -1.5
    endloop
  endfacet
  facet normal 0.271453 -0.962452 0
    outer loop
      vertex 1.16723 -4.86185 -1.5
      vertex 1.54508 -4.75528 1.5
      vertex 1.16723 -4.86185 1.5
    endloop
  endfacet
  facet normal 0.271453 -0.962452 0
    outer loop
      vertex 1.54508 -4.75528 1.5
      vertex 1.16723 -4.86185 -1.5
      vertex 1.54508 -4.75528 -1.5
    endloop
  endfacet
  facet normal -0.195083 -0.980787 0
    outer loop
      vertex -1.16723 -4.86185 -1.5
      vertex -0.782172 -4.93844 1.5
      vertex -1.16723 -4.86185 1.5
    endloop
  endfacet
  facet normal -0.195083 -0.980787 -0
    outer loop
      vertex -0.782172 -4.93844 1.5
      vertex -1.16723 -4.86185 -1.5
      vertex -0.782172 -4.93844 -1.5
    endloop
  endfacet
  facet normal -0.619091 -0.785319 0
    outer loop
      vertex -3.24724 -3.80203 -1.5
      vertex -2.93893 -4.04508 1.5
      vertex -3.24724 -3.80203 1.5
    endloop
  endfacet
  facet normal -0.619091 -0.785319 -0
    outer loop
      vertex -2.93893 -4.04508 1.5
      vertex -3.24724 -3.80203 -1.5
      vertex -2.93893 -4.04508 -1.5
    endloop
  endfacet
  facet normal -0.962452 -0.271453 0
    outer loop
      vertex -4.75528 -1.54508 -1.5
      vertex -4.86185 -1.16723 1.5
      vertex -4.86185 -1.16723 -1.5
    endloop
  endfacet
  facet normal -0.962452 -0.271453 0
    outer loop
      vertex -4.86185 -1.16723 1.5
      vertex -4.75528 -1.54508 -1.5
      vertex -4.75528 -1.54508 1.5
    endloop
  endfacet
  facet normal 0.785319 -0.619091 0
    outer loop
      vertex 3.80203 -3.24724 1.5
      vertex 4.04508 -2.93893 -1.5
      vertex 4.04508 -2.93893 1.5
    endloop
  endfacet
  facet normal 0.785319 -0.619091 0
    outer loop
      vertex 4.04508 -2.93893 -1.5
      vertex 3.80203 -3.24724 1.5
      vertex 3.80203 -3.24724 -1.5
    endloop
  endfacet
  facet normal 0.872498 -0.488618 0
    outer loop
      vertex 4.2632 -2.61249 1.5
      vertex 4.45503 -2.26995 -1.5
      vertex 4.45503 -2.26995 1.5
    endloop
  endfacet
  facet normal 0.872498 -0.488618 0
    outer loop
      vertex 4.45503 -2.26995 -1.5
      vertex 4.2632 -2.61249 1.5
      vertex 4.2632 -2.61249 -1.5
    endloop
  endfacet
  facet normal 1 -0 0
    outer loop
      vertex -1.7 -2.75 1.5
      vertex -1.7 2.75 -1.5
      vertex -1.7 2.75 1.5
    endloop
  endfacet
  facet normal 1 0 0
    outer loop
      vertex -1.7 2.75 -1.5
      vertex -1.7 -2.75 1.5
      vertex -1.7 -2.75 -1.5
    endloop
  endfacet
  facet normal -1 0 0
    outer loop
      vertex 1.7 -2.75 -1.5
      vertex 1.7 2.75 1.5
      vertex 1.7 2.75 -1.5
    endloop
  endfacet
  facet normal -1 -0 0
    outer loop
      vertex 1.7 2.75 1.5
      vertex 1.7 -2.75 -1.5
      vertex 1.7 -2.75 1.5
    endloop
  endfacet
  facet normal 0 1 -0
    outer loop
      vertex 1.7 -2.75 -1.5
      vertex -1.7 -2.75 1.5
      vertex 1.7 -2.75 1.5
    endloop
  endfacet
  facet normal 0 1 0
    outer loop
      vertex -1.7 -2.75 1.5
      vertex 1.7 -2.75 -1.5
      vertex -1.7 -2.75 -1.5
    endloop
  endfacet
  facet normal 0 -1 0
    outer loop
      vertex -1.7 2.75 -1.5
      vertex 1.7 2.75 1.5
      vertex -1.7 2.75 1.5
    endloop
  endfacet
  facet normal 0 -1 -0
    outer loop
      vertex 1.7 2.75 1.5
      vertex -1.7 2.75 -1.5
      vertex 1.7 2.75 -1.5
    endloop
  endfacet
endsolid OpenSCAD_Model
