solid OpenSCAD_Model
  facet normal 0 0 -1
    outer loop
      vertex 2.44589 -10.4661 0
      vertex -2.23169 15.7927 0
      vertex -2.22153 16.0439 0
    endloop
  endfacet
  facet normal 0 0 -1
    outer loop
      vertex 2.44589 -10.4661 0
      vertex -2.26163 15.547 0
      vertex -2.23169 15.7927 0
    endloop
  endfacet
  facet normal 0 0 -1
    outer loop
      vertex 2.44589 -10.4661 0
      vertex -2.31058 15.3077 0
      vertex -2.26163 15.547 0
    endloop
  endfacet
  facet normal 0 0 -1
    outer loop
      vertex -3.70877 -12.823 0
      vertex -1.78326 -17.1373 0
      vertex -2.32466 -17.3609 0
    endloop
  endfacet
  facet normal 0 -0 -1
    outer loop
      vertex -3.47594 13.5712 0
      vertex 2.44589 -10.4661 0
      vertex -3.70877 -7.80731 0
    endloop
  endfacet
  facet normal 0 0 -1
    outer loop
      vertex 2.44589 -10.4661 0
      vertex -2.37775 15.0755 0
      vertex -2.31058 15.3077 0
    endloop
  endfacet
  facet normal 0 0 -1
    outer loop
      vertex 2.44589 -10.4661 0
      vertex -2.46233 14.8514 0
      vertex -2.37775 15.0755 0
    endloop
  endfacet
  facet normal 0 0 -1
    outer loop
      vertex 2.44589 -10.4661 0
      vertex -2.56354 14.6359 0
      vertex -2.46233 14.8514 0
    endloop
  endfacet
  facet normal 0 0 -1
    outer loop
      vertex 2.44589 -10.4661 0
      vertex -2.68059 14.43 0
      vertex -2.56354 14.6359 0
    endloop
  endfacet
  facet normal 0 0 -1
    outer loop
      vertex -3.70877 -12.823 0
      vertex -2.32466 -17.3609 0
      vertex -2.88597 -17.5459 0
    endloop
  endfacet
  facet normal 0 0 -1
    outer loop
      vertex 2.44589 -10.4661 0
      vertex -2.8127 14.2345 0
      vertex -2.68059 14.43 0
    endloop
  endfacet
  facet normal 0 0 -1
    outer loop
      vertex 2.44589 -10.4661 0
      vertex -2.95908 14.05 0
      vertex -2.8127 14.2345 0
    endloop
  endfacet
  facet normal 0 0 -1
    outer loop
      vertex 2.44589 -10.4661 0
      vertex -3.11894 13.8775 0
      vertex -2.95908 14.05 0
    endloop
  endfacet
  facet normal 0 0 -1
    outer loop
      vertex -3.70877 -12.823 0
      vertex -2.88597 -17.5459 0
      vertex -3.46497 -17.6914 0
    endloop
  endfacet
  facet normal 0 0 -1
    outer loop
      vertex 2.44589 -10.4661 0
      vertex -3.29149 13.7176 0
      vertex -3.11894 13.8775 0
    endloop
  endfacet
  facet normal 0 0 -1
    outer loop
      vertex 2.44589 -10.4661 0
      vertex -3.47594 13.5712 0
      vertex -3.29149 13.7176 0
    endloop
  endfacet
  facet normal -0 0 -1
    outer loop
      vertex 2.44589 -10.4661 0
      vertex -3.70877 -12.823 0
      vertex -3.70877 -7.80731 0
    endloop
  endfacet
  facet normal 0 0 -1
    outer loop
      vertex -4.05936 -17.7965 0
      vertex -3.70877 -12.823 0
      vertex -3.46497 -17.6914 0
    endloop
  endfacet
  facet normal 0 0 -1
    outer loop
      vertex -4.66693 -17.8602 0
      vertex -3.70877 -12.823 0
      vertex -4.05936 -17.7965 0
    endloop
  endfacet
  facet normal 0 0 -1
    outer loop
      vertex -5.28542 -17.8816 0
      vertex -3.70877 -12.823 0
      vertex -4.66693 -17.8602 0
    endloop
  endfacet
  facet normal 0 0 -1
    outer loop
      vertex -6.70859 -12.823 0
      vertex -5.28542 -17.8816 0
      vertex -5.90222 -17.8546 0
    endloop
  endfacet
  facet normal 0 0 -1
    outer loop
      vertex -6.70859 -12.823 0
      vertex -5.90222 -17.8546 0
      vertex -6.50497 -17.7748 0
    endloop
  endfacet
  facet normal 0 0 -1
    outer loop
      vertex -5.28542 -17.8816 0
      vertex -6.70859 -12.823 0
      vertex -3.70877 -12.823 0
    endloop
  endfacet
  facet normal 0 0 -1
    outer loop
      vertex -6.70859 -12.823 0
      vertex -6.8 -12.8 0
      vertex -6.70859 -12.8 0
    endloop
  endfacet
  facet normal 0 0 -1
    outer loop
      vertex -7.09178 -17.6444 0
      vertex -6.70859 -12.823 0
      vertex -6.50497 -17.7748 0
    endloop
  endfacet
  facet normal 0 0 -1
    outer loop
      vertex -12.7599 -10.3655 0
      vertex -6.8 -7.8 0
      vertex -6.8 -12.8 0
    endloop
  endfacet
  facet normal 0 0 -1
    outer loop
      vertex -7.66072 -17.4654 0
      vertex -6.70859 -12.823 0
      vertex -7.09178 -17.6444 0
    endloop
  endfacet
  facet normal 0 0 -1
    outer loop
      vertex -8.20992 -17.24 0
      vertex -6.70859 -12.823 0
      vertex -7.66072 -17.4654 0
    endloop
  endfacet
  facet normal -0 0 -1
    outer loop
      vertex -6.8 -7.8 0
      vertex -12.7847 -9.69194 0
      vertex -6.89932 13.4391 0
    endloop
  endfacet
  facet normal -0 0 -1
    outer loop
      vertex -6.89932 13.4391 0
      vertex -12.7847 -9.69194 0
      vertex -7.09489 13.5712 0
    endloop
  endfacet
  facet normal -0 0 -1
    outer loop
      vertex -7.09489 13.5712 0
      vertex -12.7847 -9.69194 0
      vertex -7.27934 13.7176 0
    endloop
  endfacet
  facet normal -0 0 -1
    outer loop
      vertex -7.27934 13.7176 0
      vertex -12.7847 -9.69194 0
      vertex -7.45189 13.8775 0
    endloop
  endfacet
  facet normal -0 0 -1
    outer loop
      vertex -6.70859 -12.823 0
      vertex -8.20992 -17.24 0
      vertex -6.8 -12.8 0
    endloop
  endfacet
  facet normal -0 0 -1
    outer loop
      vertex -7.45189 13.8775 0
      vertex -12.7847 -9.69194 0
      vertex -7.61176 14.05 0
    endloop
  endfacet
  facet normal -0 0 -1
    outer loop
      vertex -7.61176 14.05 0
      vertex -12.7847 -9.69194 0
      vertex -7.75813 14.2345 0
    endloop
  endfacet
  facet normal -0 0 -1
    outer loop
      vertex -7.75813 14.2345 0
      vertex -12.7847 -9.69194 0
      vertex -7.89024 14.43 0
    endloop
  endfacet
  facet normal -0 0 -1
    outer loop
      vertex -7.89024 14.43 0
      vertex -12.7847 -9.69194 0
      vertex -8.00729 14.6359 0
    endloop
  endfacet
  facet normal -0 0 -1
    outer loop
      vertex -8.00729 14.6359 0
      vertex -12.7847 -9.69194 0
      vertex -8.10851 14.8514 0
    endloop
  endfacet
  facet normal 0 0 -1
    outer loop
      vertex -8.73746 -16.9701 0
      vertex -6.8 -12.8 0
      vertex -8.20992 -17.24 0
    endloop
  endfacet
  facet normal -0 0 -1
    outer loop
      vertex -8.10851 14.8514 0
      vertex -12.7847 -9.69194 0
      vertex -8.19308 15.0755 0
    endloop
  endfacet
  facet normal -0 0 -1
    outer loop
      vertex -8.19308 15.0755 0
      vertex -12.7847 -9.69194 0
      vertex -8.26025 15.3077 0
    endloop
  endfacet
  facet normal -0 0 -1
    outer loop
      vertex -8.26025 15.3077 0
      vertex -12.7847 -9.69194 0
      vertex -8.3092 15.547 0
    endloop
  endfacet
  facet normal -0 0 -1
    outer loop
      vertex -8.3092 15.547 0
      vertex -12.7847 -9.69194 0
      vertex -8.33914 15.7927 0
    endloop
  endfacet
  facet normal -0 0 -1
    outer loop
      vertex -8.33914 15.7927 0
      vertex -12.7847 -9.69194 0
      vertex -8.34932 16.0439 0
    endloop
  endfacet
  facet normal 0 0 -1
    outer loop
      vertex -9.24144 -16.6579 0
      vertex -6.8 -12.8 0
      vertex -8.73746 -16.9701 0
    endloop
  endfacet
  facet normal 0 0 -1
    outer loop
      vertex -9.71997 -16.3055 0
      vertex -6.8 -12.8 0
      vertex -9.24144 -16.6579 0
    endloop
  endfacet
  facet normal 0 0 -1
    outer loop
      vertex -10.1711 -15.9149 0
      vertex -6.8 -12.8 0
      vertex -9.71997 -16.3055 0
    endloop
  endfacet
  facet normal 0 0 -1
    outer loop
      vertex -10.593 -15.4881 0
      vertex -6.8 -12.8 0
      vertex -10.1711 -15.9149 0
    endloop
  endfacet
  facet normal 0 0 -1
    outer loop
      vertex -10.9838 -15.0274 0
      vertex -6.8 -12.8 0
      vertex -10.593 -15.4881 0
    endloop
  endfacet
  facet normal 0 0 -1
    outer loop
      vertex -11.3415 -14.5347 0
      vertex -6.8 -12.8 0
      vertex -10.9838 -15.0274 0
    endloop
  endfacet
  facet normal 0 0 -1
    outer loop
      vertex -11.6642 -14.0121 0
      vertex -6.8 -12.8 0
      vertex -11.3415 -14.5347 0
    endloop
  endfacet
  facet normal 0 0 -1
    outer loop
      vertex -11.9501 -13.4617 0
      vertex -6.8 -12.8 0
      vertex -11.6642 -14.0121 0
    endloop
  endfacet
  facet normal 0 0 -1
    outer loop
      vertex -12.1972 -12.8856 0
      vertex -6.8 -12.8 0
      vertex -11.9501 -13.4617 0
    endloop
  endfacet
  facet normal 0 0 -1
    outer loop
      vertex -12.4036 -12.2858 0
      vertex -6.8 -12.8 0
      vertex -12.1972 -12.8856 0
    endloop
  endfacet
  facet normal 0 0 -1
    outer loop
      vertex -12.5675 -11.6645 0
      vertex -6.8 -12.8 0
      vertex -12.4036 -12.2858 0
    endloop
  endfacet
  facet normal 0 0 -1
    outer loop
      vertex -12.6869 -11.0237 0
      vertex -6.8 -12.8 0
      vertex -12.5675 -11.6645 0
    endloop
  endfacet
  facet normal 0 0 -1
    outer loop
      vertex -12.7599 -10.3655 0
      vertex -6.8 -12.8 0
      vertex -12.6869 -11.0237 0
    endloop
  endfacet
  facet normal 0 0 -1
    outer loop
      vertex -6.8 -7.8 0
      vertex -12.7599 -10.3655 0
      vertex -12.7847 -9.69194 0
    endloop
  endfacet
  facet normal 0 0 -1
    outer loop
      vertex -12.7847 57.8047 0
      vertex -8.34932 16.0439 0
      vertex -12.7847 -9.69194 0
    endloop
  endfacet
  facet normal 0 0 -1
    outer loop
      vertex -8.34932 16.0439 0
      vertex -12.7847 57.8047 0
      vertex -8.69502 61.298 0
    endloop
  endfacet
  facet normal -0 0 -1
    outer loop
      vertex 2.3416 -11.7762 0
      vertex -3.70877 -12.823 0
      vertex 2.41945 -11.134 0
    endloop
  endfacet
  facet normal -0 0 -1
    outer loop
      vertex 2.21458 -12.3916 0
      vertex -3.70877 -12.823 0
      vertex 2.3416 -11.7762 0
    endloop
  endfacet
  facet normal 0 0 -1
    outer loop
      vertex 2.04068 -12.9794 0
      vertex -3.70877 -12.823 0
      vertex 2.21458 -12.3916 0
    endloop
  endfacet
  facet normal 0 0 -1
    outer loop
      vertex 1.82213 -13.5387 0
      vertex -3.70877 -12.823 0
      vertex 2.04068 -12.9794 0
    endloop
  endfacet
  facet normal 0 0 -1
    outer loop
      vertex 1.56116 -14.0686 0
      vertex -3.70877 -12.823 0
      vertex 1.82213 -13.5387 0
    endloop
  endfacet
  facet normal 0 0 -1
    outer loop
      vertex 1.26004 -14.5681 0
      vertex -3.70877 -12.823 0
      vertex 1.56116 -14.0686 0
    endloop
  endfacet
  facet normal 0 0 -1
    outer loop
      vertex 0.921005 -15.0363 0
      vertex -3.70877 -12.823 0
      vertex 1.26004 -14.5681 0
    endloop
  endfacet
  facet normal 0 0 -1
    outer loop
      vertex 0.546326 -15.4723 0
      vertex -3.70877 -12.823 0
      vertex 0.921005 -15.0363 0
    endloop
  endfacet
  facet normal 0 0 -1
    outer loop
      vertex 0.138229 -15.8752 0
      vertex -3.70877 -12.823 0
      vertex 0.546326 -15.4723 0
    endloop
  endfacet
  facet normal 0 0 -1
    outer loop
      vertex -0.301025 -16.244 0
      vertex -3.70877 -12.823 0
      vertex 0.138229 -15.8752 0
    endloop
  endfacet
  facet normal 0 0 -1
    outer loop
      vertex -0.769196 -16.578 0
      vertex -3.70877 -12.823 0
      vertex -0.301025 -16.244 0
    endloop
  endfacet
  facet normal 0 0 -1
    outer loop
      vertex -1.26402 -16.876 0
      vertex -3.70877 -12.823 0
      vertex -0.769196 -16.578 0
    endloop
  endfacet
  facet normal 0 0 -1
    outer loop
      vertex 2.44589 -10.4661 0
      vertex -2.22153 16.0439 0
      vertex -2.23169 16.2952 0
    endloop
  endfacet
  facet normal 0 0 -1
    outer loop
      vertex -3.70877 -12.823 0
      vertex -1.26402 -16.876 0
      vertex -1.78326 -17.1373 0
    endloop
  endfacet
  facet normal 0 0 -1
    outer loop
      vertex 2.44589 -10.4661 0
      vertex -2.23169 16.2952 0
      vertex 2.44589 61.2045 0
    endloop
  endfacet
  facet normal -0 0 -1
    outer loop
      vertex 2.41945 -11.134 0
      vertex -3.70877 -12.823 0
      vertex 2.44589 -10.4661 0
    endloop
  endfacet
  facet normal 0 0 -1
    outer loop
      vertex -2.26164 16.5409 0
      vertex 2.44589 61.2045 0
      vertex -2.23169 16.2952 0
    endloop
  endfacet
  facet normal 0 0 -1
    outer loop
      vertex -2.31059 16.7802 0
      vertex 2.44589 61.2045 0
      vertex -2.26164 16.5409 0
    endloop
  endfacet
  facet normal 0 0 -1
    outer loop
      vertex -2.37775 17.0124 0
      vertex 2.44589 61.2045 0
      vertex -2.31059 16.7802 0
    endloop
  endfacet
  facet normal 0 0 -1
    outer loop
      vertex -2.46233 17.2365 0
      vertex 2.44589 61.2045 0
      vertex -2.37775 17.0124 0
    endloop
  endfacet
  facet normal 0 0 -1
    outer loop
      vertex -2.56354 17.452 0
      vertex 2.44589 61.2045 0
      vertex -2.46233 17.2365 0
    endloop
  endfacet
  facet normal 0 0 -1
    outer loop
      vertex -2.68059 17.6579 0
      vertex 2.44589 61.2045 0
      vertex -2.56354 17.452 0
    endloop
  endfacet
  facet normal 0 0 -1
    outer loop
      vertex -2.81271 17.8534 0
      vertex 2.44589 61.2045 0
      vertex -2.68059 17.6579 0
    endloop
  endfacet
  facet normal 0 0 -1
    outer loop
      vertex -2.95909 18.0379 0
      vertex 2.44589 61.2045 0
      vertex -2.81271 17.8534 0
    endloop
  endfacet
  facet normal 0 0 -1
    outer loop
      vertex -3.11894 18.2104 0
      vertex 2.44589 61.2045 0
      vertex -2.95909 18.0379 0
    endloop
  endfacet
  facet normal 0 0 -1
    outer loop
      vertex -3.29149 18.3703 0
      vertex 2.44589 61.2045 0
      vertex -3.11894 18.2104 0
    endloop
  endfacet
  facet normal 0 0 -1
    outer loop
      vertex -3.47595 18.5167 0
      vertex 2.44589 61.2045 0
      vertex -3.29149 18.3703 0
    endloop
  endfacet
  facet normal 0 0 -1
    outer loop
      vertex -3.67151 18.6488 0
      vertex 2.44589 61.2045 0
      vertex -3.47595 18.5167 0
    endloop
  endfacet
  facet normal 0 0 -1
    outer loop
      vertex -3.8774 18.7658 0
      vertex 2.44589 61.2045 0
      vertex -3.67151 18.6488 0
    endloop
  endfacet
  facet normal 0 0 -1
    outer loop
      vertex -4.09283 18.8671 0
      vertex 2.44589 61.2045 0
      vertex -3.8774 18.7658 0
    endloop
  endfacet
  facet normal 0 0 -1
    outer loop
      vertex -4.317 18.9516 0
      vertex 2.44589 61.2045 0
      vertex -4.09283 18.8671 0
    endloop
  endfacet
  facet normal 0 0 -1
    outer loop
      vertex -4.54913 19.0188 0
      vertex 2.44589 61.2045 0
      vertex -4.317 18.9516 0
    endloop
  endfacet
  facet normal -0 0 -1
    outer loop
      vertex 2.44589 61.2045 0
      vertex -4.54913 19.0188 0
      vertex -0.876892 61.2205 0
    endloop
  endfacet
  facet normal 0 0 -1
    outer loop
      vertex -4.78844 19.0677 0
      vertex -0.876892 61.2205 0
      vertex -4.54913 19.0188 0
    endloop
  endfacet
  facet normal 0 0 -1
    outer loop
      vertex -5.03413 19.0977 0
      vertex -0.876892 61.2205 0
      vertex -4.78844 19.0677 0
    endloop
  endfacet
  facet normal 0 0 -1
    outer loop
      vertex -5.28542 19.1078 0
      vertex -0.876892 61.2205 0
      vertex -5.03413 19.0977 0
    endloop
  endfacet
  facet normal -0 0 -1
    outer loop
      vertex -0.876892 61.2205 0
      vertex -5.28542 19.1078 0
      vertex -8.69502 61.298 0
    endloop
  endfacet
  facet normal 0 0 -1
    outer loop
      vertex -8.69502 61.298 0
      vertex -5.28542 19.1078 0
      vertex -5.5367 19.0977 0
    endloop
  endfacet
  facet normal 0 0 -1
    outer loop
      vertex -8.69502 61.298 0
      vertex -5.5367 19.0977 0
      vertex -5.78239 19.0677 0
    endloop
  endfacet
  facet normal 0 0 -1
    outer loop
      vertex -8.69502 61.298 0
      vertex -5.78239 19.0677 0
      vertex -6.0217 19.0188 0
    endloop
  endfacet
  facet normal 0 0 -1
    outer loop
      vertex -8.69502 61.298 0
      vertex -6.0217 19.0188 0
      vertex -6.25383 18.9516 0
    endloop
  endfacet
  facet normal 0 0 -1
    outer loop
      vertex -8.69502 61.298 0
      vertex -6.25383 18.9516 0
      vertex -6.47801 18.8671 0
    endloop
  endfacet
  facet normal 0 0 -1
    outer loop
      vertex -8.69502 61.298 0
      vertex -6.47801 18.8671 0
      vertex -6.69344 18.7658 0
    endloop
  endfacet
  facet normal 0 0 -1
    outer loop
      vertex -8.69502 61.298 0
      vertex -6.69344 18.7658 0
      vertex -6.89932 18.6488 0
    endloop
  endfacet
  facet normal 0 0 -1
    outer loop
      vertex -8.69502 61.298 0
      vertex -6.89932 18.6488 0
      vertex -7.09488 18.5167 0
    endloop
  endfacet
  facet normal 0 0 -1
    outer loop
      vertex -8.69502 61.298 0
      vertex -7.09488 18.5167 0
      vertex -7.27934 18.3703 0
    endloop
  endfacet
  facet normal 0 0 -1
    outer loop
      vertex -8.69502 61.298 0
      vertex -7.27934 18.3703 0
      vertex -7.45189 18.2104 0
    endloop
  endfacet
  facet normal 0 0 -1
    outer loop
      vertex -8.69502 61.298 0
      vertex -7.45189 18.2104 0
      vertex -7.61174 18.0379 0
    endloop
  endfacet
  facet normal 0 0 -1
    outer loop
      vertex -8.69502 61.298 0
      vertex -7.61174 18.0379 0
      vertex -7.75813 17.8534 0
    endloop
  endfacet
  facet normal 0 0 -1
    outer loop
      vertex -8.69502 61.298 0
      vertex -7.75813 17.8534 0
      vertex -7.89024 17.6579 0
    endloop
  endfacet
  facet normal 0 0 -1
    outer loop
      vertex -8.69502 61.298 0
      vertex -7.89024 17.6579 0
      vertex -8.00729 17.452 0
    endloop
  endfacet
  facet normal 0 0 -1
    outer loop
      vertex -8.69502 61.298 0
      vertex -8.00729 17.452 0
      vertex -8.10851 17.2365 0
    endloop
  endfacet
  facet normal 0 0 -1
    outer loop
      vertex -8.69502 61.298 0
      vertex -8.10851 17.2365 0
      vertex -8.19308 17.0124 0
    endloop
  endfacet
  facet normal 0 0 -1
    outer loop
      vertex -8.69502 61.298 0
      vertex -8.19308 17.0124 0
      vertex -8.26025 16.7802 0
    endloop
  endfacet
  facet normal 0 0 -1
    outer loop
      vertex -8.69502 61.298 0
      vertex -8.26025 16.7802 0
      vertex -8.30919 16.5409 0
    endloop
  endfacet
  facet normal 0 0 -1
    outer loop
      vertex -8.69502 61.298 0
      vertex -8.33914 16.2952 0
      vertex -8.34932 16.0439 0
    endloop
  endfacet
  facet normal 0 0 -1
    outer loop
      vertex -8.69502 61.298 0
      vertex -8.30919 16.5409 0
      vertex -8.33914 16.2952 0
    endloop
  endfacet
  facet normal 0 0 -1
    outer loop
      vertex -0.876892 61.2205 0
      vertex -8.69502 61.298 0
      vertex -0.876892 63.8524 0
    endloop
  endfacet
  facet normal -0 0 -1
    outer loop
      vertex -0.876892 63.8524 0
      vertex -8.69502 61.298 0
      vertex -8.69502 63.9687 0
    endloop
  endfacet
  facet normal 0 0 -1
    outer loop
      vertex -3.47594 13.5712 0
      vertex -3.70877 -7.80731 0
      vertex -3.67151 13.4391 0
    endloop
  endfacet
  facet normal 0 0 -1
    outer loop
      vertex -3.8 -7.8 0
      vertex -3.70877 -7.80731 0
      vertex -3.8 -7.80731 0
    endloop
  endfacet
  facet normal 0 0 -1
    outer loop
      vertex -4.78844 13.0202 0
      vertex -3.70877 -7.80731 0
      vertex -3.8 -7.8 0
    endloop
  endfacet
  facet normal 0 0 -1
    outer loop
      vertex -3.70877 -7.80731 0
      vertex -3.8774 13.3221 0
      vertex -3.67151 13.4391 0
    endloop
  endfacet
  facet normal 0 0 -1
    outer loop
      vertex -3.70877 -7.80731 0
      vertex -4.09282 13.2209 0
      vertex -3.8774 13.3221 0
    endloop
  endfacet
  facet normal 0 0 -1
    outer loop
      vertex -3.70877 -7.80731 0
      vertex -4.317 13.1363 0
      vertex -4.09282 13.2209 0
    endloop
  endfacet
  facet normal 0 0 -1
    outer loop
      vertex -3.70877 -7.80731 0
      vertex -4.54913 13.0691 0
      vertex -4.317 13.1363 0
    endloop
  endfacet
  facet normal 0 0 -1
    outer loop
      vertex -3.70877 -7.80731 0
      vertex -4.78844 13.0202 0
      vertex -4.54913 13.0691 0
    endloop
  endfacet
  facet normal 0 0 -1
    outer loop
      vertex -3.8 -7.8 0
      vertex -5.03413 12.9902 0
      vertex -4.78844 13.0202 0
    endloop
  endfacet
  facet normal 0 0 -1
    outer loop
      vertex -3.8 -7.8 0
      vertex -5.28542 12.9801 0
      vertex -5.03413 12.9902 0
    endloop
  endfacet
  facet normal 0 0 -1
    outer loop
      vertex -6.8 -7.8 0
      vertex -5.28542 12.9801 0
      vertex -3.8 -7.8 0
    endloop
  endfacet
  facet normal -0 0 -1
    outer loop
      vertex -5.28542 12.9801 0
      vertex -6.8 -7.8 0
      vertex -5.5367 12.9902 0
    endloop
  endfacet
  facet normal -0 0 -1
    outer loop
      vertex -5.5367 12.9902 0
      vertex -6.8 -7.8 0
      vertex -5.78239 13.0202 0
    endloop
  endfacet
  facet normal -0 0 -1
    outer loop
      vertex -5.78239 13.0202 0
      vertex -6.8 -7.8 0
      vertex -6.0217 13.0691 0
    endloop
  endfacet
  facet normal -0 0 -1
    outer loop
      vertex -6.0217 13.0691 0
      vertex -6.8 -7.8 0
      vertex -6.25383 13.1363 0
    endloop
  endfacet
  facet normal -0 0 -1
    outer loop
      vertex -6.25383 13.1363 0
      vertex -6.8 -7.8 0
      vertex -6.47801 13.2209 0
    endloop
  endfacet
  facet normal -0 0 -1
    outer loop
      vertex -6.47801 13.2209 0
      vertex -6.8 -7.8 0
      vertex -6.69344 13.3221 0
    endloop
  endfacet
  facet normal -0 0 -1
    outer loop
      vertex -6.69344 13.3221 0
      vertex -6.8 -7.8 0
      vertex -6.89932 13.4391 0
    endloop
  endfacet
  facet normal 0 0 1
    outer loop
      vertex -6.70859 -12.8 3
      vertex -6.8 -12.8 3
      vertex -6.70859 -12.823 3
    endloop
  endfacet
  facet normal -0 0 1
    outer loop
      vertex -3.8774 13.3221 3
      vertex -3.70877 -7.80731 3
      vertex -3.67151 13.4391 3
    endloop
  endfacet
  facet normal -0 0 1
    outer loop
      vertex -4.09282 13.2209 3
      vertex -3.70877 -7.80731 3
      vertex -3.8774 13.3221 3
    endloop
  endfacet
  facet normal -0 0 1
    outer loop
      vertex -4.317 13.1363 3
      vertex -3.70877 -7.80731 3
      vertex -4.09282 13.2209 3
    endloop
  endfacet
  facet normal -0 0 1
    outer loop
      vertex -4.54913 13.0691 3
      vertex -3.70877 -7.80731 3
      vertex -4.317 13.1363 3
    endloop
  endfacet
  facet normal -0 0 1
    outer loop
      vertex -4.78844 13.0202 3
      vertex -3.70877 -7.80731 3
      vertex -4.54913 13.0691 3
    endloop
  endfacet
  facet normal 0 0 1
    outer loop
      vertex -3.70877 -7.80731 3
      vertex -4.78844 13.0202 3
      vertex -3.8 -7.8 3
    endloop
  endfacet
  facet normal -0 0 1
    outer loop
      vertex -5.03413 12.9902 3
      vertex -3.8 -7.8 3
      vertex -4.78844 13.0202 3
    endloop
  endfacet
  facet normal -0 0 1
    outer loop
      vertex -5.28542 12.9801 3
      vertex -3.8 -7.8 3
      vertex -5.03413 12.9902 3
    endloop
  endfacet
  facet normal 0 0 1
    outer loop
      vertex -6.8 -7.8 3
      vertex -5.28542 12.9801 3
      vertex -5.5367 12.9902 3
    endloop
  endfacet
  facet normal 0 0 1
    outer loop
      vertex -6.8 -7.8 3
      vertex -5.5367 12.9902 3
      vertex -5.78239 13.0202 3
    endloop
  endfacet
  facet normal 0 0 1
    outer loop
      vertex -6.8 -7.8 3
      vertex -5.78239 13.0202 3
      vertex -6.0217 13.0691 3
    endloop
  endfacet
  facet normal 0 0 1
    outer loop
      vertex -6.8 -7.8 3
      vertex -6.0217 13.0691 3
      vertex -6.25383 13.1363 3
    endloop
  endfacet
  facet normal 0 0 1
    outer loop
      vertex -6.8 -7.8 3
      vertex -6.25383 13.1363 3
      vertex -6.47801 13.2209 3
    endloop
  endfacet
  facet normal 0 0 1
    outer loop
      vertex -6.8 -7.8 3
      vertex -6.47801 13.2209 3
      vertex -6.69344 13.3221 3
    endloop
  endfacet
  facet normal 0 0 1
    outer loop
      vertex -5.28542 12.9801 3
      vertex -6.8 -7.8 3
      vertex -3.8 -7.8 3
    endloop
  endfacet
  facet normal 0 0 1
    outer loop
      vertex -12.7847 -9.69194 3
      vertex -6.8 -7.8 3
      vertex -6.89932 13.4391 3
    endloop
  endfacet
  facet normal 0 0 1
    outer loop
      vertex -6.89932 13.4391 3
      vertex -6.8 -7.8 3
      vertex -6.69344 13.3221 3
    endloop
  endfacet
  facet normal -0 0 1
    outer loop
      vertex -8.69502 61.298 3
      vertex -0.876892 61.2205 3
      vertex -0.876892 63.8524 3
    endloop
  endfacet
  facet normal 0 0 1
    outer loop
      vertex -0.876892 61.2205 3
      vertex -2.22153 16.0439 3
      vertex -1.26402 -16.876 3
    endloop
  endfacet
  facet normal -0 0 1
    outer loop
      vertex -2.23169 15.7927 3
      vertex -1.26402 -16.876 3
      vertex -2.22153 16.0439 3
    endloop
  endfacet
  facet normal 0 0 1
    outer loop
      vertex -0.876892 61.2205 3
      vertex -2.23169 16.2952 3
      vertex -2.22153 16.0439 3
    endloop
  endfacet
  facet normal 0 0 1
    outer loop
      vertex -0.876892 61.2205 3
      vertex -2.26164 16.5409 3
      vertex -2.23169 16.2952 3
    endloop
  endfacet
  facet normal 0 0 1
    outer loop
      vertex -0.876892 61.2205 3
      vertex -2.31059 16.7802 3
      vertex -2.26164 16.5409 3
    endloop
  endfacet
  facet normal 0 0 1
    outer loop
      vertex -0.876892 61.2205 3
      vertex -2.37775 17.0124 3
      vertex -2.31059 16.7802 3
    endloop
  endfacet
  facet normal 0 0 1
    outer loop
      vertex -0.876892 61.2205 3
      vertex -2.46233 17.2365 3
      vertex -2.37775 17.0124 3
    endloop
  endfacet
  facet normal 0 0 1
    outer loop
      vertex -0.876892 61.2205 3
      vertex -2.56354 17.452 3
      vertex -2.46233 17.2365 3
    endloop
  endfacet
  facet normal 0 0 1
    outer loop
      vertex -0.876892 61.2205 3
      vertex -2.68059 17.6579 3
      vertex -2.56354 17.452 3
    endloop
  endfacet
  facet normal 0 0 1
    outer loop
      vertex -0.876892 61.2205 3
      vertex -2.81271 17.8534 3
      vertex -2.68059 17.6579 3
    endloop
  endfacet
  facet normal 0 0 1
    outer loop
      vertex -0.876892 61.2205 3
      vertex -2.95909 18.0379 3
      vertex -2.81271 17.8534 3
    endloop
  endfacet
  facet normal 0 0 1
    outer loop
      vertex -0.876892 61.2205 3
      vertex -3.11894 18.2104 3
      vertex -2.95909 18.0379 3
    endloop
  endfacet
  facet normal 0 0 1
    outer loop
      vertex -0.876892 61.2205 3
      vertex -3.29149 18.3703 3
      vertex -3.11894 18.2104 3
    endloop
  endfacet
  facet normal 0 0 1
    outer loop
      vertex -0.876892 61.2205 3
      vertex -3.47595 18.5167 3
      vertex -3.29149 18.3703 3
    endloop
  endfacet
  facet normal 0 0 1
    outer loop
      vertex -0.876892 61.2205 3
      vertex -3.67151 18.6488 3
      vertex -3.47595 18.5167 3
    endloop
  endfacet
  facet normal 0 0 1
    outer loop
      vertex -0.876892 61.2205 3
      vertex -3.8774 18.7658 3
      vertex -3.67151 18.6488 3
    endloop
  endfacet
  facet normal 0 0 1
    outer loop
      vertex -0.876892 61.2205 3
      vertex -4.09283 18.8671 3
      vertex -3.8774 18.7658 3
    endloop
  endfacet
  facet normal 0 0 1
    outer loop
      vertex -0.876892 61.2205 3
      vertex -4.317 18.9516 3
      vertex -4.09283 18.8671 3
    endloop
  endfacet
  facet normal 0 -0 1
    outer loop
      vertex -4.78844 19.0677 3
      vertex -0.876892 61.2205 3
      vertex -12.7847 57.8047 3
    endloop
  endfacet
  facet normal 0 0 1
    outer loop
      vertex -0.876892 61.2205 3
      vertex -4.54913 19.0188 3
      vertex -4.317 18.9516 3
    endloop
  endfacet
  facet normal 0 0 1
    outer loop
      vertex -0.876892 61.2205 3
      vertex -4.78844 19.0677 3
      vertex -4.54913 19.0188 3
    endloop
  endfacet
  facet normal 0 0 1
    outer loop
      vertex -4.78844 19.0677 3
      vertex -12.7847 57.8047 3
      vertex -5.03413 19.0977 3
    endloop
  endfacet
  facet normal 0 0 1
    outer loop
      vertex -5.03413 19.0977 3
      vertex -12.7847 57.8047 3
      vertex -5.28542 19.1078 3
    endloop
  endfacet
  facet normal 0 0 1
    outer loop
      vertex -5.28542 19.1078 3
      vertex -12.7847 57.8047 3
      vertex -5.5367 19.0977 3
    endloop
  endfacet
  facet normal 0 0 1
    outer loop
      vertex -5.5367 19.0977 3
      vertex -12.7847 57.8047 3
      vertex -5.78239 19.0677 3
    endloop
  endfacet
  facet normal 0 0 1
    outer loop
      vertex -5.78239 19.0677 3
      vertex -12.7847 57.8047 3
      vertex -6.0217 19.0188 3
    endloop
  endfacet
  facet normal 0 0 1
    outer loop
      vertex -6.0217 19.0188 3
      vertex -12.7847 57.8047 3
      vertex -6.25383 18.9516 3
    endloop
  endfacet
  facet normal 0 0 1
    outer loop
      vertex -6.25383 18.9516 3
      vertex -12.7847 57.8047 3
      vertex -6.47801 18.8671 3
    endloop
  endfacet
  facet normal 0 0 1
    outer loop
      vertex -6.47801 18.8671 3
      vertex -12.7847 57.8047 3
      vertex -6.69344 18.7658 3
    endloop
  endfacet
  facet normal 0 0 1
    outer loop
      vertex -6.69344 18.7658 3
      vertex -12.7847 57.8047 3
      vertex -6.89932 18.6488 3
    endloop
  endfacet
  facet normal 0 0 1
    outer loop
      vertex -6.89932 18.6488 3
      vertex -12.7847 57.8047 3
      vertex -7.09488 18.5167 3
    endloop
  endfacet
  facet normal 0 0 1
    outer loop
      vertex -7.09488 18.5167 3
      vertex -12.7847 57.8047 3
      vertex -7.27934 18.3703 3
    endloop
  endfacet
  facet normal 0 0 1
    outer loop
      vertex -7.27934 18.3703 3
      vertex -12.7847 57.8047 3
      vertex -7.45189 18.2104 3
    endloop
  endfacet
  facet normal 0 0 1
    outer loop
      vertex -7.45189 18.2104 3
      vertex -12.7847 57.8047 3
      vertex -7.61174 18.0379 3
    endloop
  endfacet
  facet normal 0 0 1
    outer loop
      vertex -7.61174 18.0379 3
      vertex -12.7847 57.8047 3
      vertex -7.75813 17.8534 3
    endloop
  endfacet
  facet normal 0 0 1
    outer loop
      vertex -7.75813 17.8534 3
      vertex -12.7847 57.8047 3
      vertex -7.89024 17.6579 3
    endloop
  endfacet
  facet normal 0 0 1
    outer loop
      vertex -7.89024 17.6579 3
      vertex -12.7847 57.8047 3
      vertex -8.00729 17.452 3
    endloop
  endfacet
  facet normal 0 0 1
    outer loop
      vertex -8.00729 17.452 3
      vertex -12.7847 57.8047 3
      vertex -8.10851 17.2365 3
    endloop
  endfacet
  facet normal 0 0 1
    outer loop
      vertex -8.10851 17.2365 3
      vertex -12.7847 57.8047 3
      vertex -8.19308 17.0124 3
    endloop
  endfacet
  facet normal 0 0 1
    outer loop
      vertex -8.19308 17.0124 3
      vertex -12.7847 57.8047 3
      vertex -8.26025 16.7802 3
    endloop
  endfacet
  facet normal 0 0 1
    outer loop
      vertex -8.26025 16.7802 3
      vertex -12.7847 57.8047 3
      vertex -8.30919 16.5409 3
    endloop
  endfacet
  facet normal 0 0 1
    outer loop
      vertex -0.876892 61.2205 3
      vertex -8.69502 61.298 3
      vertex -12.7847 57.8047 3
    endloop
  endfacet
  facet normal 0 0 1
    outer loop
      vertex -8.69502 61.298 3
      vertex -0.876892 63.8524 3
      vertex -8.69502 63.9687 3
    endloop
  endfacet
  facet normal 0 0 1
    outer loop
      vertex -0.876892 61.2205 3
      vertex 2.44589 -10.4661 3
      vertex 2.44589 61.2045 3
    endloop
  endfacet
  facet normal 0 0 1
    outer loop
      vertex -1.26402 -16.876 3
      vertex 2.44589 -10.4661 3
      vertex -0.876892 61.2205 3
    endloop
  endfacet
  facet normal 0 0 1
    outer loop
      vertex 2.44589 -10.4661 3
      vertex -1.26402 -16.876 3
      vertex 2.41945 -11.134 3
    endloop
  endfacet
  facet normal 0 0 1
    outer loop
      vertex 2.41945 -11.134 3
      vertex -1.26402 -16.876 3
      vertex 2.3416 -11.7762 3
    endloop
  endfacet
  facet normal 0 0 1
    outer loop
      vertex 2.3416 -11.7762 3
      vertex -1.26402 -16.876 3
      vertex 2.21458 -12.3916 3
    endloop
  endfacet
  facet normal 0 0 1
    outer loop
      vertex 2.21458 -12.3916 3
      vertex -1.26402 -16.876 3
      vertex 2.04068 -12.9794 3
    endloop
  endfacet
  facet normal 0 0 1
    outer loop
      vertex 2.04068 -12.9794 3
      vertex -1.26402 -16.876 3
      vertex 1.82213 -13.5387 3
    endloop
  endfacet
  facet normal 0 0 1
    outer loop
      vertex 1.82213 -13.5387 3
      vertex -1.26402 -16.876 3
      vertex 1.56116 -14.0686 3
    endloop
  endfacet
  facet normal 0 0 1
    outer loop
      vertex 1.56116 -14.0686 3
      vertex -1.26402 -16.876 3
      vertex 1.26004 -14.5681 3
    endloop
  endfacet
  facet normal 0 0 1
    outer loop
      vertex 1.26004 -14.5681 3
      vertex -1.26402 -16.876 3
      vertex 0.921005 -15.0363 3
    endloop
  endfacet
  facet normal 0 0 1
    outer loop
      vertex 0.921005 -15.0363 3
      vertex -1.26402 -16.876 3
      vertex 0.546326 -15.4723 3
    endloop
  endfacet
  facet normal 0 0 1
    outer loop
      vertex 0.546326 -15.4723 3
      vertex -1.26402 -16.876 3
      vertex 0.138229 -15.8752 3
    endloop
  endfacet
  facet normal 0 0 1
    outer loop
      vertex 0.138229 -15.8752 3
      vertex -1.26402 -16.876 3
      vertex -0.301025 -16.244 3
    endloop
  endfacet
  facet normal 0 0 1
    outer loop
      vertex -0.301025 -16.244 3
      vertex -1.26402 -16.876 3
      vertex -0.769196 -16.578 3
    endloop
  endfacet
  facet normal -0 0 1
    outer loop
      vertex -2.26163 15.547 3
      vertex -1.26402 -16.876 3
      vertex -2.23169 15.7927 3
    endloop
  endfacet
  facet normal -0 0 1
    outer loop
      vertex -2.31058 15.3077 3
      vertex -1.26402 -16.876 3
      vertex -2.26163 15.547 3
    endloop
  endfacet
  facet normal -0 0 1
    outer loop
      vertex -3.70877 -7.80731 3
      vertex -1.26402 -16.876 3
      vertex -2.31058 15.3077 3
    endloop
  endfacet
  facet normal -0 0 1
    outer loop
      vertex -3.70877 -12.823 3
      vertex -1.26402 -16.876 3
      vertex -3.70877 -7.80731 3
    endloop
  endfacet
  facet normal 0 0 1
    outer loop
      vertex -3.70877 -7.80731 3
      vertex -2.31058 15.3077 3
      vertex -2.37775 15.0755 3
    endloop
  endfacet
  facet normal 0 0 1
    outer loop
      vertex -3.70877 -7.80731 3
      vertex -2.37775 15.0755 3
      vertex -2.46233 14.8514 3
    endloop
  endfacet
  facet normal 0 0 1
    outer loop
      vertex -3.70877 -7.80731 3
      vertex -2.46233 14.8514 3
      vertex -2.56354 14.6359 3
    endloop
  endfacet
  facet normal 0 0 1
    outer loop
      vertex -3.70877 -7.80731 3
      vertex -2.56354 14.6359 3
      vertex -2.68059 14.43 3
    endloop
  endfacet
  facet normal 0 0 1
    outer loop
      vertex -3.70877 -7.80731 3
      vertex -2.68059 14.43 3
      vertex -2.8127 14.2345 3
    endloop
  endfacet
  facet normal 0 0 1
    outer loop
      vertex -1.26402 -16.876 3
      vertex -3.70877 -12.823 3
      vertex -1.78326 -17.1373 3
    endloop
  endfacet
  facet normal 0 0 1
    outer loop
      vertex -3.70877 -7.80731 3
      vertex -2.8127 14.2345 3
      vertex -2.95908 14.05 3
    endloop
  endfacet
  facet normal 0 0 1
    outer loop
      vertex -3.70877 -7.80731 3
      vertex -2.95908 14.05 3
      vertex -3.11894 13.8775 3
    endloop
  endfacet
  facet normal 0 0 1
    outer loop
      vertex -3.70877 -7.80731 3
      vertex -3.11894 13.8775 3
      vertex -3.29149 13.7176 3
    endloop
  endfacet
  facet normal 0 0 1
    outer loop
      vertex -1.78326 -17.1373 3
      vertex -3.70877 -12.823 3
      vertex -2.32466 -17.3609 3
    endloop
  endfacet
  facet normal 0 0 1
    outer loop
      vertex -3.70877 -7.80731 3
      vertex -3.29149 13.7176 3
      vertex -3.47594 13.5712 3
    endloop
  endfacet
  facet normal 0 0 1
    outer loop
      vertex -3.70877 -7.80731 3
      vertex -3.47594 13.5712 3
      vertex -3.67151 13.4391 3
    endloop
  endfacet
  facet normal 0 0 1
    outer loop
      vertex -2.32466 -17.3609 3
      vertex -3.70877 -12.823 3
      vertex -2.88597 -17.5459 3
    endloop
  endfacet
  facet normal 0 0 1
    outer loop
      vertex -2.88597 -17.5459 3
      vertex -3.70877 -12.823 3
      vertex -3.46497 -17.6914 3
    endloop
  endfacet
  facet normal 0 0 1
    outer loop
      vertex -3.70877 -12.823 3
      vertex -4.05936 -17.7965 3
      vertex -3.46497 -17.6914 3
    endloop
  endfacet
  facet normal 0 0 1
    outer loop
      vertex -3.70877 -12.823 3
      vertex -4.66693 -17.8602 3
      vertex -4.05936 -17.7965 3
    endloop
  endfacet
  facet normal 0 0 1
    outer loop
      vertex -3.70877 -12.823 3
      vertex -5.28542 -17.8816 3
      vertex -4.66693 -17.8602 3
    endloop
  endfacet
  facet normal -0 0 1
    outer loop
      vertex -6.70859 -12.823 3
      vertex -5.28542 -17.8816 3
      vertex -3.70877 -12.823 3
    endloop
  endfacet
  facet normal 0 0 1
    outer loop
      vertex -5.28542 -17.8816 3
      vertex -6.70859 -12.823 3
      vertex -5.90222 -17.8546 3
    endloop
  endfacet
  facet normal 0 0 1
    outer loop
      vertex -5.90222 -17.8546 3
      vertex -6.70859 -12.823 3
      vertex -6.50497 -17.7748 3
    endloop
  endfacet
  facet normal 0 0 1
    outer loop
      vertex -8.20992 -17.24 3
      vertex -6.70859 -12.823 3
      vertex -6.8 -12.8 3
    endloop
  endfacet
  facet normal 0 0 1
    outer loop
      vertex -6.70859 -12.823 3
      vertex -7.09178 -17.6444 3
      vertex -6.50497 -17.7748 3
    endloop
  endfacet
  facet normal 0 -0 1
    outer loop
      vertex -12.7599 -10.3655 3
      vertex -6.8 -7.8 3
      vertex -12.7847 -9.69194 3
    endloop
  endfacet
  facet normal 0 0 1
    outer loop
      vertex -12.7847 -9.69194 3
      vertex -6.89932 13.4391 3
      vertex -7.09489 13.5712 3
    endloop
  endfacet
  facet normal 0 0 1
    outer loop
      vertex -12.7847 -9.69194 3
      vertex -7.09489 13.5712 3
      vertex -7.27934 13.7176 3
    endloop
  endfacet
  facet normal 0 0 1
    outer loop
      vertex -12.7847 -9.69194 3
      vertex -7.27934 13.7176 3
      vertex -7.45189 13.8775 3
    endloop
  endfacet
  facet normal 0 0 1
    outer loop
      vertex -12.7847 -9.69194 3
      vertex -7.45189 13.8775 3
      vertex -7.61176 14.05 3
    endloop
  endfacet
  facet normal 0 0 1
    outer loop
      vertex -6.8 -7.8 3
      vertex -12.7599 -10.3655 3
      vertex -6.8 -12.8 3
    endloop
  endfacet
  facet normal 0 0 1
    outer loop
      vertex -12.7847 -9.69194 3
      vertex -7.61176 14.05 3
      vertex -7.75813 14.2345 3
    endloop
  endfacet
  facet normal 0 0 1
    outer loop
      vertex -12.7847 -9.69194 3
      vertex -7.75813 14.2345 3
      vertex -7.89024 14.43 3
    endloop
  endfacet
  facet normal 0 0 1
    outer loop
      vertex -12.7847 -9.69194 3
      vertex -7.89024 14.43 3
      vertex -8.00729 14.6359 3
    endloop
  endfacet
  facet normal 0 0 1
    outer loop
      vertex -12.7847 -9.69194 3
      vertex -8.00729 14.6359 3
      vertex -8.10851 14.8514 3
    endloop
  endfacet
  facet normal 0 0 1
    outer loop
      vertex -12.7847 -9.69194 3
      vertex -8.10851 14.8514 3
      vertex -8.19308 15.0755 3
    endloop
  endfacet
  facet normal 0 0 1
    outer loop
      vertex -6.70859 -12.823 3
      vertex -7.66072 -17.4654 3
      vertex -7.09178 -17.6444 3
    endloop
  endfacet
  facet normal 0 0 1
    outer loop
      vertex -12.7847 -9.69194 3
      vertex -8.19308 15.0755 3
      vertex -8.26025 15.3077 3
    endloop
  endfacet
  facet normal 0 0 1
    outer loop
      vertex -12.7847 -9.69194 3
      vertex -8.26025 15.3077 3
      vertex -8.3092 15.547 3
    endloop
  endfacet
  facet normal 0 0 1
    outer loop
      vertex -12.7847 -9.69194 3
      vertex -8.3092 15.547 3
      vertex -8.33914 15.7927 3
    endloop
  endfacet
  facet normal 0 0 1
    outer loop
      vertex -12.7847 -9.69194 3
      vertex -8.33914 15.7927 3
      vertex -8.34932 16.0439 3
    endloop
  endfacet
  facet normal 0 0 1
    outer loop
      vertex -8.30919 16.5409 3
      vertex -12.7847 57.8047 3
      vertex -8.33914 16.2952 3
    endloop
  endfacet
  facet normal 0 0 1
    outer loop
      vertex -12.7847 -9.69194 3
      vertex -8.33914 16.2952 3
      vertex -12.7847 57.8047 3
    endloop
  endfacet
  facet normal 0 0 1
    outer loop
      vertex -6.70859 -12.823 3
      vertex -8.20992 -17.24 3
      vertex -7.66072 -17.4654 3
    endloop
  endfacet
  facet normal 0 0 1
    outer loop
      vertex -6.8 -12.8 3
      vertex -8.73746 -16.9701 3
      vertex -8.20992 -17.24 3
    endloop
  endfacet
  facet normal 0 0 1
    outer loop
      vertex -6.8 -12.8 3
      vertex -9.24144 -16.6579 3
      vertex -8.73746 -16.9701 3
    endloop
  endfacet
  facet normal 0 0 1
    outer loop
      vertex -6.8 -12.8 3
      vertex -9.71997 -16.3055 3
      vertex -9.24144 -16.6579 3
    endloop
  endfacet
  facet normal 0 0 1
    outer loop
      vertex -6.8 -12.8 3
      vertex -10.1711 -15.9149 3
      vertex -9.71997 -16.3055 3
    endloop
  endfacet
  facet normal 0 0 1
    outer loop
      vertex -6.8 -12.8 3
      vertex -10.593 -15.4881 3
      vertex -10.1711 -15.9149 3
    endloop
  endfacet
  facet normal 0 0 1
    outer loop
      vertex -6.8 -12.8 3
      vertex -10.9838 -15.0274 3
      vertex -10.593 -15.4881 3
    endloop
  endfacet
  facet normal 0 0 1
    outer loop
      vertex -6.8 -12.8 3
      vertex -11.3415 -14.5347 3
      vertex -10.9838 -15.0274 3
    endloop
  endfacet
  facet normal 0 0 1
    outer loop
      vertex -6.8 -12.8 3
      vertex -11.6642 -14.0121 3
      vertex -11.3415 -14.5347 3
    endloop
  endfacet
  facet normal 0 0 1
    outer loop
      vertex -6.8 -12.8 3
      vertex -11.9501 -13.4617 3
      vertex -11.6642 -14.0121 3
    endloop
  endfacet
  facet normal 0 0 1
    outer loop
      vertex -6.8 -12.8 3
      vertex -12.1972 -12.8856 3
      vertex -11.9501 -13.4617 3
    endloop
  endfacet
  facet normal 0 0 1
    outer loop
      vertex -6.8 -12.8 3
      vertex -12.4036 -12.2858 3
      vertex -12.1972 -12.8856 3
    endloop
  endfacet
  facet normal 0 0 1
    outer loop
      vertex -6.8 -12.8 3
      vertex -12.5675 -11.6645 3
      vertex -12.4036 -12.2858 3
    endloop
  endfacet
  facet normal 0 0 1
    outer loop
      vertex -6.8 -12.8 3
      vertex -12.6869 -11.0237 3
      vertex -12.5675 -11.6645 3
    endloop
  endfacet
  facet normal 0 0 1
    outer loop
      vertex -8.33914 16.2952 3
      vertex -12.7847 -9.69194 3
      vertex -8.34932 16.0439 3
    endloop
  endfacet
  facet normal 0 0 1
    outer loop
      vertex -6.8 -12.8 3
      vertex -12.7599 -10.3655 3
      vertex -12.6869 -11.0237 3
    endloop
  endfacet
  facet normal 0 0 1
    outer loop
      vertex -3.70877 -7.80731 3
      vertex -3.8 -7.8 3
      vertex -3.8 -7.80731 3
    endloop
  endfacet
  facet normal 0.104272 -0.994549 0
    outer loop
      vertex -4.66693 -17.8602 0
      vertex -4.05936 -17.7965 3
      vertex -4.66693 -17.8602 3
    endloop
  endfacet
  facet normal 0.104272 -0.994549 0
    outer loop
      vertex -4.05936 -17.7965 3
      vertex -4.66693 -17.8602 0
      vertex -4.05936 -17.7965 0
    endloop
  endfacet
  facet normal 0.174119 -0.984725 0
    outer loop
      vertex -4.05936 -17.7965 0
      vertex -3.46497 -17.6914 3
      vertex -4.05936 -17.7965 3
    endloop
  endfacet
  facet normal 0.174119 -0.984725 0
    outer loop
      vertex -3.46497 -17.6914 3
      vertex -4.05936 -17.7965 0
      vertex -3.46497 -17.6914 0
    endloop
  endfacet
  facet normal 0.243718 -0.969846 0
    outer loop
      vertex -3.46497 -17.6914 0
      vertex -2.88597 -17.5459 3
      vertex -3.46497 -17.6914 3
    endloop
  endfacet
  facet normal 0.243718 -0.969846 0
    outer loop
      vertex -2.88597 -17.5459 3
      vertex -3.46497 -17.6914 0
      vertex -2.88597 -17.5459 0
    endloop
  endfacet
  facet normal 0.313023 -0.949746 0
    outer loop
      vertex -2.88597 -17.5459 0
      vertex -2.32466 -17.3609 3
      vertex -2.88597 -17.5459 3
    endloop
  endfacet
  facet normal 0.313023 -0.949746 0
    outer loop
      vertex -2.32466 -17.3609 3
      vertex -2.88597 -17.5459 0
      vertex -2.32466 -17.3609 0
    endloop
  endfacet
  facet normal 0.381728 -0.924275 0
    outer loop
      vertex -2.32466 -17.3609 0
      vertex -1.78326 -17.1373 3
      vertex -2.32466 -17.3609 3
    endloop
  endfacet
  facet normal 0.381728 -0.924275 0
    outer loop
      vertex -1.78326 -17.1373 3
      vertex -2.32466 -17.3609 0
      vertex -1.78326 -17.1373 0
    endloop
  endfacet
  facet normal 0.449524 -0.893268 0
    outer loop
      vertex -1.78326 -17.1373 0
      vertex -1.26402 -16.876 3
      vertex -1.78326 -17.1373 3
    endloop
  endfacet
  facet normal 0.449524 -0.893268 0
    outer loop
      vertex -1.26402 -16.876 3
      vertex -1.78326 -17.1373 0
      vertex -1.26402 -16.876 0
    endloop
  endfacet
  facet normal 0.515902 -0.856647 0
    outer loop
      vertex -1.26402 -16.876 0
      vertex -0.769196 -16.578 3
      vertex -1.26402 -16.876 3
    endloop
  endfacet
  facet normal 0.515902 -0.856647 0
    outer loop
      vertex -0.769196 -16.578 3
      vertex -1.26402 -16.876 0
      vertex -0.769196 -16.578 0
    endloop
  endfacet
  facet normal 0.580768 -0.814069 0
    outer loop
      vertex -0.769196 -16.578 0
      vertex -0.301025 -16.244 3
      vertex -0.769196 -16.578 3
    endloop
  endfacet
  facet normal 0.580768 -0.814069 0
    outer loop
      vertex -0.301025 -16.244 3
      vertex -0.769196 -16.578 0
      vertex -0.301025 -16.244 0
    endloop
  endfacet
  facet normal 0.643015 -0.765854 0
    outer loop
      vertex -0.301025 -16.244 0
      vertex 0.138229 -15.8752 3
      vertex -0.301025 -16.244 3
    endloop
  endfacet
  facet normal 0.643015 -0.765854 0
    outer loop
      vertex 0.138229 -15.8752 3
      vertex -0.301025 -16.244 0
      vertex 0.138229 -15.8752 0
    endloop
  endfacet
  facet normal 0.702561 -0.711623 0
    outer loop
      vertex 0.138229 -15.8752 0
      vertex 0.546326 -15.4723 3
      vertex 0.138229 -15.8752 3
    endloop
  endfacet
  facet normal 0.702561 -0.711623 0
    outer loop
      vertex 0.546326 -15.4723 3
      vertex 0.138229 -15.8752 0
      vertex 0.546326 -15.4723 0
    endloop
  endfacet
  facet normal 0.758427 -0.651758 0
    outer loop
      vertex 0.546326 -15.4723 3
      vertex 0.921005 -15.0363 0
      vertex 0.921005 -15.0363 3
    endloop
  endfacet
  facet normal 0.758427 -0.651758 0
    outer loop
      vertex 0.921005 -15.0363 0
      vertex 0.546326 -15.4723 3
      vertex 0.546326 -15.4723 0
    endloop
  endfacet
  facet normal 0.809947 -0.586503 0
    outer loop
      vertex 0.921005 -15.0363 3
      vertex 1.26004 -14.5681 0
      vertex 1.26004 -14.5681 3
    endloop
  endfacet
  facet normal 0.809947 -0.586503 0
    outer loop
      vertex 1.26004 -14.5681 0
      vertex 0.921005 -15.0363 3
      vertex 0.921005 -15.0363 0
    endloop
  endfacet
  facet normal 0.856417 -0.516285 0
    outer loop
      vertex 1.26004 -14.5681 3
      vertex 1.56116 -14.0686 0
      vertex 1.56116 -14.0686 3
    endloop
  endfacet
  facet normal 0.856417 -0.516285 0
    outer loop
      vertex 1.56116 -14.0686 0
      vertex 1.26004 -14.5681 3
      vertex 1.26004 -14.5681 0
    endloop
  endfacet
  facet normal 0.897106 -0.441815 0
    outer loop
      vertex 1.56116 -14.0686 3
      vertex 1.82213 -13.5387 0
      vertex 1.82213 -13.5387 3
    endloop
  endfacet
  facet normal 0.897106 -0.441815 0
    outer loop
      vertex 1.82213 -13.5387 0
      vertex 1.56116 -14.0686 3
      vertex 1.56116 -14.0686 0
    endloop
  endfacet
  facet normal 0.931416 -0.363957 0
    outer loop
      vertex 1.82213 -13.5387 3
      vertex 2.04068 -12.9794 0
      vertex 2.04068 -12.9794 3
    endloop
  endfacet
  facet normal 0.931416 -0.363957 0
    outer loop
      vertex 2.04068 -12.9794 0
      vertex 1.82213 -13.5387 3
      vertex 1.82213 -13.5387 0
    endloop
  endfacet
  facet normal 0.958915 -0.283694 0
    outer loop
      vertex 2.04068 -12.9794 3
      vertex 2.21458 -12.3916 0
      vertex 2.21458 -12.3916 3
    endloop
  endfacet
  facet normal 0.958915 -0.283694 0
    outer loop
      vertex 2.21458 -12.3916 0
      vertex 2.04068 -12.9794 3
      vertex 2.04068 -12.9794 0
    endloop
  endfacet
  facet normal 0.979356 -0.202141 0
    outer loop
      vertex 2.21458 -12.3916 3
      vertex 2.3416 -11.7762 0
      vertex 2.3416 -11.7762 3
    endloop
  endfacet
  facet normal 0.979356 -0.202141 0
    outer loop
      vertex 2.3416 -11.7762 0
      vertex 2.21458 -12.3916 3
      vertex 2.21458 -12.3916 0
    endloop
  endfacet
  facet normal 0.992732 -0.120343 0
    outer loop
      vertex 2.3416 -11.7762 3
      vertex 2.41945 -11.134 0
      vertex 2.41945 -11.134 3
    endloop
  endfacet
  facet normal 0.992732 -0.120343 0
    outer loop
      vertex 2.41945 -11.134 0
      vertex 2.3416 -11.7762 3
      vertex 2.3416 -11.7762 0
    endloop
  endfacet
  facet normal 0.999217 -0.0395558 0
    outer loop
      vertex 2.41945 -11.134 3
      vertex 2.44589 -10.4661 0
      vertex 2.44589 -10.4661 3
    endloop
  endfacet
  facet normal 0.999217 -0.0395558 0
    outer loop
      vertex 2.44589 -10.4661 0
      vertex 2.41945 -11.134 3
      vertex 2.41945 -11.134 0
    endloop
  endfacet
  facet normal 1 -0 0
    outer loop
      vertex 2.44589 -10.4661 3
      vertex 2.44589 61.2045 0
      vertex 2.44589 61.2045 3
    endloop
  endfacet
  facet normal 1 0 0
    outer loop
      vertex 2.44589 61.2045 0
      vertex 2.44589 -10.4661 3
      vertex 2.44589 -10.4661 0
    endloop
  endfacet
  facet normal 0.00481519 0.999988 -0
    outer loop
      vertex 2.44589 61.2045 0
      vertex -0.876892 61.2205 3
      vertex 2.44589 61.2045 3
    endloop
  endfacet
  facet normal 0.00481519 0.999988 0
    outer loop
      vertex -0.876892 61.2205 3
      vertex 2.44589 61.2045 0
      vertex -0.876892 61.2205 0
    endloop
  endfacet
  facet normal 1 -0 0
    outer loop
      vertex -0.876892 61.2205 3
      vertex -0.876892 63.8524 0
      vertex -0.876892 63.8524 3
    endloop
  endfacet
  facet normal 1 0 0
    outer loop
      vertex -0.876892 63.8524 0
      vertex -0.876892 61.2205 3
      vertex -0.876892 61.2205 0
    endloop
  endfacet
  facet normal 0.014874 0.999889 -0
    outer loop
      vertex -0.876892 63.8524 0
      vertex -8.69502 63.9687 3
      vertex -0.876892 63.8524 3
    endloop
  endfacet
  facet normal 0.014874 0.999889 0
    outer loop
      vertex -8.69502 63.9687 3
      vertex -0.876892 63.8524 0
      vertex -8.69502 63.9687 0
    endloop
  endfacet
  facet normal -1 0 0
    outer loop
      vertex -8.69502 61.298 0
      vertex -8.69502 63.9687 3
      vertex -8.69502 63.9687 0
    endloop
  endfacet
  facet normal -1 -0 0
    outer loop
      vertex -8.69502 63.9687 3
      vertex -8.69502 61.298 0
      vertex -8.69502 61.298 3
    endloop
  endfacet
  facet normal -0.649489 0.760371 0
    outer loop
      vertex -8.69502 61.298 0
      vertex -12.7847 57.8047 3
      vertex -8.69502 61.298 3
    endloop
  endfacet
  facet normal -0.649489 0.760371 0
    outer loop
      vertex -12.7847 57.8047 3
      vertex -8.69502 61.298 0
      vertex -12.7847 57.8047 0
    endloop
  endfacet
  facet normal -1 0 0
    outer loop
      vertex -12.7847 -9.69194 0
      vertex -12.7847 57.8047 3
      vertex -12.7847 57.8047 0
    endloop
  endfacet
  facet normal -1 -0 0
    outer loop
      vertex -12.7847 57.8047 3
      vertex -12.7847 -9.69194 0
      vertex -12.7847 -9.69194 3
    endloop
  endfacet
  facet normal -0.999323 -0.0367944 0
    outer loop
      vertex -12.7599 -10.3655 0
      vertex -12.7847 -9.69194 3
      vertex -12.7847 -9.69194 0
    endloop
  endfacet
  facet normal -0.999323 -0.0367944 0
    outer loop
      vertex -12.7847 -9.69194 3
      vertex -12.7599 -10.3655 0
      vertex -12.7599 -10.3655 3
    endloop
  endfacet
  facet normal -0.993906 -0.110233 0
    outer loop
      vertex -12.6869 -11.0237 0
      vertex -12.7599 -10.3655 3
      vertex -12.7599 -10.3655 0
    endloop
  endfacet
  facet normal -0.993906 -0.110233 0
    outer loop
      vertex -12.7599 -10.3655 3
      vertex -12.6869 -11.0237 0
      vertex -12.6869 -11.0237 3
    endloop
  endfacet
  facet normal -0.98308 -0.183177 0
    outer loop
      vertex -12.5675 -11.6645 0
      vertex -12.6869 -11.0237 3
      vertex -12.6869 -11.0237 0
    endloop
  endfacet
  facet normal -0.98308 -0.183177 0
    outer loop
      vertex -12.6869 -11.0237 3
      vertex -12.5675 -11.6645 0
      vertex -12.5675 -11.6645 3
    endloop
  endfacet
  facet normal -0.966921 -0.255075 0
    outer loop
      vertex -12.4036 -12.2858 0
      vertex -12.5675 -11.6645 3
      vertex -12.5675 -11.6645 0
    endloop
  endfacet
  facet normal -0.966921 -0.255075 0
    outer loop
      vertex -12.5675 -11.6645 3
      vertex -12.4036 -12.2858 0
      vertex -12.4036 -12.2858 3
    endloop
  endfacet
  facet normal -0.945581 -0.325388 0
    outer loop
      vertex -12.1972 -12.8856 0
      vertex -12.4036 -12.2858 3
      vertex -12.4036 -12.2858 0
    endloop
  endfacet
  facet normal -0.945581 -0.325388 0
    outer loop
      vertex -12.4036 -12.2858 3
      vertex -12.1972 -12.8856 0
      vertex -12.1972 -12.8856 3
    endloop
  endfacet
  facet normal -0.919029 -0.394189 0
    outer loop
      vertex -11.9501 -13.4617 0
      vertex -12.1972 -12.8856 3
      vertex -12.1972 -12.8856 0
    endloop
  endfacet
  facet normal -0.919029 -0.394189 0
    outer loop
      vertex -12.1972 -12.8856 3
      vertex -11.9501 -13.4617 0
      vertex -11.9501 -13.4617 3
    endloop
  endfacet
  facet normal -0.88742 -0.460962 0
    outer loop
      vertex -11.6642 -14.0121 0
      vertex -11.9501 -13.4617 3
      vertex -11.9501 -13.4617 0
    endloop
  endfacet
  facet normal -0.88742 -0.460962 0
    outer loop
      vertex -11.9501 -13.4617 3
      vertex -11.6642 -14.0121 0
      vertex -11.6642 -14.0121 3
    endloop
  endfacet
  facet normal -0.850858 -0.525396 0
    outer loop
      vertex -11.3415 -14.5347 0
      vertex -11.6642 -14.0121 3
      vertex -11.6642 -14.0121 0
    endloop
  endfacet
  facet normal -0.850858 -0.525396 0
    outer loop
      vertex -11.6642 -14.0121 3
      vertex -11.3415 -14.5347 0
      vertex -11.3415 -14.5347 3
    endloop
  endfacet
  facet normal -0.809226 -0.587498 0
    outer loop
      vertex -10.9838 -15.0274 0
      vertex -11.3415 -14.5347 3
      vertex -11.3415 -14.5347 0
    endloop
  endfacet
  facet normal -0.809226 -0.587498 0
    outer loop
      vertex -11.3415 -14.5347 3
      vertex -10.9838 -15.0274 0
      vertex -10.9838 -15.0274 3
    endloop
  endfacet
  facet normal -0.762588 -0.646884 0
    outer loop
      vertex -10.593 -15.4881 0
      vertex -10.9838 -15.0274 3
      vertex -10.9838 -15.0274 0
    endloop
  endfacet
  facet normal -0.762588 -0.646884 0
    outer loop
      vertex -10.9838 -15.0274 3
      vertex -10.593 -15.4881 0
      vertex -10.593 -15.4881 3
    endloop
  endfacet
  facet normal -0.711177 -0.703013 0
    outer loop
      vertex -10.1711 -15.9149 0
      vertex -10.593 -15.4881 3
      vertex -10.593 -15.4881 0
    endloop
  endfacet
  facet normal -0.711177 -0.703013 0
    outer loop
      vertex -10.593 -15.4881 3
      vertex -10.1711 -15.9149 0
      vertex -10.1711 -15.9149 3
    endloop
  endfacet
  facet normal -0.654567 -0.756004 0
    outer loop
      vertex -10.1711 -15.9149 0
      vertex -9.71997 -16.3055 3
      vertex -10.1711 -15.9149 3
    endloop
  endfacet
  facet normal -0.654567 -0.756004 -0
    outer loop
      vertex -9.71997 -16.3055 3
      vertex -10.1711 -15.9149 0
      vertex -9.71997 -16.3055 0
    endloop
  endfacet
  facet normal -0.59298 -0.805217 0
    outer loop
      vertex -9.71997 -16.3055 0
      vertex -9.24144 -16.6579 3
      vertex -9.71997 -16.3055 3
    endloop
  endfacet
  facet normal -0.59298 -0.805217 -0
    outer loop
      vertex -9.24144 -16.6579 3
      vertex -9.71997 -16.3055 0
      vertex -9.24144 -16.6579 0
    endloop
  endfacet
  facet normal -0.526614 -0.850105 0
    outer loop
      vertex -9.24144 -16.6579 0
      vertex -8.73746 -16.9701 3
      vertex -9.24144 -16.6579 3
    endloop
  endfacet
  facet normal -0.526614 -0.850105 -0
    outer loop
      vertex -8.73746 -16.9701 3
      vertex -9.24144 -16.6579 0
      vertex -8.73746 -16.9701 0
    endloop
  endfacet
  facet normal -0.45547 -0.890251 0
    outer loop
      vertex -8.73746 -16.9701 0
      vertex -8.20992 -17.24 3
      vertex -8.73746 -16.9701 3
    endloop
  endfacet
  facet normal -0.45547 -0.890251 -0
    outer loop
      vertex -8.20992 -17.24 3
      vertex -8.73746 -16.9701 0
      vertex -8.20992 -17.24 0
    endloop
  endfacet
  facet normal -0.379682 -0.925117 0
    outer loop
      vertex -8.20992 -17.24 0
      vertex -7.66072 -17.4654 3
      vertex -8.20992 -17.24 3
    endloop
  endfacet
  facet normal -0.379682 -0.925117 -0
    outer loop
      vertex -7.66072 -17.4654 3
      vertex -8.20992 -17.24 0
      vertex -7.66072 -17.4654 0
    endloop
  endfacet
  facet normal -0.300117 -0.953902 0
    outer loop
      vertex -7.66072 -17.4654 0
      vertex -7.09178 -17.6444 3
      vertex -7.66072 -17.4654 3
    endloop
  endfacet
  facet normal -0.300117 -0.953902 -0
    outer loop
      vertex -7.09178 -17.6444 3
      vertex -7.66072 -17.4654 0
      vertex -7.09178 -17.6444 0
    endloop
  endfacet
  facet normal -0.216927 -0.976188 0
    outer loop
      vertex -7.09178 -17.6444 0
      vertex -6.50497 -17.7748 3
      vertex -7.09178 -17.6444 3
    endloop
  endfacet
  facet normal -0.216927 -0.976188 -0
    outer loop
      vertex -6.50497 -17.7748 3
      vertex -7.09178 -17.6444 0
      vertex -6.50497 -17.7748 0
    endloop
  endfacet
  facet normal -0.131248 -0.99135 0
    outer loop
      vertex -6.50497 -17.7748 0
      vertex -5.90222 -17.8546 3
      vertex -6.50497 -17.7748 3
    endloop
  endfacet
  facet normal -0.131248 -0.99135 -0
    outer loop
      vertex -5.90222 -17.8546 3
      vertex -6.50497 -17.7748 0
      vertex -5.90222 -17.8546 0
    endloop
  endfacet
  facet normal -0.0437324 -0.999043 0
    outer loop
      vertex -5.90222 -17.8546 0
      vertex -5.28542 -17.8816 3
      vertex -5.90222 -17.8546 3
    endloop
  endfacet
  facet normal -0.0437324 -0.999043 -0
    outer loop
      vertex -5.28542 -17.8816 3
      vertex -5.90222 -17.8546 0
      vertex -5.28542 -17.8816 0
    endloop
  endfacet
  facet normal 0.0345797 -0.999402 0
    outer loop
      vertex -5.28542 -17.8816 0
      vertex -4.66693 -17.8602 3
      vertex -5.28542 -17.8816 3
    endloop
  endfacet
  facet normal 0.0345797 -0.999402 0
    outer loop
      vertex -4.66693 -17.8602 3
      vertex -5.28542 -17.8816 0
      vertex -4.66693 -17.8602 0
    endloop
  endfacet
  facet normal 0.121205 0.992628 -0
    outer loop
      vertex -5.5367 12.9902 0
      vertex -5.78239 13.0202 3
      vertex -5.5367 12.9902 3
    endloop
  endfacet
  facet normal 0.121205 0.992628 0
    outer loop
      vertex -5.78239 13.0202 3
      vertex -5.5367 12.9902 0
      vertex -5.78239 13.0202 0
    endloop
  endfacet
  facet normal 0.200201 0.979755 -0
    outer loop
      vertex -5.78239 13.0202 0
      vertex -6.0217 13.0691 3
      vertex -5.78239 13.0202 3
    endloop
  endfacet
  facet normal 0.200201 0.979755 0
    outer loop
      vertex -6.0217 13.0691 3
      vertex -5.78239 13.0202 0
      vertex -6.0217 13.0691 0
    endloop
  endfacet
  facet normal 0.278075 0.960559 -0
    outer loop
      vertex -6.0217 13.0691 0
      vertex -6.25383 13.1363 3
      vertex -6.0217 13.0691 3
    endloop
  endfacet
  facet normal 0.278075 0.960559 0
    outer loop
      vertex -6.25383 13.1363 3
      vertex -6.0217 13.0691 0
      vertex -6.25383 13.1363 0
    endloop
  endfacet
  facet normal 0.353071 0.935597 -0
    outer loop
      vertex -6.25383 13.1363 0
      vertex -6.47801 13.2209 3
      vertex -6.25383 13.1363 3
    endloop
  endfacet
  facet normal 0.353071 0.935597 0
    outer loop
      vertex -6.47801 13.2209 3
      vertex -6.25383 13.1363 0
      vertex -6.47801 13.2209 0
    endloop
  endfacet
  facet normal 0.425182 0.905108 -0
    outer loop
      vertex -6.47801 13.2209 0
      vertex -6.69344 13.3221 3
      vertex -6.47801 13.2209 3
    endloop
  endfacet
  facet normal 0.425182 0.905108 0
    outer loop
      vertex -6.69344 13.3221 3
      vertex -6.47801 13.2209 0
      vertex -6.69344 13.3221 0
    endloop
  endfacet
  facet normal 0.494082 0.869415 -0
    outer loop
      vertex -6.69344 13.3221 0
      vertex -6.89932 13.4391 3
      vertex -6.69344 13.3221 3
    endloop
  endfacet
  facet normal 0.494082 0.869415 0
    outer loop
      vertex -6.89932 13.4391 3
      vertex -6.69344 13.3221 0
      vertex -6.89932 13.4391 0
    endloop
  endfacet
  facet normal 0.559736 0.828671 -0
    outer loop
      vertex -6.89932 13.4391 0
      vertex -7.09489 13.5712 3
      vertex -6.89932 13.4391 3
    endloop
  endfacet
  facet normal 0.559736 0.828671 0
    outer loop
      vertex -7.09489 13.5712 3
      vertex -6.89932 13.4391 0
      vertex -7.09489 13.5712 0
    endloop
  endfacet
  facet normal 0.621687 0.783266 -0
    outer loop
      vertex -7.09489 13.5712 0
      vertex -7.27934 13.7176 3
      vertex -7.09489 13.5712 3
    endloop
  endfacet
  facet normal 0.621687 0.783266 0
    outer loop
      vertex -7.27934 13.7176 3
      vertex -7.09489 13.5712 0
      vertex -7.27934 13.7176 0
    endloop
  endfacet
  facet normal 0.679709 0.733482 -0
    outer loop
      vertex -7.27934 13.7176 0
      vertex -7.45189 13.8775 3
      vertex -7.27934 13.7176 3
    endloop
  endfacet
  facet normal 0.679709 0.733482 0
    outer loop
      vertex -7.45189 13.8775 3
      vertex -7.27934 13.7176 0
      vertex -7.45189 13.8775 0
    endloop
  endfacet
  facet normal 0.733447 0.679746 0
    outer loop
      vertex -7.45189 13.8775 3
      vertex -7.61176 14.05 0
      vertex -7.61176 14.05 3
    endloop
  endfacet
  facet normal 0.733447 0.679746 0
    outer loop
      vertex -7.61176 14.05 0
      vertex -7.45189 13.8775 3
      vertex -7.45189 13.8775 0
    endloop
  endfacet
  facet normal 0.78341 0.621505 0
    outer loop
      vertex -7.61176 14.05 3
      vertex -7.75813 14.2345 0
      vertex -7.75813 14.2345 3
    endloop
  endfacet
  facet normal 0.78341 0.621505 0
    outer loop
      vertex -7.75813 14.2345 0
      vertex -7.61176 14.05 3
      vertex -7.61176 14.05 0
    endloop
  endfacet
  facet normal 0.828559 0.559902 0
    outer loop
      vertex -7.75813 14.2345 3
      vertex -7.89024 14.43 0
      vertex -7.89024 14.43 3
    endloop
  endfacet
  facet normal 0.828559 0.559902 0
    outer loop
      vertex -7.89024 14.43 0
      vertex -7.75813 14.2345 3
      vertex -7.75813 14.2345 0
    endloop
  endfacet
  facet normal 0.869345 0.494205 0
    outer loop
      vertex -7.89024 14.43 3
      vertex -8.00729 14.6359 0
      vertex -8.00729 14.6359 3
    endloop
  endfacet
  facet normal 0.869345 0.494205 0
    outer loop
      vertex -8.00729 14.6359 0
      vertex -7.89024 14.43 3
      vertex -7.89024 14.43 0
    endloop
  endfacet
  facet normal 0.905129 0.425138 0
    outer loop
      vertex -8.00729 14.6359 3
      vertex -8.10851 14.8514 0
      vertex -8.10851 14.8514 3
    endloop
  endfacet
  facet normal 0.905129 0.425138 0
    outer loop
      vertex -8.10851 14.8514 0
      vertex -8.00729 14.6359 3
      vertex -8.00729 14.6359 0
    endloop
  endfacet
  facet normal 0.935596 0.353072 0
    outer loop
      vertex -8.10851 14.8514 3
      vertex -8.19308 15.0755 0
      vertex -8.19308 15.0755 3
    endloop
  endfacet
  facet normal 0.935596 0.353072 0
    outer loop
      vertex -8.19308 15.0755 0
      vertex -8.10851 14.8514 3
      vertex -8.10851 14.8514 0
    endloop
  endfacet
  facet normal 0.960615 0.277883 0
    outer loop
      vertex -8.19308 15.0755 3
      vertex -8.26025 15.3077 0
      vertex -8.26025 15.3077 3
    endloop
  endfacet
  facet normal 0.960615 0.277883 0
    outer loop
      vertex -8.26025 15.3077 0
      vertex -8.19308 15.0755 3
      vertex -8.19308 15.0755 0
    endloop
  endfacet
  facet normal 0.979713 0.200405 0
    outer loop
      vertex -8.26025 15.3077 3
      vertex -8.3092 15.547 0
      vertex -8.3092 15.547 3
    endloop
  endfacet
  facet normal 0.979713 0.200405 0
    outer loop
      vertex -8.3092 15.547 0
      vertex -8.26025 15.3077 3
      vertex -8.26025 15.3077 0
    endloop
  endfacet
  facet normal 0.992657 0.120961 0
    outer loop
      vertex -8.3092 15.547 3
      vertex -8.33914 15.7927 0
      vertex -8.33914 15.7927 3
    endloop
  endfacet
  facet normal 0.992657 0.120961 0
    outer loop
      vertex -8.33914 15.7927 0
      vertex -8.3092 15.547 3
      vertex -8.3092 15.547 0
    endloop
  endfacet
  facet normal 0.99918 0.0404922 0
    outer loop
      vertex -8.33914 15.7927 3
      vertex -8.34932 16.0439 0
      vertex -8.34932 16.0439 3
    endloop
  endfacet
  facet normal 0.99918 0.0404922 0
    outer loop
      vertex -8.34932 16.0439 0
      vertex -8.33914 15.7927 3
      vertex -8.33914 15.7927 0
    endloop
  endfacet
  facet normal 0.999181 -0.0404762 0
    outer loop
      vertex -8.34932 16.0439 3
      vertex -8.33914 16.2952 0
      vertex -8.33914 16.2952 3
    endloop
  endfacet
  facet normal 0.999181 -0.0404762 0
    outer loop
      vertex -8.33914 16.2952 0
      vertex -8.34932 16.0439 3
      vertex -8.34932 16.0439 0
    endloop
  endfacet
  facet normal 0.992652 -0.121001 0
    outer loop
      vertex -8.33914 16.2952 3
      vertex -8.30919 16.5409 0
      vertex -8.30919 16.5409 3
    endloop
  endfacet
  facet normal 0.992652 -0.121001 0
    outer loop
      vertex -8.30919 16.5409 0
      vertex -8.33914 16.2952 3
      vertex -8.33914 16.2952 0
    endloop
  endfacet
  facet normal 0.979721 -0.200366 0
    outer loop
      vertex -8.30919 16.5409 3
      vertex -8.26025 16.7802 0
      vertex -8.26025 16.7802 3
    endloop
  endfacet
  facet normal 0.979721 -0.200366 0
    outer loop
      vertex -8.26025 16.7802 0
      vertex -8.30919 16.5409 3
      vertex -8.30919 16.5409 0
    endloop
  endfacet
  facet normal 0.960615 -0.277883 0
    outer loop
      vertex -8.26025 16.7802 3
      vertex -8.19308 17.0124 0
      vertex -8.19308 17.0124 3
    endloop
  endfacet
  facet normal 0.960615 -0.277883 0
    outer loop
      vertex -8.19308 17.0124 0
      vertex -8.26025 16.7802 3
      vertex -8.26025 16.7802 0
    endloop
  endfacet
  facet normal 0.935596 -0.353072 0
    outer loop
      vertex -8.19308 17.0124 3
      vertex -8.10851 17.2365 0
      vertex -8.10851 17.2365 3
    endloop
  endfacet
  facet normal 0.935596 -0.353072 0
    outer loop
      vertex -8.10851 17.2365 0
      vertex -8.19308 17.0124 3
      vertex -8.19308 17.0124 0
    endloop
  endfacet
  facet normal 0.905129 -0.425138 0
    outer loop
      vertex -8.10851 17.2365 3
      vertex -8.00729 17.452 0
      vertex -8.00729 17.452 3
    endloop
  endfacet
  facet normal 0.905129 -0.425138 0
    outer loop
      vertex -8.00729 17.452 0
      vertex -8.10851 17.2365 3
      vertex -8.10851 17.2365 0
    endloop
  endfacet
  facet normal 0.869345 -0.494205 0
    outer loop
      vertex -8.00729 17.452 3
      vertex -7.89024 17.6579 0
      vertex -7.89024 17.6579 3
    endloop
  endfacet
  facet normal 0.869345 -0.494205 0
    outer loop
      vertex -7.89024 17.6579 0
      vertex -8.00729 17.452 3
      vertex -8.00729 17.452 0
    endloop
  endfacet
  facet normal 0.828559 -0.559902 0
    outer loop
      vertex -7.89024 17.6579 3
      vertex -7.75813 17.8534 0
      vertex -7.75813 17.8534 3
    endloop
  endfacet
  facet normal 0.828559 -0.559902 0
    outer loop
      vertex -7.75813 17.8534 0
      vertex -7.89024 17.6579 3
      vertex -7.89024 17.6579 0
    endloop
  endfacet
  facet normal 0.783369 -0.621557 0
    outer loop
      vertex -7.75813 17.8534 3
      vertex -7.61174 18.0379 0
      vertex -7.61174 18.0379 3
    endloop
  endfacet
  facet normal 0.783369 -0.621557 0
    outer loop
      vertex -7.61174 18.0379 0
      vertex -7.75813 17.8534 3
      vertex -7.75813 17.8534 0
    endloop
  endfacet
  facet normal 0.73349 -0.679701 0
    outer loop
      vertex -7.61174 18.0379 3
      vertex -7.45189 18.2104 0
      vertex -7.45189 18.2104 3
    endloop
  endfacet
  facet normal 0.73349 -0.679701 0
    outer loop
      vertex -7.45189 18.2104 0
      vertex -7.61174 18.0379 3
      vertex -7.61174 18.0379 0
    endloop
  endfacet
  facet normal 0.679709 -0.733482 0
    outer loop
      vertex -7.45189 18.2104 0
      vertex -7.27934 18.3703 3
      vertex -7.45189 18.2104 3
    endloop
  endfacet
  facet normal 0.679709 -0.733482 0
    outer loop
      vertex -7.27934 18.3703 3
      vertex -7.45189 18.2104 0
      vertex -7.27934 18.3703 0
    endloop
  endfacet
  facet normal 0.621666 -0.783282 0
    outer loop
      vertex -7.27934 18.3703 0
      vertex -7.09488 18.5167 3
      vertex -7.27934 18.3703 3
    endloop
  endfacet
  facet normal 0.621666 -0.783282 0
    outer loop
      vertex -7.09488 18.5167 3
      vertex -7.27934 18.3703 0
      vertex -7.09488 18.5167 0
    endloop
  endfacet
  facet normal 0.559755 -0.828658 0
    outer loop
      vertex -7.09488 18.5167 0
      vertex -6.89932 18.6488 3
      vertex -7.09488 18.5167 3
    endloop
  endfacet
  facet normal 0.559755 -0.828658 0
    outer loop
      vertex -6.89932 18.6488 3
      vertex -7.09488 18.5167 0
      vertex -6.89932 18.6488 0
    endloop
  endfacet
  facet normal 0.494082 -0.869415 0
    outer loop
      vertex -6.89932 18.6488 0
      vertex -6.69344 18.7658 3
      vertex -6.89932 18.6488 3
    endloop
  endfacet
  facet normal 0.494082 -0.869415 0
    outer loop
      vertex -6.69344 18.7658 3
      vertex -6.89932 18.6488 0
      vertex -6.69344 18.7658 0
    endloop
  endfacet
  facet normal 0.425526 -0.904946 0
    outer loop
      vertex -6.69344 18.7658 0
      vertex -6.47801 18.8671 3
      vertex -6.69344 18.7658 3
    endloop
  endfacet
  facet normal 0.425526 -0.904946 0
    outer loop
      vertex -6.47801 18.8671 3
      vertex -6.69344 18.7658 0
      vertex -6.47801 18.8671 0
    endloop
  endfacet
  facet normal 0.352706 -0.935734 0
    outer loop
      vertex -6.47801 18.8671 0
      vertex -6.25383 18.9516 3
      vertex -6.47801 18.8671 3
    endloop
  endfacet
  facet normal 0.352706 -0.935734 0
    outer loop
      vertex -6.25383 18.9516 3
      vertex -6.47801 18.8671 0
      vertex -6.25383 18.9516 0
    endloop
  endfacet
  facet normal 0.278075 -0.960559 0
    outer loop
      vertex -6.25383 18.9516 0
      vertex -6.0217 19.0188 3
      vertex -6.25383 18.9516 3
    endloop
  endfacet
  facet normal 0.278075 -0.960559 0
    outer loop
      vertex -6.0217 19.0188 3
      vertex -6.25383 18.9516 0
      vertex -6.0217 19.0188 0
    endloop
  endfacet
  facet normal 0.200201 -0.979755 0
    outer loop
      vertex -6.0217 19.0188 0
      vertex -5.78239 19.0677 3
      vertex -6.0217 19.0188 3
    endloop
  endfacet
  facet normal 0.200201 -0.979755 0
    outer loop
      vertex -5.78239 19.0677 3
      vertex -6.0217 19.0188 0
      vertex -5.78239 19.0677 0
    endloop
  endfacet
  facet normal 0.121205 -0.992628 0
    outer loop
      vertex -5.78239 19.0677 0
      vertex -5.5367 19.0977 3
      vertex -5.78239 19.0677 3
    endloop
  endfacet
  facet normal 0.121205 -0.992628 0
    outer loop
      vertex -5.5367 19.0977 3
      vertex -5.78239 19.0677 0
      vertex -5.5367 19.0977 0
    endloop
  endfacet
  facet normal 0.0401618 -0.999193 0
    outer loop
      vertex -5.5367 19.0977 0
      vertex -5.28542 19.1078 3
      vertex -5.5367 19.0977 3
    endloop
  endfacet
  facet normal 0.0401618 -0.999193 0
    outer loop
      vertex -5.28542 19.1078 3
      vertex -5.5367 19.0977 0
      vertex -5.28542 19.1078 0
    endloop
  endfacet
  facet normal -0.0401602 -0.999193 0
    outer loop
      vertex -5.28542 19.1078 0
      vertex -5.03413 19.0977 3
      vertex -5.28542 19.1078 3
    endloop
  endfacet
  facet normal -0.0401602 -0.999193 -0
    outer loop
      vertex -5.03413 19.0977 3
      vertex -5.28542 19.1078 0
      vertex -5.03413 19.0977 0
    endloop
  endfacet
  facet normal -0.121205 -0.992628 0
    outer loop
      vertex -5.03413 19.0977 0
      vertex -4.78844 19.0677 3
      vertex -5.03413 19.0977 3
    endloop
  endfacet
  facet normal -0.121205 -0.992628 -0
    outer loop
      vertex -4.78844 19.0677 3
      vertex -5.03413 19.0977 0
      vertex -4.78844 19.0677 0
    endloop
  endfacet
  facet normal -0.200201 -0.979755 0
    outer loop
      vertex -4.78844 19.0677 0
      vertex -4.54913 19.0188 3
      vertex -4.78844 19.0677 3
    endloop
  endfacet
  facet normal -0.200201 -0.979755 -0
    outer loop
      vertex -4.54913 19.0188 3
      vertex -4.78844 19.0677 0
      vertex -4.54913 19.0188 0
    endloop
  endfacet
  facet normal -0.278075 -0.960559 0
    outer loop
      vertex -4.54913 19.0188 0
      vertex -4.317 18.9516 3
      vertex -4.54913 19.0188 3
    endloop
  endfacet
  facet normal -0.278075 -0.960559 -0
    outer loop
      vertex -4.317 18.9516 3
      vertex -4.54913 19.0188 0
      vertex -4.317 18.9516 0
    endloop
  endfacet
  facet normal -0.352719 -0.935729 0
    outer loop
      vertex -4.317 18.9516 0
      vertex -4.09283 18.8671 3
      vertex -4.317 18.9516 3
    endloop
  endfacet
  facet normal -0.352719 -0.935729 -0
    outer loop
      vertex -4.09283 18.8671 3
      vertex -4.317 18.9516 0
      vertex -4.09283 18.8671 0
    endloop
  endfacet
  facet normal -0.425526 -0.904946 0
    outer loop
      vertex -4.09283 18.8671 0
      vertex -3.8774 18.7658 3
      vertex -4.09283 18.8671 3
    endloop
  endfacet
  facet normal -0.425526 -0.904946 -0
    outer loop
      vertex -3.8774 18.7658 3
      vertex -4.09283 18.8671 0
      vertex -3.8774 18.7658 0
    endloop
  endfacet
  facet normal -0.494064 -0.869426 0
    outer loop
      vertex -3.8774 18.7658 0
      vertex -3.67151 18.6488 3
      vertex -3.8774 18.7658 3
    endloop
  endfacet
  facet normal -0.494064 -0.869426 -0
    outer loop
      vertex -3.67151 18.6488 3
      vertex -3.8774 18.7658 0
      vertex -3.67151 18.6488 0
    endloop
  endfacet
  facet normal -0.559755 -0.828658 0
    outer loop
      vertex -3.67151 18.6488 0
      vertex -3.47595 18.5167 3
      vertex -3.67151 18.6488 3
    endloop
  endfacet
  facet normal -0.559755 -0.828658 -0
    outer loop
      vertex -3.47595 18.5167 3
      vertex -3.67151 18.6488 0
      vertex -3.47595 18.5167 0
    endloop
  endfacet
  facet normal -0.621666 -0.783282 0
    outer loop
      vertex -3.47595 18.5167 0
      vertex -3.29149 18.3703 3
      vertex -3.47595 18.5167 3
    endloop
  endfacet
  facet normal -0.621666 -0.783282 -0
    outer loop
      vertex -3.29149 18.3703 3
      vertex -3.47595 18.5167 0
      vertex -3.29149 18.3703 0
    endloop
  endfacet
  facet normal -0.679709 -0.733482 0
    outer loop
      vertex -3.29149 18.3703 0
      vertex -3.11894 18.2104 3
      vertex -3.29149 18.3703 3
    endloop
  endfacet
  facet normal -0.679709 -0.733482 -0
    outer loop
      vertex -3.11894 18.2104 3
      vertex -3.29149 18.3703 0
      vertex -3.11894 18.2104 0
    endloop
  endfacet
  facet normal -0.73349 -0.679701 0
    outer loop
      vertex -2.95909 18.0379 0
      vertex -3.11894 18.2104 3
      vertex -3.11894 18.2104 0
    endloop
  endfacet
  facet normal -0.73349 -0.679701 0
    outer loop
      vertex -3.11894 18.2104 3
      vertex -2.95909 18.0379 0
      vertex -2.95909 18.0379 3
    endloop
  endfacet
  facet normal -0.783389 -0.621531 0
    outer loop
      vertex -2.81271 17.8534 0
      vertex -2.95909 18.0379 3
      vertex -2.95909 18.0379 0
    endloop
  endfacet
  facet normal -0.783389 -0.621531 0
    outer loop
      vertex -2.95909 18.0379 3
      vertex -2.81271 17.8534 0
      vertex -2.81271 17.8534 3
    endloop
  endfacet
  facet normal -0.828539 -0.559931 0
    outer loop
      vertex -2.68059 17.6579 0
      vertex -2.81271 17.8534 3
      vertex -2.81271 17.8534 0
    endloop
  endfacet
  facet normal -0.828539 -0.559931 0
    outer loop
      vertex -2.81271 17.8534 3
      vertex -2.68059 17.6579 0
      vertex -2.68059 17.6579 3
    endloop
  endfacet
  facet normal -0.869345 -0.494205 0
    outer loop
      vertex -2.56354 17.452 0
      vertex -2.68059 17.6579 3
      vertex -2.68059 17.6579 0
    endloop
  endfacet
  facet normal -0.869345 -0.494205 0
    outer loop
      vertex -2.68059 17.6579 3
      vertex -2.56354 17.452 0
      vertex -2.56354 17.452 3
    endloop
  endfacet
  facet normal -0.905145 -0.425103 0
    outer loop
      vertex -2.46233 17.2365 0
      vertex -2.56354 17.452 3
      vertex -2.56354 17.452 0
    endloop
  endfacet
  facet normal -0.905145 -0.425103 0
    outer loop
      vertex -2.56354 17.452 3
      vertex -2.46233 17.2365 0
      vertex -2.46233 17.2365 3
    endloop
  endfacet
  facet normal -0.935582 -0.353108 0
    outer loop
      vertex -2.37775 17.0124 0
      vertex -2.46233 17.2365 3
      vertex -2.46233 17.2365 0
    endloop
  endfacet
  facet normal -0.935582 -0.353108 0
    outer loop
      vertex -2.46233 17.2365 3
      vertex -2.37775 17.0124 0
      vertex -2.37775 17.0124 3
    endloop
  endfacet
  facet normal -0.960626 -0.277845 0
    outer loop
      vertex -2.31059 16.7802 0
      vertex -2.37775 17.0124 3
      vertex -2.37775 17.0124 0
    endloop
  endfacet
  facet normal -0.960626 -0.277845 0
    outer loop
      vertex -2.37775 17.0124 3
      vertex -2.31059 16.7802 0
      vertex -2.31059 16.7802 3
    endloop
  endfacet
  facet normal -0.979713 -0.200405 0
    outer loop
      vertex -2.26164 16.5409 0
      vertex -2.31059 16.7802 3
      vertex -2.31059 16.7802 0
    endloop
  endfacet
  facet normal -0.979713 -0.200405 0
    outer loop
      vertex -2.31059 16.7802 3
      vertex -2.26164 16.5409 0
      vertex -2.26164 16.5409 3
    endloop
  endfacet
  facet normal -0.992652 -0.121001 0
    outer loop
      vertex -2.23169 16.2952 0
      vertex -2.26164 16.5409 3
      vertex -2.26164 16.5409 0
    endloop
  endfacet
  facet normal -0.992652 -0.121001 0
    outer loop
      vertex -2.26164 16.5409 3
      vertex -2.23169 16.2952 0
      vertex -2.23169 16.2952 3
    endloop
  endfacet
  facet normal -0.999184 -0.0403968 0
    outer loop
      vertex -2.22153 16.0439 0
      vertex -2.23169 16.2952 3
      vertex -2.23169 16.2952 0
    endloop
  endfacet
  facet normal -0.999184 -0.0403968 0
    outer loop
      vertex -2.23169 16.2952 3
      vertex -2.22153 16.0439 0
      vertex -2.22153 16.0439 3
    endloop
  endfacet
  facet normal -0.999183 0.0404128 0
    outer loop
      vertex -2.23169 15.7927 0
      vertex -2.22153 16.0439 3
      vertex -2.22153 16.0439 0
    endloop
  endfacet
  facet normal -0.999183 0.0404128 0
    outer loop
      vertex -2.22153 16.0439 3
      vertex -2.23169 15.7927 0
      vertex -2.23169 15.7927 3
    endloop
  endfacet
  facet normal -0.992657 0.120961 0
    outer loop
      vertex -2.26163 15.547 0
      vertex -2.23169 15.7927 3
      vertex -2.23169 15.7927 0
    endloop
  endfacet
  facet normal -0.992657 0.120961 0
    outer loop
      vertex -2.23169 15.7927 3
      vertex -2.26163 15.547 0
      vertex -2.26163 15.547 3
    endloop
  endfacet
  facet normal -0.979713 0.200405 0
    outer loop
      vertex -2.31058 15.3077 0
      vertex -2.26163 15.547 3
      vertex -2.26163 15.547 0
    endloop
  endfacet
  facet normal -0.979713 0.200405 0
    outer loop
      vertex -2.26163 15.547 3
      vertex -2.31058 15.3077 0
      vertex -2.31058 15.3077 3
    endloop
  endfacet
  facet normal -0.960615 0.277883 0
    outer loop
      vertex -2.37775 15.0755 0
      vertex -2.31058 15.3077 3
      vertex -2.31058 15.3077 0
    endloop
  endfacet
  facet normal -0.960615 0.277883 0
    outer loop
      vertex -2.31058 15.3077 3
      vertex -2.37775 15.0755 0
      vertex -2.37775 15.0755 3
    endloop
  endfacet
  facet normal -0.935582 0.353108 0
    outer loop
      vertex -2.46233 14.8514 0
      vertex -2.37775 15.0755 3
      vertex -2.37775 15.0755 0
    endloop
  endfacet
  facet normal -0.935582 0.353108 0
    outer loop
      vertex -2.37775 15.0755 3
      vertex -2.46233 14.8514 0
      vertex -2.46233 14.8514 3
    endloop
  endfacet
  facet normal -0.905145 0.425103 0
    outer loop
      vertex -2.56354 14.6359 0
      vertex -2.46233 14.8514 3
      vertex -2.46233 14.8514 0
    endloop
  endfacet
  facet normal -0.905145 0.425103 0
    outer loop
      vertex -2.46233 14.8514 3
      vertex -2.56354 14.6359 0
      vertex -2.56354 14.6359 3
    endloop
  endfacet
  facet normal -0.869345 0.494205 0
    outer loop
      vertex -2.68059 14.43 0
      vertex -2.56354 14.6359 3
      vertex -2.56354 14.6359 0
    endloop
  endfacet
  facet normal -0.869345 0.494205 0
    outer loop
      vertex -2.56354 14.6359 3
      vertex -2.68059 14.43 0
      vertex -2.68059 14.43 3
    endloop
  endfacet
  facet normal -0.828559 0.559902 0
    outer loop
      vertex -2.8127 14.2345 0
      vertex -2.68059 14.43 3
      vertex -2.68059 14.43 0
    endloop
  endfacet
  facet normal -0.828559 0.559902 0
    outer loop
      vertex -2.68059 14.43 3
      vertex -2.8127 14.2345 0
      vertex -2.8127 14.2345 3
    endloop
  endfacet
  facet normal -0.783389 0.621531 0
    outer loop
      vertex -2.95908 14.05 0
      vertex -2.8127 14.2345 3
      vertex -2.8127 14.2345 0
    endloop
  endfacet
  facet normal -0.783389 0.621531 0
    outer loop
      vertex -2.8127 14.2345 3
      vertex -2.95908 14.05 0
      vertex -2.95908 14.05 3
    endloop
  endfacet
  facet normal -0.733469 0.679723 0
    outer loop
      vertex -3.11894 13.8775 0
      vertex -2.95908 14.05 3
      vertex -2.95908 14.05 0
    endloop
  endfacet
  facet normal -0.733469 0.679723 0
    outer loop
      vertex -2.95908 14.05 3
      vertex -3.11894 13.8775 0
      vertex -3.11894 13.8775 3
    endloop
  endfacet
  facet normal -0.679709 0.733482 0
    outer loop
      vertex -3.11894 13.8775 0
      vertex -3.29149 13.7176 3
      vertex -3.11894 13.8775 3
    endloop
  endfacet
  facet normal -0.679709 0.733482 0
    outer loop
      vertex -3.29149 13.7176 3
      vertex -3.11894 13.8775 0
      vertex -3.29149 13.7176 0
    endloop
  endfacet
  facet normal -0.621687 0.783266 0
    outer loop
      vertex -3.29149 13.7176 0
      vertex -3.47594 13.5712 3
      vertex -3.29149 13.7176 3
    endloop
  endfacet
  facet normal -0.621687 0.783266 0
    outer loop
      vertex -3.47594 13.5712 3
      vertex -3.29149 13.7176 0
      vertex -3.47594 13.5712 0
    endloop
  endfacet
  facet normal -0.559736 0.828671 0
    outer loop
      vertex -3.47594 13.5712 0
      vertex -3.67151 13.4391 3
      vertex -3.47594 13.5712 3
    endloop
  endfacet
  facet normal -0.559736 0.828671 0
    outer loop
      vertex -3.67151 13.4391 3
      vertex -3.47594 13.5712 0
      vertex -3.67151 13.4391 0
    endloop
  endfacet
  facet normal -0.494064 0.869426 0
    outer loop
      vertex -3.67151 13.4391 0
      vertex -3.8774 13.3221 3
      vertex -3.67151 13.4391 3
    endloop
  endfacet
  facet normal -0.494064 0.869426 0
    outer loop
      vertex -3.8774 13.3221 3
      vertex -3.67151 13.4391 0
      vertex -3.8774 13.3221 0
    endloop
  endfacet
  facet normal -0.425198 0.9051 0
    outer loop
      vertex -3.8774 13.3221 0
      vertex -4.09282 13.2209 3
      vertex -3.8774 13.3221 3
    endloop
  endfacet
  facet normal -0.425198 0.9051 0
    outer loop
      vertex -4.09282 13.2209 3
      vertex -3.8774 13.3221 0
      vertex -4.09282 13.2209 0
    endloop
  endfacet
  facet normal -0.353071 0.935597 0
    outer loop
      vertex -4.09282 13.2209 0
      vertex -4.317 13.1363 3
      vertex -4.09282 13.2209 3
    endloop
  endfacet
  facet normal -0.353071 0.935597 0
    outer loop
      vertex -4.317 13.1363 3
      vertex -4.09282 13.2209 0
      vertex -4.317 13.1363 0
    endloop
  endfacet
  facet normal -0.278075 0.960559 0
    outer loop
      vertex -4.317 13.1363 0
      vertex -4.54913 13.0691 3
      vertex -4.317 13.1363 3
    endloop
  endfacet
  facet normal -0.278075 0.960559 0
    outer loop
      vertex -4.54913 13.0691 3
      vertex -4.317 13.1363 0
      vertex -4.54913 13.0691 0
    endloop
  endfacet
  facet normal -0.200201 0.979755 0
    outer loop
      vertex -4.54913 13.0691 0
      vertex -4.78844 13.0202 3
      vertex -4.54913 13.0691 3
    endloop
  endfacet
  facet normal -0.200201 0.979755 0
    outer loop
      vertex -4.78844 13.0202 3
      vertex -4.54913 13.0691 0
      vertex -4.78844 13.0202 0
    endloop
  endfacet
  facet normal -0.121205 0.992628 0
    outer loop
      vertex -4.78844 13.0202 0
      vertex -5.03413 12.9902 3
      vertex -4.78844 13.0202 3
    endloop
  endfacet
  facet normal -0.121205 0.992628 0
    outer loop
      vertex -5.03413 12.9902 3
      vertex -4.78844 13.0202 0
      vertex -5.03413 12.9902 0
    endloop
  endfacet
  facet normal -0.0401602 0.999193 0
    outer loop
      vertex -5.03413 12.9902 0
      vertex -5.28542 12.9801 3
      vertex -5.03413 12.9902 3
    endloop
  endfacet
  facet normal -0.0401602 0.999193 0
    outer loop
      vertex -5.28542 12.9801 3
      vertex -5.03413 12.9902 0
      vertex -5.28542 12.9801 0
    endloop
  endfacet
  facet normal 0.0401618 0.999193 -0
    outer loop
      vertex -5.28542 12.9801 0
      vertex -5.5367 12.9902 3
      vertex -5.28542 12.9801 3
    endloop
  endfacet
  facet normal 0.0401618 0.999193 0
    outer loop
      vertex -5.5367 12.9902 3
      vertex -5.28542 12.9801 0
      vertex -5.5367 12.9902 0
    endloop
  endfacet
  facet normal 1 -0 0
    outer loop
      vertex -6.70859 -12.823 3
      vertex -6.70859 -12.8 0
      vertex -6.70859 -12.8 3
    endloop
  endfacet
  facet normal 1 0 0
    outer loop
      vertex -6.70859 -12.8 0
      vertex -6.70859 -12.823 3
      vertex -6.70859 -12.823 0
    endloop
  endfacet
  facet normal 0 -1 0
    outer loop
      vertex -3.8 -7.80731 0
      vertex -3.70877 -7.80731 3
      vertex -3.8 -7.80731 3
    endloop
  endfacet
  facet normal 0 -1 -0
    outer loop
      vertex -3.70877 -7.80731 3
      vertex -3.8 -7.80731 0
      vertex -3.70877 -7.80731 0
    endloop
  endfacet
  facet normal -1 0 0
    outer loop
      vertex -3.70877 -12.823 0
      vertex -3.70877 -7.80731 3
      vertex -3.70877 -7.80731 0
    endloop
  endfacet
  facet normal -1 -0 0
    outer loop
      vertex -3.70877 -7.80731 3
      vertex -3.70877 -12.823 0
      vertex -3.70877 -12.823 3
    endloop
  endfacet
  facet normal 0 1 -0
    outer loop
      vertex -3.70877 -12.823 0
      vertex -6.70859 -12.823 3
      vertex -3.70877 -12.823 3
    endloop
  endfacet
  facet normal 0 1 0
    outer loop
      vertex -6.70859 -12.823 3
      vertex -3.70877 -12.823 0
      vertex -6.70859 -12.823 0
    endloop
  endfacet
  facet normal -1 0 0
    outer loop
      vertex -6.8 -12.8 -7.96
      vertex -6.8 -7.8 0
      vertex -6.8 -7.8 -7.96
    endloop
  endfacet
  facet normal -1 -0 0
    outer loop
      vertex -6.8 -7.8 0
      vertex -6.8 -12.8 -7.96
      vertex -6.8 -12.8 0
    endloop
  endfacet
  facet normal -1 0 0
    outer loop
      vertex -6.8 -12.8 3
      vertex -6.8 -7.8 3.04
      vertex -6.8 -7.8 3
    endloop
  endfacet
  facet normal -1 -0 0
    outer loop
      vertex -6.8 -7.8 3.04
      vertex -6.8 -12.8 3
      vertex -6.8 -12.8 3.04
    endloop
  endfacet
  facet normal -0 0 1
    outer loop
      vertex -6.8 -7.8 3.04
      vertex -3.8 -12.8 3.04
      vertex -3.8 -7.8 3.04
    endloop
  endfacet
  facet normal 0 0 1
    outer loop
      vertex -3.8 -12.8 3.04
      vertex -6.8 -7.8 3.04
      vertex -6.8 -12.8 3.04
    endloop
  endfacet
  facet normal 1 0 0
    outer loop
      vertex -3.8 -7.8 3.04
      vertex -3.8 -7.80731 3
      vertex -3.8 -7.8 3
    endloop
  endfacet
  facet normal 1 0 0
    outer loop
      vertex -3.8 -7.80731 3
      vertex -3.8 -12.8 3.04
      vertex -3.8 -7.80731 0
    endloop
  endfacet
  facet normal 1 -0 0
    outer loop
      vertex -3.8 -12.8 3.04
      vertex -3.8 -7.80731 3
      vertex -3.8 -7.8 3.04
    endloop
  endfacet
  facet normal 1 -0 0
    outer loop
      vertex -3.8 -7.80731 0
      vertex -3.8 -7.8 -7.96
      vertex -3.8 -7.8 0
    endloop
  endfacet
  facet normal 1 0 0
    outer loop
      vertex -3.8 -12.8 -7.96
      vertex -3.8 -7.80731 0
      vertex -3.8 -12.8 3.04
    endloop
  endfacet
  facet normal 1 0 0
    outer loop
      vertex -3.8 -7.80731 0
      vertex -3.8 -12.8 -7.96
      vertex -3.8 -7.8 -7.96
    endloop
  endfacet
  facet normal 0 0 -1
    outer loop
      vertex -6.8 -12.8 -7.96
      vertex -3.8 -7.8 -7.96
      vertex -3.8 -12.8 -7.96
    endloop
  endfacet
  facet normal -0 0 -1
    outer loop
      vertex -3.8 -7.8 -7.96
      vertex -6.8 -12.8 -7.96
      vertex -6.8 -7.8 -7.96
    endloop
  endfacet
  facet normal 0 -1 0
    outer loop
      vertex -6.8 -12.8 0
      vertex -6.8 -12.8 -7.96
      vertex -6.70859 -12.8 0
    endloop
  endfacet
  facet normal 0 -1 0
    outer loop
      vertex -6.70859 -12.8 3
      vertex -6.8 -12.8 3.04
      vertex -6.8 -12.8 3
    endloop
  endfacet
  facet normal 0 -1 0
    outer loop
      vertex -6.8 -12.8 3.04
      vertex -6.70859 -12.8 3
      vertex -3.8 -12.8 3.04
    endloop
  endfacet
  facet normal 0 -1 0
    outer loop
      vertex -6.70859 -12.8 0
      vertex -3.8 -12.8 3.04
      vertex -6.70859 -12.8 3
    endloop
  endfacet
  facet normal 0 -1 0
    outer loop
      vertex -3.8 -12.8 -7.96
      vertex -6.70859 -12.8 0
      vertex -6.8 -12.8 -7.96
    endloop
  endfacet
  facet normal 0 -1 0
    outer loop
      vertex -6.70859 -12.8 0
      vertex -3.8 -12.8 -7.96
      vertex -3.8 -12.8 3.04
    endloop
  endfacet
  facet normal 0 1 -0
    outer loop
      vertex -3.8 -7.8 -7.96
      vertex -6.8 -7.8 0
      vertex -3.8 -7.8 0
    endloop
  endfacet
  facet normal 0 1 0
    outer loop
      vertex -6.8 -7.8 0
      vertex -3.8 -7.8 -7.96
      vertex -6.8 -7.8 -7.96
    endloop
  endfacet
  facet normal 0 1 -0
    outer loop
      vertex -3.8 -7.8 3
      vertex -6.8 -7.8 3.04
      vertex -3.8 -7.8 3.04
    endloop
  endfacet
  facet normal 0 1 0
    outer loop
      vertex -6.8 -7.8 3.04
      vertex -3.8 -7.8 3
      vertex -6.8 -7.8 3
    endloop
  endfacet
endsolid OpenSCAD_Model
